<?xml version="1.0" encoding="utf-8"?>
<!-- Generator: Adobe Illustrator 21.0.0, SVG Export Plug-In . SVG Version: 6.00 Build 0)  -->
<svg version="1.1" id="레이어_1" xmlns="http://www.w3.org/2000/svg" xmlns:xlink="http://www.w3.org/1999/xlink" x="0px"
	 y="0px" viewBox="0 0 643 440" style="enable-background:new 0 0 643 440;" xml:space="preserve">
<style type="text/css">
	.st0{fill-rule:evenodd;clip-rule:evenodd;fill:#1470B8;}
	.st1{fill:none;stroke:#000000;stroke-width:1.2;stroke-linejoin:round;stroke-miterlimit:10;}
	.st2{fill:none;stroke:#000000;stroke-width:1.2;stroke-linecap:round;stroke-miterlimit:10;}
	.st3{fill:#231815;}
	.st4{fill:#FFFFFF;}
	.st5{fill:none;stroke:#505050;stroke-width:1.8696;stroke-miterlimit:10;}
	.st6{fill:none;stroke:#505050;stroke-width:1.617;stroke-linejoin:round;stroke-miterlimit:10;}
	.st7{fill:none;stroke:#505050;stroke-width:1.8696;stroke-linejoin:round;stroke-miterlimit:10;}
	.st8{fill:none;stroke:#505050;stroke-width:1.617;stroke-miterlimit:10;}
	.st9{fill:none;stroke:#505050;stroke-width:1.4783;stroke-linejoin:round;stroke-miterlimit:10;}
	.st10{fill-rule:evenodd;clip-rule:evenodd;fill:url(#SVGID_1_);}
	.st11{fill:#FFFFFF;stroke:#FFFFFF;stroke-width:3.4261;stroke-miterlimit:10;}
	.st12{fill:#505050;}
</style>
<polygon class="st0" points="8,298.2 87,298.2 87,322.8 8,322.8 8,298.2 "/>
<line class="st1" x1="136.1" y1="168.3" x2="103.3" y2="168.3"/>
<polyline class="st2" points="109.3,171.8 103.3,168.3 109.3,164.8 "/>
<line class="st1" x1="101.3" y1="152.3" x2="134.1" y2="152.3"/>
<polyline class="st2" points="128.1,148.8 134.1,152.3 128.1,155.8 "/>
<line class="st1" x1="225.7" y1="318.8" x2="225.7" y2="351.7"/>
<polyline class="st2" points="229.2,345.7 225.7,351.7 222.2,345.7 "/>
<line class="st1" x1="244.7" y1="353.7" x2="244.7" y2="320.8"/>
<polyline class="st2" points="241.2,326.8 244.7,320.8 248.2,326.8 "/>
<line class="st1" x1="408.7" y1="318.8" x2="408.7" y2="351.7"/>
<polyline class="st2" points="412.2,345.7 408.7,351.7 405.2,345.7 "/>
<line class="st1" x1="427.7" y1="353.7" x2="427.7" y2="320.8"/>
<polyline class="st2" points="424.2,326.8 427.7,320.8 431.2,326.8 "/>
<line class="st1" x1="545.1" y1="168.3" x2="512.3" y2="168.3"/>
<polyline class="st2" points="518.3,171.8 512.3,168.3 518.3,164.8 "/>
<line class="st1" x1="510.3" y1="152.3" x2="543.1" y2="152.3"/>
<polyline class="st2" points="537.1,148.8 543.1,152.3 537.1,155.8 "/>
<line class="st1" x1="136.1" y1="277.3" x2="103.3" y2="277.3"/>
<polyline class="st2" points="109.3,280.8 103.3,277.3 109.3,273.8 "/>
<line class="st1" x1="101.3" y1="261.3" x2="134.1" y2="261.3"/>
<polyline class="st2" points="128.1,257.8 134.1,261.3 128.1,264.8 "/>
<line class="st1" x1="545.1" y1="277.3" x2="512.3" y2="277.3"/>
<polyline class="st2" points="518.3,280.8 512.3,277.3 518.3,273.8 "/>
<line class="st1" x1="510.3" y1="261.3" x2="543.1" y2="261.3"/>
<polyline class="st2" points="537.1,257.8 543.1,261.3 537.1,264.8 "/>
<g>
	<path class="st3" d="M159.5,323l-0.4,0.5c-0.4-0.2-0.8-0.4-1.2-0.7s-0.6-0.7-0.8-1.1c-0.1,0.4-0.4,0.8-0.7,1.2
		c-0.4,0.4-0.8,0.7-1.3,0.9l-0.4-0.5c0.6-0.2,1.1-0.6,1.5-1c0.4-0.5,0.6-1,0.6-1.6v-0.7h0.7v0.7c0,0.6,0.2,1.1,0.6,1.5
		S158.9,322.8,159.5,323z M161.6,327.6h-5.5v-2h4.5v-0.8h-4.5v-0.6h5.2v1.9h-4.5v0.9h4.8V327.6z M161.3,323.7h-0.7v-4.1h0.7V323.7z"
		/>
	<path class="st3" d="M167.5,325.2l-0.4,0.5c-0.4-0.3-0.8-0.6-1.2-1.1s-0.7-0.9-0.8-1.4c-0.1,0.5-0.4,1-0.8,1.4s-0.8,0.9-1.3,1.2
		l-0.5-0.5c0.6-0.4,1.1-0.9,1.5-1.6c0.4-0.7,0.6-1.3,0.6-2v-1.4h0.7v1.4c0,0.7,0.2,1.4,0.6,2C166.5,324.4,166.9,324.9,167.5,325.2z
		 M169.3,327.7h-0.7v-8h0.7V327.7z"/>
	<path class="st3" d="M170.9,320.4h3.6c0,1.1-0.4,2-1,2.7s-1.5,1.3-2.6,1.6l-0.4-0.6c0.9-0.2,1.6-0.6,2.2-1.2c0.6-0.6,0.9-1.2,1-2
		h-2.9V320.4z M177,327.5h-5.3V325h0.7v1.9h4.6V327.5z M178,322.7h-1.2v2.9H176v-6h0.7v2.5h1.2V322.7z"/>
	<path class="st3" d="M185.6,323l-0.4,0.5c-0.4-0.2-0.8-0.4-1.1-0.7c-0.3-0.3-0.6-0.7-0.8-1.1c-0.1,0.4-0.3,0.8-0.7,1.1
		c-0.3,0.3-0.8,0.6-1.3,0.9l-0.4-0.5c0.6-0.2,1.1-0.6,1.4-1s0.6-1,0.6-1.6v-0.7h0.7v0.7c0,0.6,0.2,1.1,0.6,1.5
		C184.6,322.5,185.1,322.8,185.6,323z M187.8,327.6h-5.5v-2h4.5v-0.8h-4.5v-0.6h5.2v1.9H183v0.9h4.8V327.6z M186.8,321.8h-1.6v-0.6
		h1.6v-1.6h0.7v4.1h-0.7V321.8z"/>
	<path class="st3" d="M193,325.7h-3.8v-5.3h0.7v2.1h2.4v-2.1h0.7V325.7z M192.4,325.1V323H190v2.1H192.4z M195.4,327.7h-0.7v-8h0.7
		V327.7z"/>
	<path class="st3" d="M201.3,323.3l-0.4,0.6c-0.4-0.2-0.8-0.5-1.1-0.8c-0.3-0.3-0.6-0.7-0.7-1.1c-0.1,0.4-0.4,0.8-0.7,1.2
		s-0.8,0.7-1.3,0.9l-0.4-0.5c0.6-0.3,1.1-0.7,1.5-1.2c0.4-0.5,0.6-1,0.6-1.7V320h0.7v0.7c0,0.6,0.2,1.1,0.6,1.6
		C200.3,322.8,200.8,323.2,201.3,323.3z M202.3,325c0.5,0.3,0.7,0.7,0.7,1.1s-0.2,0.9-0.7,1.1c-0.5,0.3-1.1,0.4-2,0.4
		c-0.8,0-1.5-0.1-2-0.4c-0.5-0.3-0.7-0.6-0.7-1.1s0.2-0.9,0.7-1.1c0.5-0.3,1.1-0.4,2-0.4C201.2,324.6,201.8,324.7,202.3,325z
		 M200.3,325.2c-0.6,0-1.1,0.1-1.4,0.3c-0.3,0.2-0.5,0.4-0.5,0.7s0.2,0.5,0.5,0.7c0.3,0.2,0.8,0.2,1.4,0.2c0.6,0,1.1-0.1,1.5-0.2
		s0.5-0.4,0.5-0.7s-0.2-0.5-0.5-0.7S200.9,325.2,200.3,325.2z M204.1,322.4h-1.2v2.2h-0.7v-4.9h0.7v2.2h1.2V322.4z"/>
	<path class="st3" d="M205.7,325.1h0.3c1,0,1.9-0.1,2.5-0.2l0.1,0.6c-0.7,0.2-1.8,0.2-3.2,0.2H205v-5.1h3.1v0.6h-2.4v1.6h2.3v0.6
		h-2.3V325.1z M211.4,327.7h-0.7v-4.2h-1.1v3.8H209v-7.4h0.7v3h1.1v-3.2h0.7V327.7z"/>
	<path class="st3" d="M159.5,334l-0.4,0.5c-0.4-0.2-0.8-0.4-1.2-0.7s-0.6-0.7-0.8-1.1c-0.1,0.4-0.4,0.8-0.7,1.2
		c-0.4,0.4-0.8,0.7-1.3,0.9l-0.4-0.5c0.6-0.2,1.1-0.6,1.5-1c0.4-0.5,0.6-1,0.6-1.6v-0.7h0.7v0.7c0,0.6,0.2,1.1,0.6,1.5
		S158.9,333.8,159.5,334z M161.6,338.6h-5.5v-2h4.5v-0.8h-4.5v-0.6h5.2v1.9h-4.5v0.9h4.8V338.6z M161.3,334.7h-0.7v-4.1h0.7V334.7z"
		/>
	<path class="st3" d="M167.5,336.2l-0.4,0.5c-0.4-0.3-0.8-0.6-1.2-1.1s-0.7-0.9-0.8-1.4c-0.1,0.5-0.4,1-0.8,1.4s-0.8,0.9-1.3,1.2
		l-0.5-0.5c0.6-0.4,1.1-0.9,1.5-1.6c0.4-0.7,0.6-1.3,0.6-2v-1.4h0.7v1.4c0,0.7,0.2,1.4,0.6,2C166.5,335.4,166.9,335.8,167.5,336.2z
		 M169.3,338.6h-0.7v-8h0.7V338.6z"/>
	<path class="st3" d="M170.9,331.3h3.6c0,1.1-0.4,2-1,2.7s-1.5,1.3-2.6,1.6l-0.4-0.6c0.9-0.2,1.6-0.6,2.2-1.2c0.6-0.6,0.9-1.2,1-2
		h-2.9V331.3z M177,338.4h-5.3V336h0.7v1.9h4.6V338.4z M178,333.7h-1.2v2.9H176v-6h0.7v2.5h1.2V333.7z"/>
	<path class="st3" d="M185,334.5l-0.4,0.5c-0.4-0.2-0.7-0.4-1-0.7s-0.5-0.6-0.7-0.9c-0.1,0.3-0.3,0.7-0.6,1.1
		c-0.3,0.4-0.7,0.7-1,0.9l-0.4-0.5c0.5-0.3,0.9-0.6,1.2-1.1c0.3-0.5,0.5-1,0.5-1.5v-1h0.7v1c0,0.6,0.2,1,0.5,1.5
		C184.1,334,184.5,334.3,185,334.5z M187,336.1c0.5,0.3,0.7,0.6,0.7,1.1s-0.2,0.8-0.7,1.1c-0.5,0.3-1.2,0.4-2,0.4
		c-0.8,0-1.5-0.1-2-0.4c-0.5-0.3-0.7-0.6-0.7-1.1s0.2-0.8,0.7-1.1s1.1-0.4,2-0.4C185.9,335.7,186.5,335.8,187,336.1z M186.5,336.5
		c-0.4-0.2-0.8-0.2-1.5-0.2s-1.1,0.1-1.5,0.2c-0.4,0.2-0.5,0.4-0.5,0.6c0,0.3,0.2,0.5,0.5,0.7c0.4,0.2,0.8,0.2,1.5,0.2
		s1.1-0.1,1.5-0.2c0.4-0.2,0.5-0.4,0.5-0.7C187,336.9,186.8,336.7,186.5,336.5z M187.7,335.7H187v-2.4h-1v2h-0.7v-4.5h0.7v2h1v-2.1
		h0.7V335.7z"/>
	<path class="st3" d="M193.4,334.6l-0.4,0.6c-0.4-0.2-0.8-0.5-1.2-0.8c-0.3-0.3-0.6-0.7-0.8-1.1c-0.1,0.4-0.4,0.8-0.7,1.3
		c-0.4,0.4-0.8,0.7-1.2,1l-0.4-0.6c0.6-0.3,1-0.6,1.4-1.2s0.6-1.1,0.6-1.7v-0.9h0.7v0.9c0,0.6,0.2,1.2,0.6,1.6
		C192.4,334.1,192.9,334.4,193.4,334.6z M195.3,338.4H190v-2.5h0.7v1.9h4.6V338.4z M196.2,333.7H195v2.8h-0.7v-5.8h0.7v2.4h1.2
		V333.7z"/>
	<path class="st3" d="M201.3,332.7h-4.6v-0.6h4.6V332.7z M201,334.5c0,0.4-0.2,0.8-0.5,1c-0.4,0.3-0.8,0.4-1.4,0.4
		c-0.5,0-1-0.1-1.4-0.4s-0.5-0.6-0.5-1c0-0.4,0.2-0.7,0.5-1c0.4-0.3,0.8-0.4,1.4-0.4c0.6,0,1,0.1,1.4,0.4
		C200.8,333.8,201,334.1,201,334.5z M200,335.1c0.2-0.2,0.4-0.4,0.4-0.6s-0.1-0.4-0.4-0.6c-0.2-0.2-0.5-0.2-0.9-0.2
		c-0.3,0-0.6,0.1-0.9,0.2c-0.2,0.2-0.3,0.4-0.3,0.6s0.1,0.4,0.3,0.6c0.2,0.2,0.5,0.2,0.9,0.2C199.5,335.3,199.7,335.3,200,335.1z
		 M200.2,331.5h-2.3v-0.6h2.3V331.5z M203.5,338.4h-5.4v-2.1h0.7v1.5h4.7V338.4z M201.3,333.6V333h1.3v-2.3h0.7v6h-0.7v-1.5h-1.3
		v-0.6h1.3v-1H201.3z"/>
	<path class="st3" d="M208.9,333.6c0,0.3-0.1,0.5-0.4,0.7s-0.6,0.3-1.1,0.3v0.5c1-0.1,1.8-0.1,2.2-0.2l0.1,0.5
		c-0.6,0.1-1.5,0.2-2.5,0.2c-1.2,0.1-2,0.1-2.5,0.1l-0.1-0.6c0.5,0,1.3,0,2.2,0v-0.5c-0.4,0-0.8-0.1-1.1-0.3
		c-0.3-0.2-0.4-0.4-0.4-0.7c0-0.3,0.2-0.6,0.5-0.8c0.3-0.2,0.8-0.3,1.3-0.3s1,0.1,1.3,0.3C208.7,333,208.9,333.3,208.9,333.6z
		 M209.3,332.3h-4.5v-0.6h4.5V332.3z M210.9,337.4c0,0.4-0.2,0.7-0.7,1c-0.5,0.2-1.1,0.3-1.9,0.3c-0.8,0-1.5-0.1-1.9-0.3
		s-0.7-0.5-0.7-1c0-0.4,0.2-0.7,0.7-0.9s1.1-0.3,1.9-0.3s1.5,0.1,1.9,0.3S210.9,337,210.9,337.4z M207.9,334
		c0.2-0.1,0.3-0.2,0.3-0.4c0-0.2-0.1-0.3-0.3-0.4c-0.2-0.1-0.5-0.1-0.8-0.1c-0.3,0-0.6,0-0.8,0.1s-0.3,0.2-0.3,0.4
		c0,0.4,0.4,0.5,1.1,0.5C207.4,334.2,207.7,334.1,207.9,334z M208.2,331.3H206v-0.6h2.2V331.3z M208.3,336.7c-0.6,0-1,0.1-1.4,0.2
		s-0.5,0.3-0.5,0.5s0.2,0.4,0.5,0.5s0.8,0.2,1.4,0.2c1.3,0,1.9-0.2,1.9-0.7c0-0.2-0.2-0.4-0.5-0.5S208.9,336.7,208.3,336.7z
		 M212.1,333.9h-1.2v2.2h-0.7v-5.4h0.7v2.7h1.2V333.9z"/>
	<path class="st3" d="M159.5,345l-0.4,0.5c-0.4-0.2-0.8-0.4-1.2-0.7s-0.6-0.7-0.8-1.1c-0.1,0.4-0.4,0.8-0.7,1.2
		c-0.4,0.4-0.8,0.7-1.3,0.9l-0.4-0.5c0.6-0.2,1.1-0.6,1.5-1c0.4-0.5,0.6-1,0.6-1.6v-0.7h0.7v0.7c0,0.6,0.2,1.1,0.6,1.5
		S158.9,344.8,159.5,345z M161.6,349.5h-5.5v-2h4.5v-0.8h-4.5v-0.6h5.2v1.9h-4.5v0.9h4.8V349.5z M161.3,345.7h-0.7v-4.1h0.7V345.7z"
		/>
	<path class="st3" d="M167.5,347.2l-0.4,0.5c-0.4-0.3-0.8-0.6-1.2-1.1s-0.7-0.9-0.8-1.4c-0.1,0.5-0.4,1-0.8,1.4s-0.8,0.9-1.3,1.2
		l-0.5-0.5c0.6-0.4,1.1-0.9,1.5-1.6c0.4-0.7,0.6-1.3,0.6-2v-1.4h0.7v1.4c0,0.7,0.2,1.4,0.6,2C166.5,346.4,166.9,346.8,167.5,347.2z
		 M169.3,349.6h-0.7v-8h0.7V349.6z"/>
	<path class="st3" d="M170.9,342.3h3.6c0,1.1-0.4,2-1,2.7s-1.5,1.3-2.6,1.6l-0.4-0.6c0.9-0.2,1.6-0.6,2.2-1.2c0.6-0.6,0.9-1.2,1-2
		h-2.9V342.3z M177,349.4h-5.3V347h0.7v1.9h4.6V349.4z M178,344.7h-1.2v2.9H176v-6h0.7v2.5h1.2V344.7z"/>
	<path class="st3" d="M188.1,346h-7.2v-0.6h3v-1.7h0.7v1.7h3.6V346z M186.6,347.1c0.5,0.3,0.7,0.6,0.7,1.1s-0.2,0.8-0.7,1.1
		c-0.5,0.3-1.2,0.4-2.1,0.4c-0.9,0-1.6-0.1-2.1-0.4c-0.5-0.3-0.7-0.6-0.7-1.1s0.3-0.8,0.8-1.1s1.2-0.4,2.1-0.4
		C185.4,346.7,186.1,346.8,186.6,347.1z M187.3,342.1v0.7c0,0.8-0.1,1.5-0.2,2.1l-0.7-0.1c0.1-0.4,0.2-0.9,0.2-1.5l0-0.7h-4.9v-0.6
		H187.3z M186.1,348.8c0.4-0.2,0.6-0.4,0.6-0.6s-0.2-0.5-0.6-0.6c-0.4-0.2-0.9-0.2-1.6-0.2c-0.7,0-1.2,0.1-1.6,0.2
		c-0.4,0.2-0.6,0.4-0.6,0.6s0.2,0.5,0.6,0.6c0.4,0.2,0.9,0.2,1.6,0.2C185.2,349,185.7,348.9,186.1,348.8z"/>
	<path class="st3" d="M189,342.9v-0.6h4.3v0.6h-1.8c0,0.2,0,0.4,0,0.4c0,0.5,0.3,1,0.7,1.4c0.4,0.4,0.9,0.7,1.4,0.9l-0.4,0.6
		c-0.4-0.2-0.8-0.4-1.2-0.8c-0.4-0.3-0.7-0.7-0.8-1c-0.1,0.4-0.4,0.8-0.8,1.2c-0.4,0.4-0.8,0.7-1.3,0.9l-0.4-0.6
		c0.5-0.2,1-0.5,1.4-1c0.4-0.5,0.6-1,0.6-1.5c0-0.1,0-0.2,0-0.4H189z M195.4,348.1c0,0.5-0.2,0.8-0.7,1.1c-0.5,0.3-1.1,0.4-2,0.4
		c-0.8,0-1.5-0.1-2-0.4c-0.5-0.3-0.7-0.6-0.7-1.1c0-0.5,0.2-0.9,0.7-1.1c0.5-0.3,1.1-0.4,2-0.4c0.9,0,1.5,0.1,2,0.4
		C195.2,347.3,195.4,347.6,195.4,348.1z M192.7,347.2c-0.6,0-1.1,0.1-1.4,0.2c-0.3,0.2-0.5,0.4-0.5,0.7c0,0.3,0.2,0.5,0.5,0.7
		c0.3,0.2,0.8,0.2,1.4,0.2c0.6,0,1.1-0.1,1.5-0.2c0.3-0.2,0.5-0.4,0.5-0.7c0-0.3-0.2-0.5-0.5-0.7
		C193.9,347.3,193.4,347.2,192.7,347.2z M194.7,344.3h-1.6v-0.6h1.6v-2.1h0.7v5h-0.7V344.3z"/>
	<path class="st3" d="M197.1,343v-0.6h4.4v0.6h-1.8c0,0.3,0,0.5,0,0.6c0,0.5,0.2,0.9,0.6,1.4c0.4,0.4,0.8,0.7,1.3,0.9l-0.4,0.6
		c-0.4-0.2-0.8-0.4-1.2-0.7c-0.4-0.3-0.6-0.7-0.8-1c-0.1,0.4-0.4,0.7-0.7,1.1c-0.4,0.4-0.8,0.7-1.3,0.9l-0.4-0.5
		c0.5-0.2,1-0.5,1.4-1c0.4-0.5,0.6-0.9,0.7-1.5c0-0.1,0-0.3,0-0.6H197.1z M203.5,349.4h-5.3v-2.5h0.7v1.9h4.6V349.4z M203.3,347.5
		h-0.7v-5.8h0.7V347.5z"/>
	<path class="st3" d="M208.7,343.7h-4.1v-0.6h4.1V343.7z M208.5,345.3c0,0.4-0.2,0.7-0.5,0.9c-0.3,0.2-0.7,0.3-1.2,0.3
		s-0.9-0.1-1.2-0.3c-0.3-0.2-0.5-0.5-0.5-0.9c0-0.4,0.2-0.7,0.5-0.9c0.3-0.2,0.7-0.3,1.2-0.3s0.9,0.1,1.2,0.3
		C208.3,344.6,208.5,344.9,208.5,345.3z M207.7,342.6h-2.1V342h2.1V342.6z M207.8,345.3c0-0.2-0.1-0.4-0.3-0.5
		c-0.2-0.1-0.4-0.2-0.7-0.2s-0.5,0.1-0.7,0.2c-0.2,0.1-0.3,0.3-0.3,0.5c0,0.2,0.1,0.4,0.3,0.5s0.4,0.2,0.7,0.2
		c0.3,0,0.5-0.1,0.7-0.2S207.8,345.5,207.8,345.3z M211.4,348.3c0,0.4-0.2,0.8-0.7,1c-0.5,0.2-1.1,0.4-2,0.4s-1.5-0.1-2-0.4
		c-0.5-0.2-0.7-0.6-0.7-1c0-0.4,0.2-0.8,0.7-1s1.1-0.4,2-0.4c0.8,0,1.5,0.1,2,0.4C211.2,347.5,211.4,347.8,211.4,348.3z
		 M210.2,347.7c-0.4-0.1-0.8-0.2-1.5-0.2c-0.6,0-1.1,0.1-1.4,0.2c-0.4,0.1-0.5,0.3-0.5,0.6s0.2,0.4,0.5,0.6c0.4,0.1,0.8,0.2,1.4,0.2
		c0.6,0,1.1-0.1,1.5-0.2c0.4-0.1,0.5-0.3,0.5-0.6S210.5,347.8,210.2,347.7z M211.4,346.9h-0.7v-2.4h-1v2.1h-0.7v-4.8h0.7v2.2h1v-2.3
		h0.7V346.9z"/>
</g>
<g>
	<path class="st3" d="M293.5,101l-0.4,0.5c-0.4-0.2-0.8-0.4-1.2-0.7s-0.6-0.7-0.8-1.1c-0.1,0.4-0.4,0.8-0.7,1.2
		c-0.4,0.4-0.8,0.7-1.3,0.9l-0.4-0.5c0.6-0.2,1.1-0.6,1.5-1c0.4-0.5,0.6-1,0.6-1.6v-0.7h0.7v0.7c0,0.6,0.2,1.1,0.6,1.5
		S292.9,100.8,293.5,101z M295.6,105.6h-5.5v-2h4.5v-0.8h-4.5v-0.6h5.2v1.9h-4.5v0.9h4.8V105.6z M295.3,101.7h-0.7v-4.1h0.7V101.7z"
		/>
	<path class="st3" d="M301.5,103.2l-0.4,0.5c-0.4-0.3-0.8-0.6-1.2-1.1s-0.7-0.9-0.8-1.4c-0.1,0.5-0.4,1-0.8,1.4s-0.8,0.9-1.3,1.2
		l-0.5-0.5c0.6-0.4,1.1-0.9,1.5-1.6c0.4-0.7,0.6-1.3,0.6-2v-1.4h0.7v1.4c0,0.7,0.2,1.4,0.6,2C300.5,102.4,300.9,102.9,301.5,103.2z
		 M303.3,105.7h-0.7v-8h0.7V105.7z"/>
	<path class="st3" d="M304.9,98.4h3.6c0,1.1-0.4,2-1,2.7s-1.5,1.3-2.6,1.6l-0.4-0.6c0.9-0.2,1.6-0.6,2.2-1.2c0.6-0.6,0.9-1.2,1-2
		h-2.9V98.4z M311,105.5h-5.3V103h0.7v1.9h4.6V105.5z M312,100.7h-1.2v2.9H310v-6h0.7v2.5h1.2V100.7z"/>
	<path class="st3" d="M322.1,102.2h-7.2v-0.6h3.3v-1.2h0.7v1.2h3.3V102.2z M321.8,100.3l-0.3,0.6c-0.7-0.1-1.3-0.3-1.8-0.6
		c-0.5-0.3-0.9-0.7-1.1-1c-0.2,0.4-0.5,0.7-1.1,1c-0.5,0.3-1.2,0.5-1.9,0.6l-0.3-0.6c0.7-0.1,1.3-0.2,1.8-0.6s0.9-0.7,1-1.1h-2.6
		v-0.6h5.9v0.6h-2.5c0.1,0.4,0.5,0.8,1,1.1C320.6,100.1,321.2,100.3,321.8,100.3z M320.6,103.2c0.5,0.2,0.7,0.6,0.7,1
		c0,0.4-0.2,0.8-0.7,1s-1.2,0.4-2.1,0.4c-0.9,0-1.6-0.1-2.1-0.4s-0.7-0.6-0.7-1c0-0.4,0.2-0.8,0.7-1c0.5-0.2,1.2-0.4,2.1-0.4
		C319.4,102.9,320.1,103,320.6,103.2z M318.5,103.4c-0.6,0-1.2,0.1-1.5,0.2c-0.4,0.1-0.6,0.3-0.6,0.6c0,0.3,0.2,0.5,0.6,0.6
		c0.4,0.1,0.9,0.2,1.5,0.2c0.7,0,1.2-0.1,1.5-0.2c0.4-0.1,0.6-0.3,0.6-0.6c0-0.3-0.2-0.5-0.6-0.6
		C319.7,103.5,319.2,103.4,318.5,103.4z"/>
	<path class="st3" d="M327.5,99.5h-4.7v-0.6h4.7V99.5z M327,101.1c0,0.4-0.2,0.7-0.5,0.9c-0.3,0.2-0.8,0.4-1.3,0.4
		c-0.5,0-1-0.1-1.3-0.4c-0.3-0.2-0.5-0.5-0.5-0.9c0-0.4,0.2-0.7,0.5-0.9s0.8-0.4,1.4-0.4c0.5,0,1,0.1,1.3,0.4
		C326.8,100.4,327,100.7,327,101.1z M329,105.6h-5v-2.9h0.7v0.9h3.6v-0.9h0.7V105.6z M326.3,101.1c0-0.2-0.1-0.4-0.3-0.5
		c-0.2-0.1-0.5-0.2-0.8-0.2c-0.3,0-0.6,0.1-0.8,0.2c-0.2,0.1-0.3,0.3-0.3,0.5c0,0.2,0.1,0.4,0.3,0.5c0.2,0.1,0.5,0.2,0.8,0.2
		c0.3,0,0.6-0.1,0.8-0.2C326.2,101.5,326.3,101.3,326.3,101.1z M326.3,98.3H324v-0.6h2.3V98.3z M328.3,105v-0.9h-3.6v0.9H328.3z
		 M330.2,100.5H329v1.8h-0.7v-4.6h0.7v2.3h1.2V100.5z"/>
	<path class="st3" d="M335.3,101.5l-0.4,0.5c-0.4-0.2-0.8-0.5-1.1-0.8c-0.3-0.3-0.6-0.7-0.7-1.1c-0.1,0.4-0.4,0.8-0.7,1.2
		c-0.4,0.4-0.8,0.7-1.2,0.9l-0.4-0.5c0.6-0.3,1.1-0.7,1.4-1.2c0.4-0.5,0.5-1.1,0.5-1.7v-0.8h0.7v0.8c0,0.6,0.2,1.1,0.6,1.6
		C334.4,101,334.8,101.3,335.3,101.5z M336.7,103c0.5,0.3,0.7,0.6,0.7,1.1c0,0.5-0.2,0.8-0.7,1.1c-0.5,0.3-1.1,0.4-2,0.4
		c-0.8,0-1.5-0.1-2-0.4c-0.5-0.3-0.7-0.6-0.7-1.1c0-0.5,0.2-0.8,0.7-1.1c0.5-0.3,1.1-0.4,2-0.4C335.6,102.6,336.2,102.8,336.7,103z
		 M334.7,103.2c-0.6,0-1.1,0.1-1.4,0.2c-0.3,0.2-0.5,0.4-0.5,0.7c0,0.3,0.2,0.5,0.5,0.7c0.3,0.2,0.8,0.2,1.4,0.2
		c0.6,0,1.1-0.1,1.5-0.2c0.3-0.2,0.5-0.4,0.5-0.7c0-0.3-0.2-0.5-0.5-0.7S335.3,103.2,334.7,103.2z M336.6,100.1h-1.7v-0.6h1.7v-1.8
		h0.7v5h-0.7V100.1z"/>
	<path class="st3" d="M345.9,102h-7.2v-0.6h7.2V102z M345.1,104.1c0,0.5-0.2,0.8-0.7,1.1c-0.5,0.3-1.2,0.4-2.1,0.4
		c-0.9,0-1.6-0.1-2.1-0.4c-0.5-0.3-0.7-0.6-0.7-1.1c0-0.5,0.2-0.8,0.7-1.1c0.5-0.3,1.2-0.4,2.1-0.4c0.9,0,1.6,0.1,2.1,0.4
		S345.1,103.6,345.1,104.1z M345.1,100.5h-5.4v-2.7h0.7v2.1h4.7V100.5z M342.3,103.2c-0.6,0-1.2,0.1-1.5,0.2
		c-0.4,0.2-0.6,0.4-0.6,0.7s0.2,0.5,0.6,0.7c0.4,0.2,0.9,0.2,1.5,0.2c0.7,0,1.2-0.1,1.6-0.2c0.4-0.2,0.6-0.4,0.6-0.7
		s-0.2-0.5-0.6-0.7C343.5,103.3,343,103.2,342.3,103.2z"/>
	<path class="st3" d="M350.6,104h-0.7v-1.5h-3.3v-0.6h7.2v0.6h-3.3V104z M352.9,101h-5.4v-3.1h0.7v1h4v-1h0.7V101z M353,105.4h-5.5
		v-2.2h0.7v1.6h4.8V105.4z M352.2,100.4v-0.9h-4v0.9H352.2z"/>
	<path class="st3" d="M359.1,101.4l-0.4,0.5c-0.4-0.2-0.8-0.5-1.1-0.8c-0.3-0.3-0.6-0.7-0.8-1.1c-0.2,0.8-0.9,1.5-2,2.1l-0.4-0.5
		c0.6-0.3,1.1-0.7,1.5-1.1c0.4-0.5,0.6-1,0.6-1.6V98h0.7v0.8c0,0.6,0.2,1.1,0.6,1.6C358.2,100.8,358.6,101.2,359.1,101.4z
		 M361.1,105.7h-0.7v-2.3h-4.6v-0.6h5.3V105.7z M360.4,100h-1.6v-0.6h1.6v-1.8h0.7v4.7h-0.7V100z"/>
</g>
<g>
	<path class="st3" d="M447.5,323l-0.4,0.5c-0.4-0.2-0.8-0.4-1.2-0.7s-0.6-0.7-0.8-1.1c-0.1,0.4-0.4,0.8-0.7,1.2
		c-0.4,0.4-0.8,0.7-1.3,0.9l-0.4-0.5c0.6-0.2,1.1-0.6,1.5-1c0.4-0.5,0.6-1,0.6-1.6v-0.7h0.7v0.7c0,0.6,0.2,1.1,0.6,1.5
		S446.9,322.8,447.5,323z M449.6,327.6h-5.5v-2h4.5v-0.8h-4.5v-0.6h5.2v1.9h-4.5v0.9h4.8V327.6z M449.3,323.7h-0.7v-4.1h0.7V323.7z"
		/>
	<path class="st3" d="M455.5,325.2l-0.4,0.5c-0.4-0.3-0.8-0.6-1.2-1.1s-0.7-0.9-0.8-1.4c-0.1,0.5-0.4,1-0.8,1.4s-0.8,0.9-1.3,1.2
		l-0.5-0.5c0.6-0.4,1.1-0.9,1.5-1.6c0.4-0.7,0.6-1.3,0.6-2v-1.4h0.7v1.4c0,0.7,0.2,1.4,0.6,2C454.5,324.4,454.9,324.9,455.5,325.2z
		 M457.3,327.7h-0.7v-8h0.7V327.7z"/>
	<path class="st3" d="M458.9,320.4h3.6c0,1.1-0.4,2-1,2.7s-1.5,1.3-2.6,1.6l-0.4-0.6c0.9-0.2,1.6-0.6,2.2-1.2c0.6-0.6,0.9-1.2,1-2
		h-2.9V320.4z M465,327.5h-5.3V325h0.7v1.9h4.6V327.5z M466,322.7h-1.2v2.9H464v-6h0.7v2.5h1.2V322.7z"/>
	<path class="st3" d="M476.1,324.3h-7.2v-0.6h3.3v-0.9h-2.3V320h5.4v2.7h-2.4v0.9h3.3V324.3z M469.7,325.1h5.6v2.6h-0.7v-2.1h-4.9
		V325.1z M474.5,322.2v-1.6h-4v1.6H474.5z"/>
	<path class="st3" d="M484.1,326.6h-7.2v-0.6h2v-1.7h0.7v1.7h1.9v-1.7h0.7v1.7h2V326.6z M483.3,320.9h-5.8v-0.6h5.8V320.9z
		 M483.3,323.9h-5.8v-0.6h1.3l-0.2-1.9l0.7-0.1l0.1,2h2l0.2-2l0.7,0.1l-0.3,1.9h1.2V323.9z"/>
	<path class="st3" d="M485.7,325h0.2c1.2,0,2.1-0.1,2.7-0.2l0.1,0.6c-0.8,0.2-1.9,0.2-3.2,0.2H485v-5h3.1v0.6h-2.4V325z
		 M491.5,327.7h-0.7v-4.3h-1.1v3.9h-0.7v-7.4h0.7v3h1.1v-3.2h0.7V327.7z"/>
	<path class="st3" d="M496.9,325.7h-3.8v-5.3h0.7v2.1h2.4v-2.1h0.7V325.7z M496.2,325.1V323h-2.4v2.1H496.2z M499.3,327.7h-0.7v-8
		h0.7V327.7z"/>
	<path class="st3" d="M505.4,323l-0.4,0.5c-0.4-0.2-0.8-0.4-1.2-0.7s-0.6-0.7-0.8-1.1c-0.1,0.4-0.4,0.8-0.7,1.2
		c-0.4,0.4-0.8,0.7-1.3,0.9l-0.4-0.5c0.6-0.2,1.1-0.6,1.5-1c0.4-0.5,0.6-1,0.6-1.6v-0.7h0.7v0.7c0,0.6,0.2,1.1,0.6,1.5
		S504.8,322.8,505.4,323z M507.4,327.6h-5.5v-2h4.5v-0.8h-4.5v-0.6h5.2v1.9h-4.5v0.9h4.8V327.6z M507.1,323.7h-0.7v-4.1h0.7V323.7z"
		/>
	<path class="st3" d="M508.7,320.9v-0.6h4.3v0.6h-1.8c0,0.3,0,0.4,0,0.5c0,0.5,0.2,1,0.6,1.4c0.4,0.4,0.8,0.7,1.3,0.9l-0.4,0.6
		c-0.4-0.2-0.8-0.4-1.1-0.8c-0.4-0.4-0.6-0.7-0.8-1.1c-0.1,0.4-0.4,0.8-0.8,1.2c-0.4,0.4-0.8,0.7-1.3,0.9l-0.4-0.6
		c0.5-0.2,1-0.5,1.4-1c0.4-0.5,0.6-1,0.6-1.5c0-0.1,0-0.2,0-0.5H508.7z M509.7,324.8h5.3v2.8h-0.7v-2.2h-4.6V324.8z M515.1,324.4
		h-0.7v-2.1h-1.6v-0.6h1.6v-2.1h0.7V324.4z"/>
	<path class="st3" d="M442.8,331.8v-0.6h4.4v0.6h-1.8c0,0.2,0,0.4,0,0.4c0,0.5,0.2,0.9,0.6,1.4s0.8,0.7,1.3,0.9l-0.4,0.6
		c-0.4-0.2-0.8-0.4-1.1-0.7c-0.4-0.3-0.6-0.7-0.8-1c-0.1,0.4-0.4,0.7-0.8,1.1c-0.4,0.4-0.8,0.7-1.3,0.9l-0.4-0.5
		c0.5-0.2,1-0.5,1.4-1c0.4-0.5,0.6-0.9,0.6-1.5c0,0,0-0.1,0-0.2s0-0.2,0-0.3H442.8z M443.7,335.8h5.2v2.8h-0.7v-2.3h-4.5V335.8z
		 M450.1,333.4h-1.2v2h-0.7v-4.8h0.7v2.2h1.2V333.4z"/>
	<path class="st3" d="M452.8,331c0.6,0,1.1,0.2,1.5,0.5c0.4,0.3,0.6,0.8,0.6,1.4s-0.2,1-0.6,1.3c-0.4,0.3-0.9,0.5-1.5,0.5
		c-0.6,0-1.1-0.2-1.5-0.5c-0.4-0.3-0.6-0.8-0.6-1.3c0-0.5,0.2-1,0.6-1.4C451.7,331.2,452.2,331,452.8,331z M452.8,331.6
		c-0.4,0-0.7,0.1-1,0.4c-0.3,0.2-0.4,0.5-0.4,0.9c0,0.4,0.1,0.7,0.4,0.9c0.3,0.2,0.6,0.4,1,0.4c0.4,0,0.7-0.1,1-0.4
		c0.2-0.2,0.4-0.5,0.4-0.9s-0.1-0.7-0.4-0.9C453.5,331.8,453.2,331.6,452.8,331.6z M457.2,338.5h-5.1v-3.2h0.7v1h3.7v-1h0.7V338.5z
		 M456.5,338v-1h-3.7v1H456.5z M456.5,333.2h-1.3v-0.6h1.3v-1.9h0.7v4.3h-0.7V333.2z"/>
	<path class="st3" d="M463.3,336.2l-0.4,0.5c-0.4-0.3-0.8-0.6-1.2-1.1s-0.7-0.9-0.8-1.4c-0.1,0.5-0.4,1-0.7,1.4
		c-0.4,0.5-0.8,0.9-1.3,1.2l-0.5-0.5c0.6-0.4,1.1-0.9,1.5-1.5c0.4-0.7,0.6-1.3,0.6-2v-0.8h-1.9v-0.6h4.4v0.6h-1.8v0.8
		c0,0.7,0.2,1.4,0.6,2C462.2,335.4,462.7,335.9,463.3,336.2z M466,334.5h-1.3v4.2H464v-8h0.7v3.3h1.3V334.5z"/>
	<path class="st3" d="M472.9,338.6h-0.7v-2.5h-3.3v-0.6h7.2v0.6h-3.3V338.6z M475.1,333.2h-4.6v1h4.9v0.6h-5.6v-3.6h5.5v0.6h-4.8
		v0.9h4.6V333.2z"/>
	<path class="st3" d="M479.1,331c0.6,0,1.1,0.2,1.5,0.5c0.4,0.3,0.6,0.8,0.6,1.4s-0.2,1-0.6,1.3c-0.4,0.3-0.9,0.5-1.5,0.5
		c-0.6,0-1.1-0.2-1.5-0.5c-0.4-0.3-0.6-0.8-0.6-1.3c0-0.5,0.2-1,0.6-1.4C478,331.2,478.5,331,479.1,331z M479.1,331.6
		c-0.4,0-0.7,0.1-1,0.4c-0.3,0.2-0.4,0.5-0.4,0.9c0,0.4,0.1,0.7,0.4,0.9s0.6,0.4,1,0.4c0.4,0,0.7-0.1,1-0.4c0.2-0.2,0.4-0.5,0.4-0.9
		s-0.1-0.7-0.4-0.9C479.8,331.8,479.5,331.6,479.1,331.6z M483.4,338.5h-5.2v-3.2h0.7v1h3.8v-1h0.7V338.5z M482.7,338v-1h-3.8v1
		H482.7z M483.4,334.9h-0.7v-4.3h0.7V334.9z"/>
	<path class="st3" d="M489.3,332.7h-4.6v-0.6h4.6V332.7z M489,334.5c0,0.4-0.2,0.8-0.5,1c-0.4,0.3-0.8,0.4-1.4,0.4
		c-0.5,0-1-0.1-1.4-0.4s-0.5-0.6-0.5-1c0-0.4,0.2-0.7,0.5-1c0.4-0.3,0.8-0.4,1.4-0.4c0.6,0,1,0.1,1.4,0.4
		C488.8,333.8,489,334.1,489,334.5z M488,335.1c0.2-0.2,0.4-0.4,0.4-0.6s-0.1-0.4-0.4-0.6c-0.2-0.2-0.5-0.2-0.9-0.2
		c-0.3,0-0.6,0.1-0.9,0.2c-0.2,0.2-0.3,0.4-0.3,0.6s0.1,0.4,0.3,0.6c0.2,0.2,0.5,0.2,0.9,0.2C487.5,335.3,487.7,335.3,488,335.1z
		 M488.2,331.5h-2.3v-0.6h2.3V331.5z M491.5,338.4h-5.4v-2.1h0.7v1.5h4.7V338.4z M489.3,333.6V333h1.3v-2.3h0.7v6h-0.7v-1.5h-1.3
		v-0.6h1.3v-1H489.3z"/>
	<path class="st3" d="M496.9,333.6c0,0.3-0.1,0.5-0.4,0.7s-0.6,0.3-1.1,0.3v0.5c1-0.1,1.8-0.1,2.2-0.2l0.1,0.5
		c-0.6,0.1-1.5,0.2-2.5,0.2c-1.2,0.1-2,0.1-2.5,0.1l-0.1-0.6c0.5,0,1.3,0,2.2,0v-0.5c-0.4,0-0.8-0.1-1.1-0.3
		c-0.3-0.2-0.4-0.4-0.4-0.7c0-0.3,0.2-0.6,0.5-0.8c0.3-0.2,0.8-0.3,1.3-0.3s1,0.1,1.3,0.3C496.7,333,496.9,333.3,496.9,333.6z
		 M497.3,332.3h-4.5v-0.6h4.5V332.3z M498.9,337.4c0,0.4-0.2,0.7-0.7,1c-0.5,0.2-1.1,0.3-1.9,0.3c-0.8,0-1.5-0.1-1.9-0.3
		s-0.7-0.5-0.7-1c0-0.4,0.2-0.7,0.7-0.9s1.1-0.3,1.9-0.3s1.5,0.1,1.9,0.3S498.9,337,498.9,337.4z M495.9,334
		c0.2-0.1,0.3-0.2,0.3-0.4c0-0.2-0.1-0.3-0.3-0.4c-0.2-0.1-0.5-0.1-0.8-0.1c-0.3,0-0.6,0-0.8,0.1s-0.3,0.2-0.3,0.4
		c0,0.4,0.4,0.5,1.1,0.5C495.4,334.2,495.7,334.1,495.9,334z M496.2,331.3H494v-0.6h2.2V331.3z M496.3,336.7c-0.6,0-1,0.1-1.4,0.2
		s-0.5,0.3-0.5,0.5s0.2,0.4,0.5,0.5s0.8,0.2,1.4,0.2c1.3,0,1.9-0.2,1.9-0.7c0-0.2-0.2-0.4-0.5-0.5S496.9,336.7,496.3,336.7z
		 M500.1,333.9h-1.2v2.2h-0.7v-5.4h0.7v2.7h1.2V333.9z"/>
	<path class="st3" d="M447.5,345l-0.4,0.5c-0.4-0.2-0.8-0.4-1.2-0.7s-0.6-0.7-0.8-1.1c-0.1,0.4-0.4,0.8-0.7,1.2
		c-0.4,0.4-0.8,0.7-1.3,0.9l-0.4-0.5c0.6-0.2,1.1-0.6,1.5-1c0.4-0.5,0.6-1,0.6-1.6v-0.7h0.7v0.7c0,0.6,0.2,1.1,0.6,1.5
		S446.9,344.8,447.5,345z M449.6,349.5h-5.5v-2h4.5v-0.8h-4.5v-0.6h5.2v1.9h-4.5v0.9h4.8V349.5z M449.3,345.7h-0.7v-4.1h0.7V345.7z"
		/>
	<path class="st3" d="M455.5,347.2l-0.4,0.5c-0.4-0.3-0.8-0.6-1.2-1.1s-0.7-0.9-0.8-1.4c-0.1,0.5-0.4,1-0.8,1.4s-0.8,0.9-1.3,1.2
		l-0.5-0.5c0.6-0.4,1.1-0.9,1.5-1.6c0.4-0.7,0.6-1.3,0.6-2v-1.4h0.7v1.4c0,0.7,0.2,1.4,0.6,2C454.5,346.4,454.9,346.8,455.5,347.2z
		 M457.3,349.6h-0.7v-8h0.7V349.6z"/>
	<path class="st3" d="M458.9,342.3h3.6c0,1.1-0.4,2-1,2.7s-1.5,1.3-2.6,1.6l-0.4-0.6c0.9-0.2,1.6-0.6,2.2-1.2c0.6-0.6,0.9-1.2,1-2
		h-2.9V342.3z M465,349.4h-5.3V347h0.7v1.9h4.6V349.4z M466,344.7h-1.2v2.9H464v-6h0.7v2.5h1.2V344.7z"/>
	<path class="st3" d="M473,345.5l-0.4,0.5c-0.4-0.2-0.7-0.4-1-0.7s-0.5-0.6-0.7-0.9c-0.1,0.3-0.3,0.7-0.6,1.1
		c-0.3,0.4-0.7,0.7-1,0.9l-0.4-0.5c0.5-0.3,0.9-0.6,1.2-1.1c0.3-0.5,0.5-1,0.5-1.5v-1h0.7v1c0,0.6,0.2,1,0.5,1.5
		C472.1,345,472.5,345.3,473,345.5z M475,347.1c0.5,0.3,0.7,0.6,0.7,1.1s-0.2,0.8-0.7,1.1c-0.5,0.3-1.2,0.4-2,0.4
		c-0.8,0-1.5-0.1-2-0.4c-0.5-0.3-0.7-0.6-0.7-1.1s0.2-0.8,0.7-1.1s1.1-0.4,2-0.4C473.9,346.7,474.5,346.8,475,347.1z M474.5,347.5
		c-0.4-0.2-0.8-0.2-1.5-0.2s-1.1,0.1-1.5,0.2c-0.4,0.2-0.5,0.4-0.5,0.6c0,0.3,0.2,0.5,0.5,0.7c0.4,0.2,0.8,0.2,1.5,0.2
		s1.1-0.1,1.5-0.2c0.4-0.2,0.5-0.4,0.5-0.7C475,347.9,474.8,347.7,474.5,347.5z M475.7,346.7H475v-2.4h-1v2h-0.7v-4.5h0.7v2h1v-2.1
		h0.7V346.7z"/>
	<path class="st3" d="M481.4,345.6l-0.4,0.6c-0.4-0.2-0.8-0.5-1.2-0.8c-0.3-0.3-0.6-0.7-0.8-1.1c-0.1,0.4-0.4,0.8-0.7,1.3
		c-0.4,0.4-0.8,0.7-1.2,1l-0.4-0.6c0.6-0.3,1-0.6,1.4-1.2s0.6-1.1,0.6-1.7v-0.9h0.7v0.9c0,0.6,0.2,1.2,0.6,1.6
		C480.4,345.1,480.9,345.4,481.4,345.6z M483.3,349.4H478v-2.5h0.7v1.9h4.6V349.4z M484.2,344.7H483v2.8h-0.7v-5.8h0.7v2.4h1.2
		V344.7z"/>
	<path class="st3" d="M489.3,343.7h-4.6v-0.6h4.6V343.7z M489,345.5c0,0.4-0.2,0.8-0.5,1c-0.4,0.3-0.8,0.4-1.4,0.4
		c-0.5,0-1-0.1-1.4-0.4s-0.5-0.6-0.5-1c0-0.4,0.2-0.7,0.5-1c0.4-0.3,0.8-0.4,1.4-0.4c0.6,0,1,0.1,1.4,0.4
		C488.8,344.7,489,345.1,489,345.5z M488,346.1c0.2-0.2,0.4-0.4,0.4-0.6s-0.1-0.4-0.4-0.6c-0.2-0.2-0.5-0.2-0.9-0.2
		c-0.3,0-0.6,0.1-0.9,0.2c-0.2,0.2-0.3,0.4-0.3,0.6s0.1,0.4,0.3,0.6c0.2,0.2,0.5,0.2,0.9,0.2C487.5,346.3,487.7,346.2,488,346.1z
		 M488.2,342.5h-2.3v-0.6h2.3V342.5z M491.5,349.4h-5.4v-2.1h0.7v1.5h4.7V349.4z M489.3,344.5V344h1.3v-2.3h0.7v6h-0.7v-1.5h-1.3
		v-0.6h1.3v-1H489.3z"/>
	<path class="st3" d="M496.9,344.6c0,0.3-0.1,0.5-0.4,0.7s-0.6,0.3-1.1,0.3v0.5c1-0.1,1.8-0.1,2.2-0.2l0.1,0.5
		c-0.6,0.1-1.5,0.2-2.5,0.2c-1.2,0.1-2,0.1-2.5,0.1l-0.1-0.6c0.5,0,1.3,0,2.2,0v-0.5c-0.4,0-0.8-0.1-1.1-0.3
		c-0.3-0.2-0.4-0.4-0.4-0.7c0-0.3,0.2-0.6,0.5-0.8c0.3-0.2,0.8-0.3,1.3-0.3s1,0.1,1.3,0.3C496.7,344,496.9,344.3,496.9,344.6z
		 M497.3,343.3h-4.5v-0.6h4.5V343.3z M498.9,348.4c0,0.4-0.2,0.7-0.7,1c-0.5,0.2-1.1,0.3-1.9,0.3c-0.8,0-1.5-0.1-1.9-0.3
		s-0.7-0.5-0.7-1c0-0.4,0.2-0.7,0.7-0.9s1.1-0.3,1.9-0.3s1.5,0.1,1.9,0.3S498.9,348,498.9,348.4z M495.9,345
		c0.2-0.1,0.3-0.2,0.3-0.4c0-0.2-0.1-0.3-0.3-0.4c-0.2-0.1-0.5-0.1-0.8-0.1c-0.3,0-0.6,0-0.8,0.1s-0.3,0.2-0.3,0.4
		c0,0.4,0.4,0.5,1.1,0.5C495.4,345.2,495.7,345.1,495.9,345z M496.2,342.3H494v-0.6h2.2V342.3z M496.3,347.7c-0.6,0-1,0.1-1.4,0.2
		s-0.5,0.3-0.5,0.5s0.2,0.4,0.5,0.5s0.8,0.2,1.4,0.2c1.3,0,1.9-0.2,1.9-0.7c0-0.2-0.2-0.4-0.5-0.5S496.9,347.7,496.3,347.7z
		 M500.1,344.9h-1.2v2.2h-0.7v-5.4h0.7v2.7h1.2V344.9z"/>
</g>
<g>
	<path class="st3" d="M517.4,225.5h-5.8v-1.8h4.8v-0.6h-4.8v-0.6h2.4v-0.8h-3.3v-0.6h7.2v0.6h-3.3v0.8h2.4v1.7h-4.8v0.7h5.1V225.5z
		 M517.1,220.6h-5.4v-2.8h0.7v0.8h4v-0.8h0.7V220.6z M516.4,220v-0.8h-4v0.8H516.4z"/>
	<path class="st3" d="M523.3,221.3l0.1,0.6c-0.4,0.1-1,0.1-1.7,0.2s-1.4,0.1-1.9,0.1H519v-2.3h2.8v-1H519v-0.6h3.5v2.2h-2.8v1.2h0.1
		C521.3,221.5,522.5,221.4,523.3,221.3z M524.9,224.2c0,0.5-0.2,0.8-0.7,1.1s-1.1,0.4-2,0.4c-0.9,0-1.5-0.1-2-0.4
		c-0.5-0.3-0.7-0.6-0.7-1.1c0-0.5,0.2-0.8,0.7-1.1c0.5-0.3,1.1-0.4,2-0.4c0.9,0,1.5,0.1,2,0.4S524.9,223.7,524.9,224.2z
		 M523.7,223.5c-0.3-0.2-0.8-0.2-1.4-0.2s-1.1,0.1-1.4,0.2c-0.3,0.2-0.5,0.4-0.5,0.7c0,0.3,0.2,0.5,0.5,0.6s0.8,0.2,1.4,0.2
		c0.6,0,1.1-0.1,1.4-0.2c0.3-0.2,0.5-0.4,0.5-0.6C524.2,223.9,524,223.7,523.7,223.5z M526,220.6v0.6h-1.2v1.3h-0.7v-4.9h0.7v1.2
		h1.2v0.6h-1.2v1.1H526z"/>
	<path class="st3" d="M531.2,219.7h-4.6v-0.6h4.6V219.7z M530.8,221.5c0,0.4-0.2,0.8-0.5,1c-0.4,0.3-0.8,0.4-1.4,0.4
		c-0.5,0-1-0.1-1.4-0.4s-0.5-0.6-0.5-1c0-0.4,0.2-0.7,0.5-1c0.4-0.3,0.8-0.4,1.4-0.4c0.6,0,1,0.1,1.4,0.4
		C530.7,220.8,530.8,221.1,530.8,221.5z M529.8,222.1c0.2-0.2,0.4-0.4,0.4-0.6s-0.1-0.4-0.4-0.6c-0.2-0.2-0.5-0.2-0.9-0.2
		c-0.3,0-0.6,0.1-0.9,0.2c-0.2,0.2-0.3,0.4-0.3,0.6s0.1,0.4,0.3,0.6c0.2,0.2,0.5,0.2,0.9,0.2C529.3,222.3,529.6,222.3,529.8,222.1z
		 M530.1,218.5h-2.3v-0.6h2.3V218.5z M533.3,225.4h-5.4v-2.1h0.7v1.5h4.7V225.4z M531.1,220.6V220h1.3v-2.3h0.7v6h-0.7v-1.5h-1.3
		v-0.6h1.3v-1H531.1z"/>
	<path class="st3" d="M538.7,220.6c0,0.3-0.1,0.5-0.4,0.7s-0.6,0.3-1.1,0.3v0.5c1-0.1,1.8-0.1,2.2-0.2l0.1,0.5
		c-0.6,0.1-1.5,0.2-2.5,0.2c-1.2,0.1-2,0.1-2.5,0.1l-0.1-0.6c0.5,0,1.3,0,2.2,0v-0.5c-0.4,0-0.8-0.1-1.1-0.3
		c-0.3-0.2-0.4-0.4-0.4-0.7c0-0.3,0.2-0.6,0.5-0.8c0.3-0.2,0.8-0.3,1.3-0.3s1,0.1,1.3,0.3C538.5,220,538.7,220.3,538.7,220.6z
		 M539.2,219.3h-4.5v-0.6h4.5V219.3z M540.8,224.4c0,0.4-0.2,0.7-0.7,1c-0.5,0.2-1.1,0.3-1.9,0.3c-0.8,0-1.5-0.1-1.9-0.3
		s-0.7-0.5-0.7-1c0-0.4,0.2-0.7,0.7-0.9s1.1-0.3,1.9-0.3s1.5,0.1,1.9,0.3S540.8,224,540.8,224.4z M537.7,221
		c0.2-0.1,0.3-0.2,0.3-0.4c0-0.2-0.1-0.3-0.3-0.4c-0.2-0.1-0.5-0.1-0.8-0.1c-0.3,0-0.6,0-0.8,0.1s-0.3,0.2-0.3,0.4
		c0,0.4,0.4,0.5,1.1,0.5C537.2,221.2,537.5,221.1,537.7,221z M538,218.3h-2.2v-0.6h2.2V218.3z M538.1,223.7c-0.6,0-1,0.1-1.4,0.2
		s-0.5,0.3-0.5,0.5s0.2,0.4,0.5,0.5s0.8,0.2,1.4,0.2c1.3,0,1.9-0.2,1.9-0.7c0-0.2-0.2-0.4-0.5-0.5S538.7,223.7,538.1,223.7z
		 M541.9,220.9h-1.2v2.2H540v-5.4h0.7v2.7h1.2V220.9z"/>
	<path class="st3" d="M518,233h-7.2v-0.6h3v-1.7h0.7v1.7h3.6V233z M516.5,234.1c0.5,0.3,0.7,0.6,0.7,1.1s-0.2,0.8-0.7,1.1
		c-0.5,0.3-1.2,0.4-2.1,0.4c-0.9,0-1.6-0.1-2.1-0.4c-0.5-0.3-0.7-0.6-0.7-1.1s0.3-0.8,0.8-1.1s1.2-0.4,2.1-0.4
		C515.3,233.7,516,233.8,516.5,234.1z M517.1,229.1v0.7c0,0.8-0.1,1.5-0.2,2.1l-0.7-0.1c0.1-0.4,0.2-0.9,0.2-1.5l0-0.7h-4.9v-0.6
		H517.1z M515.9,235.8c0.4-0.2,0.6-0.4,0.6-0.6s-0.2-0.5-0.6-0.6c-0.4-0.2-0.9-0.2-1.6-0.2c-0.7,0-1.2,0.1-1.6,0.2
		c-0.4,0.2-0.6,0.4-0.6,0.6s0.2,0.5,0.6,0.6c0.4,0.2,0.9,0.2,1.6,0.2C515,236,515.5,235.9,515.9,235.8z"/>
	<path class="st3" d="M518.9,229.9v-0.6h4.3v0.6h-1.8c0,0.2,0,0.4,0,0.4c0,0.5,0.3,1,0.7,1.4c0.4,0.4,0.9,0.7,1.4,0.9l-0.4,0.6
		c-0.4-0.2-0.8-0.4-1.2-0.8c-0.4-0.3-0.7-0.7-0.8-1c-0.1,0.4-0.4,0.8-0.8,1.2c-0.4,0.4-0.8,0.7-1.3,0.9l-0.4-0.6
		c0.5-0.2,1-0.5,1.4-1c0.4-0.5,0.6-1,0.6-1.5c0-0.1,0-0.2,0-0.4H518.9z M525.3,235.1c0,0.5-0.2,0.8-0.7,1.1c-0.5,0.3-1.1,0.4-2,0.4
		c-0.8,0-1.5-0.1-2-0.4c-0.5-0.3-0.7-0.6-0.7-1.1c0-0.5,0.2-0.9,0.7-1.1c0.5-0.3,1.1-0.4,2-0.4c0.9,0,1.5,0.1,2,0.4
		C525,234.3,525.3,234.7,525.3,235.1z M522.6,234.2c-0.6,0-1.1,0.1-1.4,0.2c-0.3,0.2-0.5,0.4-0.5,0.7c0,0.3,0.2,0.5,0.5,0.7
		c0.3,0.2,0.8,0.2,1.4,0.2c0.6,0,1.1-0.1,1.5-0.2c0.3-0.2,0.5-0.4,0.5-0.7c0-0.3-0.2-0.5-0.5-0.7
		C523.7,234.3,523.2,234.2,522.6,234.2z M524.5,231.3h-1.6v-0.6h1.6v-2.1h0.7v5h-0.7V231.3z"/>
	<path class="st3" d="M533.8,235.6h-7.2V235h3.3v-2h0.7v2h3.3V235.6z M533.2,230h-2.6v0.2c0,0.4,0.2,0.8,0.5,1.2
		c0.3,0.4,0.7,0.7,1.2,1c0.4,0.3,0.9,0.4,1.3,0.5l-0.4,0.6c-0.6-0.2-1.3-0.5-1.8-0.9c-0.6-0.4-1-0.9-1.2-1.3
		c-0.2,0.5-0.5,0.9-1.1,1.3s-1.2,0.7-1.9,0.9l-0.3-0.6c0.4-0.1,0.9-0.2,1.3-0.5c0.4-0.3,0.8-0.6,1.2-1c0.3-0.4,0.5-0.8,0.5-1.2V230
		h-2.6v-0.6h6V230z"/>
	<path class="st3" d="M534.9,229.2h3.7c-0.1,1-0.4,1.9-1.1,2.7c-0.6,0.7-1.5,1.3-2.6,1.6l-0.3-0.6c0.8-0.2,1.6-0.6,2.2-1.2
		c0.6-0.6,0.9-1.2,1-1.9h-2.9V229.2z M541.2,236.5h-5.4v-2.5h0.7v1.9h4.7V236.5z M540.3,231.6h-1.8V231h1.8v-2.3h0.7v5.8h-0.7V231.6
		z"/>
	<path class="st3" d="M547,232.3l-0.4,0.6c-0.4-0.2-0.8-0.5-1.1-0.8c-0.3-0.3-0.6-0.7-0.7-1.1c-0.1,0.4-0.4,0.8-0.7,1.2
		s-0.8,0.7-1.3,0.9l-0.4-0.5c0.6-0.3,1.1-0.7,1.5-1.2c0.4-0.5,0.6-1,0.6-1.7V229h0.7v0.7c0,0.6,0.2,1.1,0.6,1.6
		C546,231.8,546.4,232.2,547,232.3z M548,234c0.5,0.3,0.7,0.7,0.7,1.1s-0.2,0.9-0.7,1.1c-0.5,0.3-1.1,0.4-2,0.4
		c-0.8,0-1.5-0.1-2-0.4c-0.5-0.3-0.7-0.6-0.7-1.1s0.2-0.9,0.7-1.1c0.5-0.3,1.1-0.4,2-0.4C546.8,233.6,547.5,233.7,548,234z
		 M546,234.1c-0.6,0-1.1,0.1-1.4,0.3c-0.3,0.2-0.5,0.4-0.5,0.7s0.2,0.5,0.5,0.7c0.3,0.2,0.8,0.2,1.4,0.2c0.6,0,1.1-0.1,1.5-0.2
		s0.5-0.4,0.5-0.7s-0.2-0.5-0.5-0.7S546.6,234.1,546,234.1z M549.8,231.4h-1.2v2.2h-0.7v-4.9h0.7v2.2h1.2V231.4z"/>
	<path class="st3" d="M551.4,234.1h0.3c1,0,1.9-0.1,2.5-0.2l0.1,0.6c-0.7,0.2-1.8,0.2-3.2,0.2h-0.4v-5.1h3.1v0.6h-2.4v1.6h2.3v0.6
		h-2.3V234.1z M557.1,236.6h-0.7v-4.2h-1.1v3.8h-0.7v-7.4h0.7v3h1.1v-3.2h0.7V236.6z"/>
	<path class="st3" d="M511,243.1c0-0.9,0.2-1.5,0.5-2.1c0.4-0.5,0.9-0.8,1.5-0.8c0.7,0,1.2,0.3,1.5,0.8s0.5,1.2,0.5,2.1
		c0,0.9-0.2,1.5-0.5,2.1c-0.4,0.5-0.9,0.8-1.5,0.8c-0.6,0-1.2-0.3-1.5-0.8C511.2,244.6,511,243.9,511,243.1z M514.1,244.7
		c0.3-0.4,0.4-0.9,0.4-1.6c0-0.7-0.1-1.2-0.4-1.6c-0.3-0.4-0.6-0.6-1-0.6c-0.4,0-0.8,0.2-1,0.6c-0.3,0.4-0.4,0.9-0.4,1.6
		c0,0.7,0.1,1.2,0.4,1.6c0.3,0.4,0.6,0.6,1,0.6C513.5,245.3,513.8,245.1,514.1,244.7z M517.3,247.6h-0.7v-8h0.7V247.6z"/>
	<path class="st3" d="M523.2,243.3l-0.4,0.6c-0.4-0.2-0.8-0.5-1.1-0.8c-0.3-0.3-0.6-0.7-0.7-1.1c-0.1,0.4-0.4,0.8-0.7,1.2
		s-0.8,0.7-1.3,0.9l-0.4-0.5c0.6-0.3,1.1-0.7,1.5-1.2c0.4-0.5,0.6-1,0.6-1.7V240h0.7v0.7c0,0.6,0.2,1.1,0.6,1.6
		C522.2,242.8,522.7,243.2,523.2,243.3z M524.2,245c0.5,0.3,0.7,0.7,0.7,1.1s-0.2,0.9-0.7,1.1c-0.5,0.3-1.1,0.4-2,0.4
		c-0.8,0-1.5-0.1-2-0.4c-0.5-0.3-0.7-0.6-0.7-1.1s0.2-0.9,0.7-1.1c0.5-0.3,1.1-0.4,2-0.4C523.1,244.6,523.7,244.7,524.2,245z
		 M522.2,245.1c-0.6,0-1.1,0.1-1.4,0.3c-0.3,0.2-0.5,0.4-0.5,0.7s0.2,0.5,0.5,0.7c0.3,0.2,0.8,0.2,1.4,0.2c0.6,0,1.1-0.1,1.5-0.2
		s0.5-0.4,0.5-0.7s-0.2-0.5-0.5-0.7S522.8,245.1,522.2,245.1z M526,242.4h-1.2v2.2h-0.7v-4.9h0.7v2.2h1.2V242.4z"/>
	<path class="st3" d="M530.6,243.5h-3.7v-3.6h0.7v1.2h2.3v-1.2h0.7V243.5z M529.9,242.9v-1.2h-2.3v1.2H529.9z M533,247.6h-5.4v-2
		h4.4v-0.8h-4.4v-0.6h5.1v1.9h-4.4v0.9h4.7V247.6z M534,242h-1.2v1.8H532v-4.1h0.7v1.8h1.2V242z"/>
	<path class="st3" d="M538.6,243.5l-0.4,0.5c-0.4-0.2-0.7-0.4-1-0.7s-0.5-0.6-0.7-0.9c-0.1,0.3-0.3,0.7-0.6,1.1
		c-0.3,0.4-0.7,0.7-1,0.9l-0.4-0.5c0.5-0.3,0.9-0.6,1.2-1.1c0.3-0.5,0.5-1,0.5-1.5v-1h0.7v1c0,0.6,0.2,1,0.5,1.5
		C537.7,243,538.1,243.3,538.6,243.5z M540.6,245.1c0.5,0.3,0.7,0.6,0.7,1.1s-0.2,0.8-0.7,1.1c-0.5,0.3-1.2,0.4-2,0.4
		c-0.8,0-1.5-0.1-2-0.4c-0.5-0.3-0.7-0.6-0.7-1.1s0.2-0.8,0.7-1.1s1.1-0.4,2-0.4C539.5,244.7,540.1,244.8,540.6,245.1z M540,245.5
		c-0.4-0.2-0.8-0.2-1.5-0.2s-1.1,0.1-1.5,0.2c-0.4,0.2-0.5,0.4-0.5,0.6c0,0.3,0.2,0.5,0.5,0.7c0.4,0.2,0.8,0.2,1.5,0.2
		s1.1-0.1,1.5-0.2c0.4-0.2,0.5-0.4,0.5-0.7C540.6,245.9,540.4,245.7,540,245.5z M541.3,244.7h-0.7v-2.4h-1v2h-0.7v-4.5h0.7v2h1v-2.1
		h0.7V244.7z"/>
	<path class="st3" d="M547,241.7h-4.6v-0.6h4.6V241.7z M546.7,243.5c0,0.4-0.2,0.8-0.5,1c-0.4,0.3-0.8,0.4-1.4,0.4
		c-0.5,0-1-0.1-1.4-0.4s-0.5-0.6-0.5-1c0-0.4,0.2-0.7,0.5-1c0.4-0.3,0.8-0.4,1.4-0.4c0.6,0,1,0.1,1.4,0.4
		C546.5,242.7,546.7,243.1,546.7,243.5z M545.6,244.1c0.2-0.2,0.4-0.4,0.4-0.6s-0.1-0.4-0.4-0.6c-0.2-0.2-0.5-0.2-0.9-0.2
		c-0.3,0-0.6,0.1-0.9,0.2c-0.2,0.2-0.3,0.4-0.3,0.6s0.1,0.4,0.3,0.6c0.2,0.2,0.5,0.2,0.9,0.2C545.1,244.3,545.4,244.2,545.6,244.1z
		 M545.9,240.5h-2.3v-0.6h2.3V240.5z M549.1,247.4h-5.4v-2.1h0.7v1.5h4.7V247.4z M546.9,242.5V242h1.3v-2.3h0.7v6h-0.7v-1.5h-1.3
		v-0.6h1.3v-1H546.9z"/>
	<path class="st3" d="M554.6,242.6c0,0.3-0.1,0.5-0.4,0.7s-0.6,0.3-1.1,0.3v0.5c1-0.1,1.8-0.1,2.2-0.2l0.1,0.5
		c-0.6,0.1-1.5,0.2-2.5,0.2c-1.2,0.1-2,0.1-2.5,0.1l-0.1-0.6c0.5,0,1.3,0,2.2,0v-0.5c-0.4,0-0.8-0.1-1.1-0.3
		c-0.3-0.2-0.4-0.4-0.4-0.7c0-0.3,0.2-0.6,0.5-0.8c0.3-0.2,0.8-0.3,1.3-0.3s1,0.1,1.3,0.3C554.4,242,554.6,242.3,554.6,242.6z
		 M555,241.3h-4.5v-0.6h4.5V241.3z M556.6,246.4c0,0.4-0.2,0.7-0.7,1c-0.5,0.2-1.1,0.3-1.9,0.3c-0.8,0-1.5-0.1-1.9-0.3
		s-0.7-0.5-0.7-1c0-0.4,0.2-0.7,0.7-0.9s1.1-0.3,1.9-0.3s1.5,0.1,1.9,0.3S556.6,246,556.6,246.4z M553.6,243
		c0.2-0.1,0.3-0.2,0.3-0.4c0-0.2-0.1-0.3-0.3-0.4c-0.2-0.1-0.5-0.1-0.8-0.1c-0.3,0-0.6,0-0.8,0.1s-0.3,0.2-0.3,0.4
		c0,0.4,0.4,0.5,1.1,0.5C553.1,243.2,553.4,243.1,553.6,243z M553.8,240.3h-2.2v-0.6h2.2V240.3z M554,245.7c-0.6,0-1,0.1-1.4,0.2
		s-0.5,0.3-0.5,0.5s0.2,0.4,0.5,0.5s0.8,0.2,1.4,0.2c1.3,0,1.9-0.2,1.9-0.7c0-0.2-0.2-0.4-0.5-0.5S554.5,245.7,554,245.7z
		 M557.7,242.9h-1.2v2.2h-0.7v-5.4h0.7v2.7h1.2V242.9z"/>
</g>
<g>
	<path class="st3" d="M511.2,122.2h3.6c-0.1,1-0.4,1.9-1.1,2.6c-0.6,0.7-1.5,1.2-2.6,1.6l-0.4-0.6c0.8-0.2,1.5-0.6,2.1-1.1
		c0.6-0.5,1-1.2,1.1-1.8h-2.8V122.2z M517.3,129.5h-5.2v-2.8h5.2V129.5z M516.6,129v-1.7h-3.8v1.7H516.6z M516.6,124.3h-1.8v-0.6
		h1.8v-2.1h0.7v4.6h-0.7V124.3z"/>
	<path class="st3" d="M523.4,127.2l-0.4,0.5c-0.4-0.3-0.9-0.7-1.2-1.1c-0.4-0.4-0.6-0.9-0.8-1.4c-0.1,0.5-0.4,1-0.8,1.5
		s-0.8,0.9-1.3,1.2l-0.4-0.5c0.6-0.4,1.1-0.9,1.5-1.5c0.4-0.7,0.6-1.3,0.6-2v-1.4h0.7v1.4c0,0.7,0.2,1.3,0.6,2
		C522.3,126.3,522.8,126.8,523.4,127.2z M526.1,125.5h-1.3v4.2h-0.7v-8h0.7v3.2h1.3V125.5z"/>
	<path class="st3" d="M531.2,123.7h-4.6v-0.6h4.6V123.7z M530.8,125.5c0,0.4-0.2,0.8-0.5,1c-0.4,0.3-0.8,0.4-1.4,0.4
		c-0.5,0-1-0.1-1.4-0.4s-0.5-0.6-0.5-1c0-0.4,0.2-0.7,0.5-1c0.4-0.3,0.8-0.4,1.4-0.4c0.6,0,1,0.1,1.4,0.4
		C530.7,124.8,530.8,125.1,530.8,125.5z M529.8,126.1c0.2-0.2,0.4-0.4,0.4-0.6s-0.1-0.4-0.4-0.6c-0.2-0.2-0.5-0.2-0.9-0.2
		c-0.3,0-0.6,0.1-0.9,0.2c-0.2,0.2-0.3,0.4-0.3,0.6s0.1,0.4,0.3,0.6c0.2,0.2,0.5,0.2,0.9,0.2C529.3,126.3,529.6,126.3,529.8,126.1z
		 M530.1,122.5h-2.3v-0.6h2.3V122.5z M533.3,129.4h-5.4v-2.1h0.7v1.5h4.7V129.4z M531.1,124.6V124h1.3v-2.3h0.7v6h-0.7v-1.5h-1.3
		v-0.6h1.3v-1H531.1z"/>
	<path class="st3" d="M538.7,124.6c0,0.3-0.1,0.5-0.4,0.7s-0.6,0.3-1.1,0.3v0.5c1-0.1,1.8-0.1,2.2-0.2l0.1,0.5
		c-0.6,0.1-1.5,0.2-2.5,0.2c-1.2,0.1-2,0.1-2.5,0.1l-0.1-0.6c0.5,0,1.3,0,2.2,0v-0.5c-0.4,0-0.8-0.1-1.1-0.3
		c-0.3-0.2-0.4-0.4-0.4-0.7c0-0.3,0.2-0.6,0.5-0.8c0.3-0.2,0.8-0.3,1.3-0.3s1,0.1,1.3,0.3C538.5,124,538.7,124.3,538.7,124.6z
		 M539.2,123.3h-4.5v-0.6h4.5V123.3z M540.8,128.4c0,0.4-0.2,0.7-0.7,1c-0.5,0.2-1.1,0.3-1.9,0.3c-0.8,0-1.5-0.1-1.9-0.3
		s-0.7-0.5-0.7-1c0-0.4,0.2-0.7,0.7-0.9s1.1-0.3,1.9-0.3s1.5,0.1,1.9,0.3S540.8,128,540.8,128.4z M537.7,125
		c0.2-0.1,0.3-0.2,0.3-0.4c0-0.2-0.1-0.3-0.3-0.4c-0.2-0.1-0.5-0.1-0.8-0.1c-0.3,0-0.6,0-0.8,0.1s-0.3,0.2-0.3,0.4
		c0,0.4,0.4,0.5,1.1,0.5C537.2,125.2,537.5,125.1,537.7,125z M538,122.3h-2.2v-0.6h2.2V122.3z M538.1,127.7c-0.6,0-1,0.1-1.4,0.2
		s-0.5,0.3-0.5,0.5s0.2,0.4,0.5,0.5s0.8,0.2,1.4,0.2c1.3,0,1.9-0.2,1.9-0.7c0-0.2-0.2-0.4-0.5-0.5S538.7,127.7,538.1,127.7z
		 M541.9,124.9h-1.2v2.2H540v-5.4h0.7v2.7h1.2V124.9z"/>
	<path class="st3" d="M511.2,139.6v-6.1h1.8c0.7,0,1.2,0.1,1.5,0.4c0.3,0.3,0.5,0.7,0.5,1.3c0,0.8-0.4,1.4-1.2,1.6v0l1.6,2.8h-0.8
		l-1.5-2.6h-1.2v2.6H511.2z M511.9,136.4h1c0.5,0,0.8-0.1,1-0.3c0.2-0.2,0.3-0.5,0.3-0.9c0-0.4-0.1-0.7-0.3-0.8
		c-0.2-0.2-0.5-0.3-1-0.3h-1V136.4z"/>
	<path class="st3" d="M517.7,139.7c-0.4,0-0.8-0.1-1-0.3c-0.2-0.2-0.4-0.6-0.4-1v-3.3h0.7v3.2c0,0.3,0.1,0.5,0.2,0.6
		c0.1,0.1,0.4,0.2,0.7,0.2c0.4,0,0.8-0.1,1.3-0.4v-3.7h0.7v4.5h-0.6l-0.1-0.4h0C518.7,139.5,518.2,139.7,517.7,139.7z"/>
	<path class="st3" d="M521.2,139.6v-4.5h0.7v0.4h0c0.5-0.3,1-0.5,1.6-0.5c0.5,0,0.8,0.1,1,0.3s0.3,0.5,0.3,0.9v3.4h-0.7v-3.2
		c0-0.3-0.1-0.5-0.2-0.6c-0.1-0.1-0.4-0.2-0.7-0.2c-0.4,0-0.8,0.1-1.3,0.3v3.7H521.2z"/>
	<path class="st3" d="M525.9,136.9v-0.6h3v0.6H525.9z"/>
	<path class="st3" d="M532.5,139.7c-0.8,0-1.5-0.3-2-0.8c-0.5-0.5-0.7-1.3-0.7-2.3v-0.2c0-1,0.3-1.8,0.8-2.3c0.5-0.5,1.2-0.7,2-0.7
		c0.6,0,1.1,0.1,1.5,0.3v0.6c-0.6-0.2-1.1-0.3-1.5-0.3c-0.6,0-1.1,0.2-1.5,0.6s-0.5,1-0.5,1.7v0.3c0,1.7,0.7,2.5,2,2.5
		c0.5,0,1.1-0.1,1.6-0.4v0.6C533.8,139.6,533.2,139.7,532.5,139.7z"/>
	<path class="st3" d="M535.3,139.6v-6.6h0.7v2.4h0c0.4-0.3,1-0.5,1.5-0.5c0.5,0,0.8,0.1,1,0.3c0.2,0.2,0.3,0.5,0.3,0.9v3.4h-0.7
		v-3.2c0-0.3-0.1-0.5-0.2-0.6c-0.1-0.1-0.4-0.2-0.7-0.2c-0.4,0-0.8,0.1-1.3,0.3v3.7H535.3z"/>
	<path class="st3" d="M541.3,139.7c-0.4,0-0.8-0.1-1-0.3c-0.3-0.2-0.4-0.5-0.4-0.9c0-0.8,0.5-1.2,1.4-1.3l1.2-0.1v-0.5
		c0-0.3-0.1-0.6-0.2-0.7s-0.5-0.2-0.9-0.2c-0.4,0-0.7,0-1.1,0.1v-0.5c0.4-0.2,0.8-0.2,1.4-0.2c1,0,1.6,0.4,1.6,1.3v3.3h-0.6
		l-0.1-0.4h0C542.3,139.5,541.9,139.7,541.3,139.7z M541.5,139.2c0.5,0,0.8-0.1,1-0.3v-1.3l-1,0.1c-0.3,0-0.5,0.1-0.6,0.2
		c-0.1,0.1-0.2,0.3-0.2,0.6c0,0.2,0.1,0.4,0.2,0.6C541,139.1,541.2,139.2,541.5,139.2z"/>
	<path class="st3" d="M544.5,139.6v-4.5h0.7v0.5h0c0.1-0.2,0.3-0.3,0.5-0.4c0.2-0.1,0.5-0.2,0.7-0.2c0.1,0,0.2,0,0.3,0v0.6
		c-0.1,0-0.2,0-0.3,0c-0.4,0-0.9,0.1-1.2,0.4v3.6H544.5z"/>
	<path class="st3" d="M549.1,139.7c-0.8,0-1.2-0.4-1.2-1.1v-2.9h-0.7v-0.6h0.7V134h0.7v1.1h1.2v0.6h-1.2v2.8c0,0.2,0,0.4,0.1,0.5
		c0.1,0.1,0.3,0.1,0.5,0.1c0.2,0,0.4,0,0.6-0.1v0.5C549.6,139.6,549.4,139.7,549.1,139.7z"/>
</g>
<g>
	<path class="st3" d="M106.5,235.3l-0.4,0.5c-0.4-0.3-0.8-0.6-1.2-1.1s-0.7-0.9-0.8-1.4c-0.1,0.5-0.4,1-0.7,1.4
		c-0.4,0.5-0.8,0.9-1.3,1.2l-0.5-0.5c0.6-0.4,1.1-0.9,1.5-1.5c0.4-0.7,0.6-1.3,0.6-2v-0.8h-1.9v-0.6h4.4v0.6h-1.8v0.8
		c0,0.7,0.2,1.4,0.6,2C105.4,234.5,105.9,234.9,106.5,235.3z M109.2,233.5h-1.3v4.2h-0.7v-8h0.7v3.3h1.3V233.5z"/>
	<path class="st3" d="M113.7,235.2l-0.4,0.5c-0.3-0.2-0.6-0.5-0.9-1c-0.3-0.4-0.5-0.8-0.6-1.2c-0.1,0.4-0.3,0.9-0.6,1.3
		c-0.3,0.4-0.7,0.8-1.1,1.1l-0.5-0.5c0.5-0.3,0.9-0.8,1.3-1.4s0.5-1.3,0.5-2v-0.8h-1.6v-0.6h3.8v0.6H112v0.8c0,0.7,0.2,1.4,0.5,2
		C112.8,234.5,113.2,234.9,113.7,235.2z M116.4,237.7h-0.7v-4.2h-1v3.8h-0.7v-7.4h0.7v3h1v-3.2h0.7V237.7z"/>
	<path class="st3" d="M121.6,235.2l-0.4,0.5c-0.3-0.2-0.6-0.5-0.9-1c-0.3-0.4-0.5-0.8-0.6-1.2c-0.1,0.4-0.3,0.9-0.6,1.3
		c-0.3,0.4-0.7,0.8-1.1,1.1l-0.5-0.5c0.5-0.3,0.9-0.8,1.3-1.4s0.5-1.3,0.5-2v-0.8h-1.6v-0.6h3.8v0.6h-1.5v0.8c0,0.7,0.2,1.4,0.5,2
		C120.7,234.5,121.1,234.9,121.6,235.2z M124.3,237.7h-0.7v-4.2h-1v3.8H122v-7.4h0.7v3h1v-3.2h0.7V237.7z"/>
	<path class="st3" d="M132.7,236.5h-7.2v-0.6h2.8V233h0.7v2.9h3.8V236.5z M131.8,230.5v1c0,1.5-0.1,2.6-0.3,3.5l-0.7-0.1
		c0.2-0.8,0.3-1.8,0.3-3v-0.8h-4.8v-0.6H131.8z"/>
	<path class="st3" d="M106.5,246.2l-0.4,0.5c-0.4-0.3-0.8-0.6-1.2-1.1s-0.7-0.9-0.8-1.4c-0.1,0.5-0.4,1-0.7,1.4
		c-0.4,0.5-0.8,0.9-1.3,1.2l-0.5-0.5c0.6-0.4,1.1-0.9,1.5-1.5c0.4-0.7,0.6-1.3,0.6-2v-0.8h-1.9v-0.6h4.4v0.6h-1.8v0.8
		c0,0.7,0.2,1.4,0.6,2C105.4,245.4,105.9,245.9,106.5,246.2z M109.2,244.5h-1.3v4.2h-0.7v-8h0.7v3.3h1.3V244.5z"/>
	<path class="st3" d="M113.7,246.2l-0.4,0.5c-0.3-0.2-0.6-0.5-0.9-1c-0.3-0.4-0.5-0.8-0.6-1.2c-0.1,0.4-0.3,0.9-0.6,1.3
		c-0.3,0.4-0.7,0.8-1.1,1.1l-0.5-0.5c0.5-0.3,0.9-0.8,1.3-1.4s0.5-1.3,0.5-2v-0.8h-1.6v-0.6h3.8v0.6H112v0.8c0,0.7,0.2,1.4,0.5,2
		C112.8,245.5,113.2,245.9,113.7,246.2z M116.4,248.6h-0.7v-4.2h-1v3.8h-0.7v-7.4h0.7v3h1v-3.2h0.7V248.6z"/>
	<path class="st3" d="M121.5,248.6h-0.7v-2.5h-3.3v-0.6h7.2v0.6h-3.3V248.6z M123.8,243.2h-4.6v1h4.9v0.6h-5.6v-3.6h5.5v0.6h-4.8
		v0.9h4.6V243.2z"/>
	<path class="st3" d="M127.8,241c0.6,0,1.1,0.2,1.5,0.5c0.4,0.3,0.6,0.8,0.6,1.4s-0.2,1-0.6,1.3c-0.4,0.3-0.9,0.5-1.5,0.5
		c-0.6,0-1.1-0.2-1.5-0.5c-0.4-0.3-0.6-0.8-0.6-1.3c0-0.5,0.2-1,0.6-1.4C126.7,241.2,127.2,241,127.8,241z M127.8,241.6
		c-0.4,0-0.7,0.1-1,0.4c-0.3,0.2-0.4,0.5-0.4,0.9c0,0.4,0.1,0.7,0.4,0.9s0.6,0.4,1,0.4c0.4,0,0.7-0.1,1-0.4c0.2-0.2,0.4-0.5,0.4-0.9
		s-0.1-0.7-0.4-0.9C128.5,241.8,128.2,241.6,127.8,241.6z M132.1,248.5h-5.2v-3.2h0.7v1h3.8v-1h0.7V248.5z M131.4,248v-1h-3.8v1
		H131.4z M132,244.9h-0.7v-4.3h0.7V244.9z"/>
</g>
<g>
	<path class="st3" d="M105.8,127.3l-0.4,0.5c-0.3-0.2-0.7-0.5-1-1s-0.6-0.8-0.7-1.2c-0.1,0.4-0.3,0.9-0.6,1.3
		c-0.3,0.4-0.7,0.8-1.1,1.1l-0.5-0.5c0.5-0.3,0.9-0.8,1.3-1.4s0.5-1.3,0.5-2v-0.9h-1.6v-0.6h3.8v0.6h-1.5v0.9
		C104.1,125.4,104.7,126.5,105.8,127.3z M106.9,129.3h-0.7v-4.1h-1.3v-0.6h1.3v-2.7h0.7V129.3z M108.5,129.7h-0.7v-8h0.7V129.7z"/>
	<path class="st3" d="M116,129.5h-5.5V127h2.4v-0.9h-3.3v-0.6h7.2v0.6h-3.3v0.9h2.4V129.5z M116.1,122.6h-5.8V122h5.8V122.6z
		 M116.1,124.8h-5.7v-0.6h1.2l-0.2-1.3l0.7-0.1l0.1,1.4h1.9l0.2-1.4l0.7,0.1l-0.2,1.3h1.2V124.8z M115.3,129v-1.4h-4.1v1.4H115.3z"
		/>
	<path class="st3" d="M121.6,127.2l-0.4,0.5c-0.3-0.2-0.6-0.5-0.9-1c-0.3-0.4-0.5-0.8-0.6-1.2c-0.1,0.4-0.3,0.9-0.6,1.3
		c-0.3,0.4-0.7,0.8-1.1,1.1l-0.5-0.5c0.5-0.3,0.9-0.8,1.3-1.4s0.5-1.3,0.5-2v-0.8h-1.6v-0.6h3.8v0.6h-1.5v0.8c0,0.7,0.2,1.4,0.5,2
		C120.7,126.5,121.1,126.9,121.6,127.2z M124.3,129.7h-0.7v-4.2h-1v3.8H122v-7.4h0.7v3h1v-3.2h0.7V129.7z"/>
	<path class="st3" d="M132.7,128.5h-7.2v-0.6h2.8V125h0.7v2.9h3.8V128.5z M131.8,122.5v1c0,1.5-0.1,2.6-0.3,3.5l-0.7-0.1
		c0.2-0.8,0.3-1.8,0.3-3v-0.8h-4.8v-0.6H131.8z"/>
	<path class="st3" d="M108.3,140.5h-5.7v-1.7h4.7v-0.6h-4.8v-0.5h2.4v-0.7h-3.3v-0.6h7.2v0.6h-3.3v0.7h2.4v1.7h-4.7v0.7h5V140.5z
		 M108.6,135.4l-0.3,0.6c-0.6-0.1-1.2-0.2-1.8-0.4c-0.5-0.2-0.9-0.5-1.1-0.8c-0.2,0.3-0.6,0.6-1.1,0.8s-1.1,0.4-1.8,0.4l-0.3-0.6
		c0.7,0,1.3-0.2,1.8-0.4c0.5-0.2,0.9-0.4,1-0.7h-2.4v-0.6h5.7v0.6h-2.4c0.1,0.3,0.5,0.5,1,0.7C107.4,135.3,107.9,135.4,108.6,135.4z
		 M106.6,133.2h-2.6v-0.6h2.6V133.2z"/>
	<path class="st3" d="M114.3,135.1h-4.7v-0.6h4.7V135.1z M113.9,137.3c0,0.5-0.2,0.9-0.5,1.2c-0.3,0.3-0.8,0.5-1.3,0.5
		c-0.5,0-1-0.2-1.3-0.5c-0.3-0.3-0.5-0.7-0.5-1.2c0-0.5,0.2-0.9,0.5-1.2c0.3-0.3,0.8-0.5,1.3-0.5c0.5,0,1,0.2,1.3,0.5
		C113.7,136.4,113.9,136.8,113.9,137.3z M113.2,133.8h-2.4v-0.6h2.4V133.8z M113.2,137.3c0-0.3-0.1-0.6-0.3-0.8
		c-0.2-0.2-0.5-0.3-0.8-0.3c-0.3,0-0.6,0.1-0.8,0.3c-0.2,0.2-0.3,0.5-0.3,0.8c0,0.3,0.1,0.6,0.3,0.8c0.2,0.2,0.5,0.3,0.8,0.3
		c0.3,0,0.6-0.1,0.8-0.3C113.1,137.9,113.2,137.6,113.2,137.3z M117.1,136.6h-1.3v4h-0.7v-8h0.7v3.4h1.3V136.6z"/>
	<path class="st3" d="M122.2,134.7h-4.6v-0.6h4.6V134.7z M121.8,136.5c0,0.4-0.2,0.8-0.5,1c-0.4,0.3-0.8,0.4-1.4,0.4
		c-0.5,0-1-0.1-1.4-0.4s-0.5-0.6-0.5-1c0-0.4,0.2-0.7,0.5-1c0.4-0.3,0.8-0.4,1.4-0.4c0.6,0,1,0.1,1.4,0.4
		C121.7,135.8,121.8,136.1,121.8,136.5z M120.8,137.1c0.2-0.2,0.4-0.4,0.4-0.6s-0.1-0.4-0.4-0.6c-0.2-0.2-0.5-0.2-0.9-0.2
		c-0.3,0-0.6,0.1-0.9,0.2c-0.2,0.2-0.3,0.4-0.3,0.6s0.1,0.4,0.3,0.6c0.2,0.2,0.5,0.2,0.9,0.2C120.3,137.3,120.6,137.3,120.8,137.1z
		 M121.1,133.5h-2.3v-0.6h2.3V133.5z M124.3,140.4h-5.4v-2.1h0.7v1.5h4.7V140.4z M122.1,135.6V135h1.3v-2.3h0.7v6h-0.7v-1.5h-1.3
		v-0.6h1.3v-1H122.1z"/>
	<path class="st3" d="M129.7,135.6c0,0.3-0.1,0.5-0.4,0.7s-0.6,0.3-1.1,0.3v0.5c1-0.1,1.8-0.1,2.2-0.2l0.1,0.5
		c-0.6,0.1-1.5,0.2-2.5,0.2c-1.2,0.1-2,0.1-2.5,0.1l-0.1-0.6c0.5,0,1.3,0,2.2,0v-0.5c-0.4,0-0.8-0.1-1.1-0.3
		c-0.3-0.2-0.4-0.4-0.4-0.7c0-0.3,0.2-0.6,0.5-0.8c0.3-0.2,0.8-0.3,1.3-0.3s1,0.1,1.3,0.3C129.5,135,129.7,135.3,129.7,135.6z
		 M130.2,134.3h-4.5v-0.6h4.5V134.3z M131.8,139.4c0,0.4-0.2,0.7-0.7,1c-0.5,0.2-1.1,0.3-1.9,0.3c-0.8,0-1.5-0.1-1.9-0.3
		s-0.7-0.5-0.7-1c0-0.4,0.2-0.7,0.7-0.9s1.1-0.3,1.9-0.3s1.5,0.1,1.9,0.3S131.8,139,131.8,139.4z M128.7,136
		c0.2-0.1,0.3-0.2,0.3-0.4c0-0.2-0.1-0.3-0.3-0.4c-0.2-0.1-0.5-0.1-0.8-0.1c-0.3,0-0.6,0-0.8,0.1s-0.3,0.2-0.3,0.4
		c0,0.4,0.4,0.5,1.1,0.5C128.2,136.2,128.5,136.1,128.7,136z M129,133.3h-2.2v-0.6h2.2V133.3z M129.1,138.7c-0.6,0-1,0.1-1.4,0.2
		s-0.5,0.3-0.5,0.5s0.2,0.4,0.5,0.5s0.8,0.2,1.4,0.2c1.3,0,1.9-0.2,1.9-0.7c0-0.2-0.2-0.4-0.5-0.5S129.7,138.7,129.1,138.7z
		 M132.9,135.9h-1.2v2.2H131v-5.4h0.7v2.7h1.2V135.9z"/>
</g>
<g>
	<path class="st4" d="M33.1,313l-0.6,0.7c-0.5-0.3-1.1-0.8-1.6-1.4c-0.5-0.6-0.9-1.2-1-1.8c-0.2,0.6-0.5,1.3-1,1.9s-1,1.1-1.7,1.6
		l-0.6-0.7c0.8-0.5,1.4-1.1,2-2c0.5-0.9,0.8-1.7,0.8-2.7v-1.1H27v-0.8h5.8v0.8h-2.4v1.1c0,0.9,0.3,1.8,0.8,2.6
		C31.6,311.9,32.3,312.6,33.1,313z M36.6,310.7h-1.7v5.5H34v-10.5h0.9v4.3h1.7V310.7z"/>
	<path class="st4" d="M42.5,312.9l-0.6,0.7c-0.4-0.3-0.8-0.7-1.2-1.3s-0.7-1.1-0.8-1.6c-0.1,0.6-0.4,1.1-0.8,1.7s-0.9,1-1.4,1.4
		l-0.6-0.6c0.7-0.4,1.2-1,1.7-1.8s0.7-1.7,0.7-2.6v-1.1h-2.1v-0.8h5v0.8h-2v1c0,1,0.2,1.8,0.6,2.6C41.4,312,41.9,312.5,42.5,312.9z
		 M46.1,316.1h-0.9v-5.5h-1.3v5H43v-9.7h0.9v4h1.3v-4.2h0.9V316.1z"/>
	<path class="st4" d="M47.7,308.5v-0.7h5.6v0.7h-2.3c0,0.6,0.3,1.2,0.8,1.6c0.5,0.5,1.1,0.8,1.7,1l-0.5,0.7c-0.5-0.1-1-0.4-1.4-0.8
		c-0.5-0.4-0.8-0.8-1.1-1.3c-0.2,0.5-0.5,0.9-1,1.4s-1,0.8-1.6,1l-0.5-0.7c0.7-0.2,1.3-0.6,1.8-1.1c0.5-0.6,0.8-1.1,0.8-1.8H47.7z
		 M55.8,314.2c0,0.6-0.3,1.1-0.9,1.4s-1.5,0.5-2.6,0.5c-1.1,0-2-0.2-2.6-0.5s-0.9-0.8-0.9-1.4c0-0.6,0.3-1.1,0.9-1.4
		c0.6-0.3,1.5-0.5,2.6-0.5c1.1,0,2,0.2,2.6,0.5C55.5,313.1,55.8,313.6,55.8,314.2z M49.1,306.7V306H52v0.8H49.1z M54.2,313.3
		c-0.5-0.2-1.1-0.3-1.9-0.3s-1.4,0.1-1.9,0.3s-0.7,0.5-0.7,0.9c0,0.4,0.2,0.7,0.7,0.9s1.1,0.3,1.9,0.3s1.4-0.1,1.9-0.3
		c0.5-0.2,0.7-0.5,0.7-0.9C54.9,313.8,54.6,313.5,54.2,313.3z M57.3,309.4h-1.6v2.7h-0.9v-6.5h0.9v3h1.6V309.4z"/>
	<path class="st4" d="M67.5,314.6H58v-0.8h3.6v-3.8h0.9v3.8h4.9V314.6z M66.2,306.7v1.3c0,1.9-0.2,3.4-0.4,4.6l-0.9-0.1
		c0.2-1,0.4-2.3,0.4-3.9v-1H59v-0.8H66.2z"/>
</g>
<polygon class="st0" points="196,410.2 275,410.2 275,434.8 196,434.8 196,410.2 "/>
<g>
	<path class="st4" d="M220.9,422.1l-0.5,0.7c-0.5-0.2-1-0.5-1.5-0.9c-0.5-0.4-0.8-0.9-1-1.4c-0.2,0.5-0.5,1-0.9,1.5s-1,0.8-1.6,1.1
		l-0.6-0.7c0.8-0.3,1.4-0.7,1.9-1.4c0.5-0.6,0.8-1.3,0.8-2.1V418h0.9v0.9c0,0.8,0.3,1.4,0.8,2C219.7,421.4,220.3,421.8,220.9,422.1z
		 M223.8,428.1h-7.2v-2.6h5.9v-1.1h-5.9v-0.8h6.8v2.5h-5.9v1.1h6.3V428.1z M222.5,420.5h-2.1v-0.8h2.1v-2.1h0.9v5.4h-0.9V420.5z"/>
	<path class="st4" d="M230.7,425.5h-5v-7h0.9v2.7h3.1v-2.7h0.9V425.5z M229.8,424.8V422h-3.1v2.8H229.8z M233.8,428.1h-0.9v-10.5
		h0.9V428.1z"/>
	<path class="st4" d="M240.9,418.8c0,1.6-0.5,3.1-1.3,4.3c-0.8,1.2-2,2.2-3.4,3l-0.6-0.7c1.3-0.6,2.3-1.4,3-2.4
		c0.7-1,1.2-2.1,1.3-3.4H236v-0.8H240.9z M243.7,417.6v4.4h1.7v0.8h-1.7v5.3h-0.9v-10.5H243.7z"/>
	<path class="st4" d="M255.5,423.4H246v-0.8h3.9v-2.2h0.9v2.2h4.7V423.4z M253.5,424.8c0.6,0.3,1,0.8,1,1.4c0,0.6-0.3,1.1-1,1.4
		c-0.6,0.3-1.6,0.5-2.8,0.5c-1.2,0-2.2-0.2-2.8-0.5c-0.7-0.3-1-0.8-1-1.4c0-0.6,0.3-1.1,1-1.4s1.6-0.5,2.8-0.5
		S252.8,424.4,253.5,424.8z M254.3,418.2v0.9c0,1.1-0.1,2-0.3,2.8l-0.9-0.1c0.1-0.5,0.2-1.2,0.3-2l0-0.9H247v-0.8H254.3z M252.8,427
		c0.5-0.2,0.8-0.5,0.8-0.8c0-0.4-0.3-0.6-0.8-0.8s-1.2-0.3-2.1-0.3c-0.9,0-1.6,0.1-2.1,0.3c-0.5,0.2-0.8,0.5-0.8,0.8
		c0,0.4,0.3,0.6,0.8,0.8c0.5,0.2,1.2,0.3,2.1,0.3C251.6,427.3,252.3,427.2,252.8,427z"/>
</g>
<polygon class="st0" points="8,179.2 87,179.2 87,203.8 8,203.8 8,179.2 "/>
<g>
	<path class="st4" d="M32.2,194l-0.6,0.7c-0.4-0.3-0.9-0.7-1.3-1.3c-0.4-0.5-0.7-1.1-0.9-1.6c-0.1,0.6-0.4,1.1-0.8,1.7
		c-0.4,0.6-0.9,1-1.4,1.4l-0.6-0.6c0.7-0.4,1.2-1,1.7-1.8c0.4-0.8,0.7-1.7,0.7-2.7v-1.2h-2.1v-0.8h5v0.8h-2v1.2
		C29.9,191.6,30.7,193,32.2,194z M33.6,196.6h-0.9v-5.4H31v-0.8h1.7v-3.6h0.9V196.6z M35.7,197.1h-0.9v-10.5h0.9V197.1z"/>
	<path class="st4" d="M45.5,197h-7.2v-3.3h3.1v-1.2h-4.3v-0.8h9.5v0.8h-4.3v1.2h3.1V197z M45.7,187.9h-7.6v-0.8h7.6V187.9z
		 M45.6,190.8h-7.4v-0.8h1.6l-0.3-1.7l0.9-0.1l0.2,1.8h2.5l0.2-1.8l0.9,0.1l-0.3,1.7h1.6V190.8z M44.6,196.2v-1.8h-5.3v1.8H44.6z"/>
	<path class="st4" d="M47.7,189.5v-0.7h5.6v0.7h-2.3c0,0.6,0.3,1.2,0.8,1.6c0.5,0.5,1.1,0.8,1.7,1l-0.5,0.7c-0.5-0.1-1-0.4-1.4-0.8
		c-0.5-0.4-0.8-0.8-1.1-1.3c-0.2,0.5-0.5,0.9-1,1.4s-1,0.8-1.6,1l-0.5-0.7c0.7-0.2,1.3-0.6,1.8-1.1c0.5-0.6,0.8-1.1,0.8-1.8H47.7z
		 M55.8,195.2c0,0.6-0.3,1.1-0.9,1.4s-1.5,0.5-2.6,0.5c-1.1,0-2-0.2-2.6-0.5s-0.9-0.8-0.9-1.4c0-0.6,0.3-1.1,0.9-1.4
		s1.5-0.5,2.6-0.5c1.1,0,2,0.2,2.6,0.5S55.8,194.6,55.8,195.2z M49.1,187.7V187H52v0.8H49.1z M54.2,194.3c-0.5-0.2-1.1-0.3-1.9-0.3
		s-1.4,0.1-1.9,0.3s-0.7,0.5-0.7,0.9c0,0.4,0.2,0.7,0.7,0.9s1.1,0.3,1.9,0.3s1.4-0.1,1.9-0.3c0.5-0.2,0.7-0.5,0.7-0.9
		C54.9,194.8,54.6,194.5,54.2,194.3z M57.3,190.4h-1.6v2.7h-0.9v-6.5h0.9v3h1.6V190.4z"/>
	<path class="st4" d="M67.5,195.6H58v-0.8h3.6v-3.8h0.9v3.8h4.9V195.6z M66.2,187.7v1.3c0,1.9-0.2,3.4-0.4,4.6l-0.9-0.1
		c0.2-1,0.4-2.3,0.4-3.9v-1H59v-0.8H66.2z"/>
</g>
<g>
	<ellipse class="st5" cx="592.5" cy="150.3" rx="11.2" ry="2.8"/>
	<path class="st5" d="M587.8,133.8c-1.7,0.3-2.8,0.9-2.8,1.5v5.6c0,1.1,3.3,1.9,7.5,1.9c4.1,0,7.5-0.8,7.5-1.9v-5.6
		c0-0.6-1.1-1.1-2.8-1.5"/>
	<path class="st5" d="M587.8,128.8v6.5c0,1.1,2.1,1.9,4.7,1.9c2.6,0,4.7-0.8,4.7-1.9v-6.5"/>
	<path class="st5" d="M603.7,150.3V168c0,1.5-5,2.8-11.2,2.8c-6.2,0-11.2-1.3-11.2-2.8v-17.8"/>
	<polyline class="st5" points="585,138.1 582.2,138.1 576.6,143.7 576.6,153.1 581.3,157.7 	"/>
	<polyline class="st5" points="599.9,138.1 602.8,138.1 608.4,143.7 608.4,153.1 603.7,157.7 	"/>
	<line class="st5" x1="592.5" y1="140" x2="592.5" y2="159.6"/>
	<line class="st5" x1="590.6" y1="159.6" x2="594.3" y2="159.6"/>
</g>
<g>
	<line class="st6" x1="248.9" y1="396.3" x2="247.3" y2="396.3"/>
	<line class="st6" x1="219.8" y1="396.3" x2="218.2" y2="396.3"/>
	<line class="st6" x1="224.7" y1="396.3" x2="223.1" y2="396.3"/>
	<line class="st6" x1="229.5" y1="396.3" x2="227.9" y2="396.3"/>
	<line class="st6" x1="234.4" y1="396.3" x2="232.8" y2="396.3"/>
	<line class="st6" x1="239.2" y1="396.3" x2="237.6" y2="396.3"/>
	<line class="st6" x1="244.1" y1="396.3" x2="242.5" y2="396.3"/>
	<path class="st6" d="M252.2,396.3c0-1.8-1.4-3.2-3.2-3.2h-30.7c-1.8,0-3.2,1.4-3.2,3.2l0,0c0,1.8,1.4,3.2,3.2,3.2h30.7
		C250.7,399.6,252.2,398.1,252.2,396.3L252.2,396.3z"/>
	<path class="st6" d="M250.1,391.5c0-0.6,0-1.1-0.1-1.7l2.2-1.1l-1.6-3.9l-2.4,0.8c-0.7-0.9-1.4-1.7-2.3-2.3l0.8-2.4l-3.9-1.6
		l-1.1,2.2c-1.1-0.2-2.2-0.2-3.3,0l-1.1-2.2l-3.9,1.6l0.8,2.4c-0.9,0.7-1.7,1.4-2.3,2.3l-2.4-0.8l-1.6,3.9l2.2,1.1
		c-0.1,0.5-0.1,1.1-0.1,1.7"/>
	<path class="st6" d="M215.5,378l1.1,2.6l2-0.8c0.4,0.6,0.9,1,1.4,1.4l-0.8,2l2.6,1.1l0.8-2c0.7,0.1,1.3,0.1,2,0l0.8,2l2.6-1.1
		l-0.8-2c0.6-0.4,1-0.9,1.4-1.4l2,0.8l1.1-2.6l-2-0.8c0.1-0.7,0.1-1.3,0-2l2-0.8l-1.1-2.6l-2,0.8c-0.4-0.6-0.9-1-1.4-1.4l0.8-2
		l-2.6-1.1l-0.8,2c-0.7-0.1-1.3-0.1-2,0l-0.8-2l-2.6,1.1l0.8,2c-0.6,0.4-1,0.9-1.4,1.4l-2-0.8l-1.1,2.6l2,0.8c-0.1,0.7-0.1,1.3,0,2
		L215.5,378z"/>
	
		<ellipse transform="matrix(0.9239 -0.3827 0.3827 0.9239 -126.9359 114.1524)" class="st6" cx="223.5" cy="376.2" rx="2.7" ry="2.7"/>
	<path class="st6" d="M236,391.5c0-2.2,1.8-4,4-4c2.2,0,4,1.8,4,4"/>
</g>
<polygon class="st0" points="381,410.2 460,410.2 460,434.8 381,434.8 381,410.2 "/>
<g>
	<path class="st4" d="M409.3,426.8h-9.5V426h4.3v-2.6h0.9v2.6h4.3V426.8z M408.5,419.4h-3.5v0.2c0,0.5,0.2,1,0.7,1.6
		c0.4,0.5,0.9,0.9,1.5,1.3s1.2,0.6,1.7,0.7l-0.5,0.8c-0.8-0.2-1.6-0.6-2.4-1.2s-1.3-1.1-1.5-1.7c-0.2,0.6-0.7,1.2-1.5,1.7
		c-0.8,0.6-1.6,1-2.4,1.2l-0.4-0.8c0.6-0.1,1.1-0.3,1.7-0.6s1.1-0.8,1.5-1.3c0.4-0.5,0.6-1,0.6-1.6v-0.2h-3.5v-0.7h7.9V419.4z"/>
	<path class="st4" d="M416.4,422.1l0.1,0.7c-1.1,0.2-2.7,0.3-4.6,0.3h-1.2v-2.9h3.7v-1.3h-3.8v-0.7h4.7v2.8h-3.7v1.4
		C413.9,422.4,415.5,422.3,416.4,422.1z M418.8,428H412v-4h0.9v1.3h5V424h0.9V428z M417.9,427.2V426h-5v1.2H417.9z M418.8,423.4
		h-0.9v-5.7h0.9V423.4z"/>
	<path class="st4" d="M430.1,423.4h-9.5v-0.8h3.9v-2.2h0.9v2.2h4.7V423.4z M428.1,424.8c0.6,0.3,1,0.8,1,1.4c0,0.6-0.3,1.1-1,1.4
		c-0.6,0.3-1.6,0.5-2.8,0.5c-1.2,0-2.2-0.2-2.8-0.5c-0.7-0.3-1-0.8-1-1.4c0-0.6,0.3-1.1,1-1.4s1.6-0.5,2.8-0.5
		S427.5,424.4,428.1,424.8z M429,418.2v0.9c0,1.1-0.1,2-0.3,2.8l-0.9-0.1c0.1-0.5,0.2-1.2,0.3-2l0-0.9h-6.4v-0.8H429z M427.4,427
		c0.5-0.2,0.8-0.5,0.8-0.8c0-0.4-0.3-0.6-0.8-0.8s-1.2-0.3-2.1-0.3c-0.9,0-1.6,0.1-2.1,0.3c-0.5,0.2-0.8,0.5-0.8,0.8
		c0,0.4,0.3,0.6,0.8,0.8c0.5,0.2,1.2,0.3,2.1,0.3C426.2,427.3,426.9,427.2,427.4,427z"/>
	<path class="st4" d="M431.3,419.3v-0.8h5.7v0.8h-2.4c0,0.3,0,0.5,0,0.6c0,0.7,0.3,1.3,0.9,1.8s1.2,0.9,1.8,1.1l-0.5,0.7
		c-0.6-0.2-1.1-0.5-1.6-1c-0.5-0.4-0.9-0.9-1.1-1.4c-0.1,0.5-0.5,1-1,1.5s-1.1,0.9-1.7,1.2l-0.5-0.7c0.7-0.3,1.3-0.7,1.9-1.3
		c0.5-0.6,0.8-1.3,0.8-2c0-0.1,0-0.3,0-0.6H431.3z M439.6,426.1c0,0.6-0.3,1.1-0.9,1.5c-0.6,0.4-1.5,0.5-2.6,0.5
		c-1.1,0-2-0.2-2.6-0.5c-0.6-0.4-0.9-0.8-0.9-1.5c0-0.6,0.3-1.1,0.9-1.5c0.6-0.4,1.5-0.5,2.6-0.5c1.1,0,2,0.2,2.6,0.5
		C439.3,425,439.6,425.5,439.6,426.1z M436.1,424.9c-0.8,0-1.4,0.1-1.9,0.3s-0.7,0.5-0.7,0.9c0,0.4,0.2,0.7,0.7,0.9s1.1,0.3,1.9,0.3
		c0.8,0,1.5-0.1,1.9-0.3s0.7-0.5,0.7-0.9c0-0.4-0.2-0.7-0.7-0.9S436.9,424.9,436.1,424.9z M438.6,421.1h-2.1v-0.8h2.1v-2.7h0.9v6.5
		h-0.9V421.1z"/>
</g>
<g>
	<polyline class="st5" points="590.8,262.8 590.8,253.5 617,253.5 617,282.5 590.8,282.5 590.8,273.1 	"/>
	<path class="st5" d="M578.6,258.2v0.7c0,2.2,1.6,4,3.7,4c2.1,0,3.7-1.8,3.7-4v-0.7"/>
	<path class="st5" d="M584.2,250.1c1.7,0.7,2.8,2.3,2.8,4.3v0.9"/>
	<path class="st5" d="M577.7,255.3v-0.9c0-2.1,1.1-3.7,2.8-4.3"/>
	<path class="st5" d="M587.1,291.8v-22.4h5.6c2.8,0,3.7-1.7,3.7-3.7c-1.5,0-16,0-17.8,0c-3.3,0-4.7,1.4-4.7,5.6v6.5
		c0,2,0.8,3.7,2.8,3.7h0.9"/>
	<line class="st5" x1="582.4" y1="278.7" x2="582.4" y2="291.8"/>
	<line class="st5" x1="577.7" y1="271.2" x2="577.7" y2="291.8"/>
	<path class="st7" d="M614.2,257.2h-2.8v2.2c-0.9,0.2-1.4,0.5-2.1,0.9l-2.2-2.2l-3.3,3.3l2.2,2.2c-0.4,0.6-0.7,1.1-0.9,2.1H602v4.7
		h2.8c0.2,0.7,0.8,1.4,1.2,2.1l-2.2,2.2l3.3,3.3l2.2-2.2c0.6,0.4,1.1,0.7,2.1,0.9v2.2h2.8"/>
	<path class="st7" d="M614.2,271.2c-1.8,0-3.3-1.5-3.3-3.3c0-1.8,1.5-3.3,3.3-3.3"/>
	<line class="st5" x1="582.4" y1="247.9" x2="582.4" y2="252.5"/>
	<line class="st5" x1="575.8" y1="256.3" x2="588.9" y2="256.3"/>
</g>
<g>
	<path class="st8" d="M421.8,366.7c1.5,0.6,2.4,2,2.4,3.7v1.6"/>
	<path class="st8" d="M416.1,372.1v-1.6c0-1.8,1-3.2,2.4-3.7"/>
	<line class="st8" x1="420.1" y1="364.8" x2="420.1" y2="368.8"/>
	<line class="st8" x1="414.5" y1="372.1" x2="425.8" y2="372.1"/>
	<path class="st6" d="M416.9,373.7v0.8c0,1.9,1.3,3.2,3.2,3.2s3.2-1.3,3.2-3.2v-0.8"/>
	<path class="st6" d="M416.1,383.4l-1.6,3.2c0,0,3,3,3.2,3.2c-0.4,0.6-1,1.6-2.4,1.6c-0.4,0-2-0.8-3.2-1.6c-1.9-1.3-2.1-1.8-1.6-3.2
		c0.3-0.9,2.2-5.1,2.4-5.7c0.5-1,1.8-1.6,3.2-1.6h1.6"/>
	<path class="st6" d="M424.2,383.4l1.6,3.2c0,0-3,3-3.2,3.2c0.4,0.6,1,1.6,2.4,1.6c0.4,0,2-0.8,3.2-1.6c1.9-1.3,2.1-1.8,1.6-3.2
		c-0.3-0.9-2.2-5.1-2.4-5.7c-0.5-1-1.8-1.6-3.2-1.6h-1.6"/>
	<line class="st6" x1="416.1" y1="388.2" x2="424.2" y2="388.2"/>
	<line class="st6" x1="420.9" y1="399.6" x2="419.3" y2="399.6"/>
	<line class="st6" x1="404.8" y1="399.6" x2="406.4" y2="399.6"/>
	<line class="st6" x1="414.5" y1="399.6" x2="416.1" y2="399.6"/>
	<line class="st6" x1="409.6" y1="399.6" x2="411.2" y2="399.6"/>
	<line class="st6" x1="435.5" y1="399.6" x2="433.9" y2="399.6"/>
	<line class="st6" x1="429" y1="399.6" x2="430.7" y2="399.6"/>
	<line class="st6" x1="424.2" y1="399.6" x2="425.8" y2="399.6"/>
	<path class="st6" d="M408.8,388.2h-1.6c-1.6,0-1.9,1.1-2.4,2.4l-3,7.7"/>
	<path class="st6" d="M431.5,388.2h1.6c1.6,0,1.9,1.1,2.4,2.4l3,7.7"/>
	<path class="st6" d="M420.1,396.3h15.4c1.8,0,3.2,1.4,3.2,3.2c0,1.8-1.4,3.2-3.2,3.2h-15.4h-15.4c-1.8,0-3.2-1.4-3.2-3.2
		c0-1.8,1.4-3.2,3.2-3.2H420.1z"/>
</g>
<g>
	<line class="st9" x1="35.9" y1="134.3" x2="35.9" y2="169.8"/>
	<line class="st9" x1="30" y1="169.8" x2="30" y2="134.3"/>
	<line class="st9" x1="32.9" y1="135.8" x2="32.9" y2="138"/>
	<line class="st9" x1="32.9" y1="141" x2="32.9" y2="143.2"/>
	<line class="st9" x1="32.9" y1="146.2" x2="32.9" y2="148.4"/>
	<line class="st9" x1="32.9" y1="151.3" x2="32.9" y2="153.5"/>
	<line class="st9" x1="32.9" y1="156.5" x2="32.9" y2="158.7"/>
	<line class="st9" x1="32.9" y1="161.7" x2="32.9" y2="163.9"/>
	<line class="st9" x1="32.9" y1="166.8" x2="32.9" y2="169.1"/>
	<line class="st9" x1="64" y1="134.3" x2="64" y2="169.8"/>
	<line class="st9" x1="58.1" y1="169.8" x2="58.1" y2="134.3"/>
	<line class="st9" x1="61" y1="135.8" x2="61" y2="138"/>
	<line class="st9" x1="61" y1="141" x2="61" y2="143.2"/>
	<line class="st9" x1="61" y1="146.2" x2="61" y2="148.4"/>
	<line class="st9" x1="61" y1="151.3" x2="61" y2="153.5"/>
	<line class="st9" x1="61" y1="156.5" x2="61" y2="158.7"/>
	<line class="st9" x1="61" y1="161.7" x2="61" y2="163.9"/>
	<line class="st9" x1="61" y1="166.8" x2="61" y2="169.1"/>
	<line class="st9" x1="35.9" y1="166.1" x2="58.1" y2="166.1"/>
	<line class="st9" x1="58.1" y1="146.2" x2="35.9" y2="146.2"/>
	<rect x="40.3" y="157.2" class="st9" width="14.8" height="8.9"/>
	<rect x="45.5" y="149.8" class="st9" width="8.1" height="7.4"/>
	<rect x="49.2" y="140.2" class="st9" width="5.9" height="5.9"/>
	<rect x="40.3" y="140.2" class="st9" width="5.9" height="5.9"/>
	<line class="st9" x1="52.1" y1="155" x2="50.7" y2="155"/>
	<line class="st9" x1="53.6" y1="163.9" x2="52.1" y2="163.9"/>
</g>
<g>
	<line class="st9" x1="35.9" y1="252.3" x2="35.9" y2="287.8"/>
	<line class="st9" x1="30" y1="287.8" x2="30" y2="252.3"/>
	<line class="st9" x1="32.9" y1="253.8" x2="32.9" y2="256"/>
	<line class="st9" x1="32.9" y1="259" x2="32.9" y2="261.2"/>
	<line class="st9" x1="32.9" y1="264.2" x2="32.9" y2="266.4"/>
	<line class="st9" x1="32.9" y1="269.3" x2="32.9" y2="271.5"/>
	<line class="st9" x1="32.9" y1="274.5" x2="32.9" y2="276.7"/>
	<line class="st9" x1="32.9" y1="279.7" x2="32.9" y2="281.9"/>
	<line class="st9" x1="32.9" y1="284.8" x2="32.9" y2="287.1"/>
	<line class="st9" x1="64" y1="252.3" x2="64" y2="287.8"/>
	<line class="st9" x1="58.1" y1="287.8" x2="58.1" y2="252.3"/>
	<line class="st9" x1="61" y1="253.8" x2="61" y2="256"/>
	<line class="st9" x1="61" y1="259" x2="61" y2="261.2"/>
	<line class="st9" x1="61" y1="264.2" x2="61" y2="266.4"/>
	<line class="st9" x1="61" y1="269.3" x2="61" y2="271.5"/>
	<line class="st9" x1="61" y1="274.5" x2="61" y2="276.7"/>
	<line class="st9" x1="61" y1="279.7" x2="61" y2="281.9"/>
	<line class="st9" x1="61" y1="284.8" x2="61" y2="287.1"/>
	<line class="st9" x1="35.9" y1="284.1" x2="58.1" y2="284.1"/>
	<line class="st9" x1="58.1" y1="264.2" x2="35.9" y2="264.2"/>
	<rect x="40.3" y="275.2" class="st9" width="14.8" height="8.9"/>
	<rect x="45.5" y="267.8" class="st9" width="8.1" height="7.4"/>
	<rect x="49.2" y="258.2" class="st9" width="5.9" height="5.9"/>
	<rect x="40.3" y="258.2" class="st9" width="5.9" height="5.9"/>
	<line class="st9" x1="52.1" y1="273" x2="50.7" y2="273"/>
	<line class="st9" x1="53.6" y1="281.9" x2="52.1" y2="281.9"/>
</g>
<polygon class="st0" points="556,298.2 635,298.2 635,322.8 556,322.8 556,298.2 "/>
<g>
	<path class="st4" d="M582,313.9c-0.8,0.1-2.1,0.2-3.7,0.3c-1.2,0.1-2.2,0.1-3.2,0.1l-0.2-0.8c0.9,0,1.9,0,3,0v-2.1h0.9v2
		c1.4-0.1,2.5-0.1,3.1-0.2L582,313.9z M575.4,308.6v-0.8h6v0.8h-2.5v0c0,0.6,0.3,1.1,0.8,1.5c0.6,0.5,1.2,0.8,1.9,0.9l-0.4,0.7
		c-0.6-0.1-1.2-0.4-1.7-0.8c-0.6-0.4-0.9-0.8-1.1-1.2c-0.1,0.4-0.5,0.9-1,1.3s-1.1,0.8-1.8,1l-0.4-0.7c0.8-0.2,1.4-0.6,2-1.1
		c0.5-0.5,0.8-1.1,0.8-1.7v0H575.4z M576.8,306.8V306h2.9v0.8H576.8z M583.5,316.1h-0.9v-10.5h0.9V316.1z"/>
	<path class="st4" d="M594.7,311.7h-9.5v-0.8h4.3v-1.6h0.9v1.6h4.3V311.7z M594.2,309.2l-0.4,0.8c-0.9-0.1-1.7-0.4-2.4-0.8
		s-1.2-0.9-1.5-1.3c-0.2,0.5-0.7,0.9-1.4,1.4s-1.5,0.7-2.4,0.8l-0.4-0.8c0.9-0.1,1.7-0.3,2.4-0.7c0.7-0.4,1.2-0.9,1.3-1.5h-3.3v-0.8
		h7.7v0.8h-3.3c0.2,0.6,0.6,1.1,1.4,1.5S593.4,309.1,594.2,309.2z M592.7,313c0.6,0.3,1,0.8,1,1.3s-0.3,1-1,1.3
		c-0.6,0.3-1.5,0.5-2.7,0.5c-1.2,0-2.1-0.2-2.7-0.5c-0.6-0.3-1-0.8-1-1.3c0-0.6,0.3-1,1-1.3c0.6-0.3,1.5-0.5,2.7-0.5
		C591.1,312.5,592,312.7,592.7,313z M590,313.2c-0.8,0-1.5,0.1-2,0.3c-0.5,0.2-0.7,0.4-0.7,0.8c0,0.3,0.2,0.6,0.7,0.8s1.2,0.3,2,0.3
		c0.9,0,1.5-0.1,2-0.3s0.7-0.4,0.7-0.8c0-0.3-0.2-0.6-0.7-0.8C591.5,313.3,590.8,313.2,590,313.2z"/>
	<path class="st4" d="M596.2,306.4h4.7c-0.1,1.3-0.5,2.5-1.4,3.4c-0.8,0.9-2,1.6-3.4,2l-0.5-0.8c1.1-0.2,2-0.7,2.8-1.5
		s1.3-1.5,1.4-2.4h-3.7V306.4z M604.2,316h-6.8v-3.7h6.8V316z M603.3,315.2V313h-4.9v2.2H603.3z M603.3,309.2H601v-0.8h2.3v-2.7h0.9
		v6.1h-0.9V309.2z"/>
	<path class="st4" d="M612.1,312.9l-0.6,0.7c-0.6-0.4-1.1-0.9-1.6-1.5s-0.9-1.2-1-1.8c-0.2,0.6-0.5,1.3-1,1.9s-1,1.2-1.6,1.6
		l-0.6-0.7c0.8-0.5,1.4-1.2,2-2c0.5-0.9,0.8-1.8,0.8-2.7v-1.9h0.9v1.8c0,0.9,0.3,1.8,0.8,2.6C610.7,311.8,611.4,312.4,612.1,312.9z
		 M615.7,310.7H614v5.5h-0.9v-10.5h0.9v4.2h1.7V310.7z"/>
</g>
<polygon class="st0" points="554,179.2 633,179.2 633,203.8 554,203.8 554,179.2 "/>
<g>
	<path class="st4" d="M579.1,194l-0.6,0.7c-0.5-0.3-1.1-0.8-1.6-1.4c-0.5-0.6-0.9-1.2-1-1.8c-0.2,0.6-0.5,1.3-1,1.9
		c-0.5,0.6-1,1.1-1.7,1.6l-0.6-0.7c0.8-0.5,1.4-1.1,2-2s0.8-1.7,0.8-2.7v-1.1H573v-0.8h5.8v0.8h-2.4v1.1c0,0.9,0.3,1.8,0.8,2.6
		C577.6,192.9,578.3,193.6,579.1,194z M582.6,191.7h-1.7v5.5H580v-10.5h0.9v4.3h1.7V191.7z"/>
	<path class="st4" d="M588.4,197.1h-0.9v-3.8h-4.3v-0.8h9.5v0.8h-4.3V197.1z M592.2,190.9l-0.4,0.8c-0.8-0.1-1.6-0.4-2.4-0.9
		s-1.2-0.9-1.5-1.4c-0.2,0.5-0.7,1-1.4,1.5s-1.5,0.8-2.4,0.9l-0.4-0.8c0.9-0.1,1.8-0.4,2.6-0.9s1.2-1.1,1.2-1.8h-3.4v-0.8h7.7v0.8
		h-3.4c0,0.5,0.2,0.9,0.6,1.3c0.4,0.4,0.9,0.7,1.5,1C591.1,190.7,591.7,190.8,592.2,190.9z"/>
	<path class="st4" d="M594.2,187.4h4.7c-0.1,1.3-0.5,2.5-1.4,3.4c-0.8,0.9-2,1.6-3.4,2l-0.5-0.8c1.1-0.2,2-0.7,2.8-1.5
		c0.8-0.7,1.3-1.5,1.4-2.4h-3.7V187.4z M602.2,197h-6.8v-3.7h6.8V197z M601.3,196.2V194h-4.9v2.2H601.3z M601.3,190.2H599v-0.8h2.3
		v-2.7h0.9v6.1h-0.9V190.2z"/>
	<path class="st4" d="M610.1,193.9l-0.6,0.7c-0.6-0.4-1.1-0.9-1.6-1.5c-0.5-0.6-0.9-1.2-1-1.8c-0.2,0.6-0.5,1.3-1,1.9
		s-1,1.2-1.6,1.6l-0.6-0.7c0.8-0.5,1.4-1.2,2-2c0.5-0.9,0.8-1.8,0.8-2.7v-1.9h0.9v1.8c0,0.9,0.3,1.8,0.8,2.6
		C608.7,192.8,609.4,193.4,610.1,193.9z M613.7,191.7H612v5.5h-0.9v-10.5h0.9v4.2h1.7V191.7z"/>
</g>
<linearGradient id="SVGID_1_" gradientUnits="userSpaceOnUse" x1="153.9701" y1="207.8025" x2="493.9701" y2="207.8025">
	<stop  offset="0" style="stop-color:#455EA9"/>
	<stop  offset="0.5161" style="stop-color:#55AFD5"/>
	<stop  offset="1" style="stop-color:#8DCCB5"/>
</linearGradient>
<rect x="154" y="118.8" class="st10" width="340" height="178"/>
<g>
	<g>
		<path class="st4" d="M228.4,216.3c1.2-1.9,1.9-4,1.9-6.4c0-1-0.1-2-0.3-2.9c-1.3,5.2-6,9-11.5,9c-2.3,0-4.5-0.7-6.3-1.9
			c-2.7-1.7-4.6-4.4-5.3-7.6c-0.3,1-0.5,2.1-0.5,3.3c0,6.6,5.3,12,12,12C222.5,221.9,226.3,219.7,228.4,216.3z"/>
		<path class="st4" d="M212.5,203.8c0-2.3,0.6-4.4,1.7-6.2c1.6-2.7,4.5-4.8,7.7-5.5c-1-0.3-2.1-0.5-3.3-0.5c-6.6,0-12,5.3-12,12
			c0,4.2,2.1,7.8,5.3,9.9c1.9,1.2,4.2,2,6.6,2c1,0,2-0.1,2.9-0.3C216.4,214,212.5,209.3,212.5,203.8z"/>
		<path class="st4" d="M236.7,210.2c0-4.4-2.4-8.2-5.9-10.3c-1.8-1-3.8-1.6-6-1.6c-1.2,0-2.3,0.1-3.3,0.5c4.9,1,8.6,5,9.3,10
			c0.1,0.5,0.1,1,0.1,1.6s-0.1,1-0.1,1.6c-0.2,1.6-0.8,3.1-1.5,4.5c-1.6,2.7-4.2,4.7-7.4,5.6c1,0.2,1.9,0.3,2.9,0.3
			C231.3,222.2,236.7,216.8,236.7,210.2z"/>
		<path class="st4" d="M236.9,203.8c-0.1-6.6-5.6-11.9-12.1-11.8c-4.2,0.1-7.8,2.3-9.9,5.6c-1.2,1.9-1.9,4.2-1.9,6.6
			c0,1.2,0.2,2.3,0.5,3.3c1.1-5.4,5.8-9.5,11.4-9.6c2.1,0,4.1,0.5,5.8,1.4c2.8,1.6,5,4.2,5.8,7.5
			C236.8,205.8,236.9,204.9,236.9,203.8z"/>
	</g>
	<g>
		<g>
			<path class="st11" d="M251.1,195.1v-1h15.3v1.9h-13.5v9.9h11.7v1.9h-11.7v10h13.5v1.8h-15.3V195.1z"/>
			<path class="st11" d="M280.6,193.9c1.7,0,3.2,0.4,4.6,1.2c1.4,0.8,2.5,1.9,3.3,3.3l-1.6,0.9c-0.6-1.1-1.5-2-2.6-2.7s-2.3-1-3.7-1
				c-1,0-1.9,0.2-2.8,0.5c-0.9,0.4-1.6,0.9-2.3,1.6c-0.7,0.7-1.2,1.4-1.6,2.3c-0.4,0.9-0.5,1.9-0.5,2.8v8c0,1,0.2,2,0.5,2.9
				c0.4,0.9,0.9,1.6,1.6,2.3c0.7,0.6,1.4,1.2,2.3,1.6c0.9,0.4,1.9,0.5,2.8,0.5c1.4,0,2.6-0.3,3.7-1c1.1-0.7,2-1.5,2.6-2.6l1.6,0.9
				c-0.8,1.4-1.9,2.5-3.3,3.3c-1.4,0.8-2.9,1.2-4.6,1.2c-1.2,0-2.4-0.2-3.5-0.7c-1.1-0.5-2.1-1.1-2.9-1.9c-0.8-0.8-1.4-1.8-1.9-2.9
				c-0.5-1.1-0.7-2.3-0.7-3.5v-8.2c0-1.2,0.2-2.4,0.7-3.5c0.5-1.1,1.1-2.1,1.9-2.9c0.8-0.8,1.8-1.4,2.9-1.9
				C278.2,194.1,279.3,193.9,280.6,193.9z"/>
			<path class="st11" d="M312.8,211c0,1.2-0.2,2.4-0.7,3.5c-0.5,1.1-1.1,2.1-1.9,2.9c-0.8,0.8-1.8,1.4-2.9,1.9
				c-1.1,0.5-2.3,0.7-3.5,0.7c-1.2,0-2.4-0.2-3.6-0.7c-1.1-0.5-2.1-1.1-2.9-1.9c-0.8-0.8-1.4-1.8-1.9-2.9s-0.7-2.3-0.7-3.5v-8
				c0-1.2,0.2-2.4,0.7-3.5s1.1-2.1,1.9-2.9c0.8-0.8,1.8-1.4,2.9-1.9c1.1-0.5,2.3-0.7,3.6-0.7c1.3,0,2.4,0.2,3.5,0.7
				c1.1,0.5,2.1,1.1,2.9,1.9c0.8,0.8,1.4,1.8,1.9,2.9s0.7,2.3,0.7,3.5V211z M310.9,202.9c0-1-0.2-1.9-0.5-2.8
				c-0.4-0.9-0.9-1.6-1.6-2.3c-0.7-0.7-1.4-1.2-2.3-1.6c-0.9-0.4-1.9-0.5-2.8-0.5c-1,0-2,0.2-2.9,0.5c-0.9,0.4-1.6,0.9-2.3,1.6
				c-0.6,0.7-1.2,1.4-1.6,2.3s-0.5,1.9-0.5,2.8v8c0,1,0.2,1.9,0.5,2.8c0.4,0.9,0.9,1.6,1.6,2.3c0.6,0.7,1.4,1.2,2.3,1.6
				c0.9,0.4,1.9,0.5,2.9,0.5s1.9-0.2,2.8-0.5c0.9-0.4,1.6-0.9,2.3-1.6c0.7-0.7,1.2-1.4,1.6-2.3c0.4-0.9,0.5-1.9,0.5-2.8V202.9z"/>
			<path class="st11" d="M325.8,196.2v23.5H324v-23.5h-7.5v-1.8h16.9v1.8H325.8z"/>
			<path class="st11" d="M338.5,194.2h8.4c1,0,1.9,0.2,2.7,0.5s1.5,0.8,2.1,1.4c0.6,0.6,1.1,1.4,1.4,2.2c0.3,0.8,0.5,1.7,0.5,2.7
				c0,0.8-0.1,1.6-0.4,2.4s-0.7,1.4-1.2,2c-0.5,0.6-1.1,1.1-1.8,1.5c-0.7,0.4-1.4,0.7-2.2,0.8h0.1l5.1,11.9h-2.1l-5.1-11.8h-6v11.8
				h-1.8V194.2z M340.3,206h6.6c0.7,0,1.4-0.1,1.9-0.4c0.6-0.3,1.1-0.6,1.6-1c0.5-0.5,0.8-1,1.1-1.6c0.3-0.6,0.4-1.2,0.4-1.9
				s-0.1-1.4-0.4-1.9c-0.3-0.6-0.6-1.1-1.1-1.6c-0.5-0.5-1-0.8-1.6-1.1c-0.6-0.3-1.2-0.4-1.9-0.4h-6.6V206z"/>
			<path class="st11" d="M378.1,211c0,1.2-0.2,2.4-0.7,3.5c-0.5,1.1-1.1,2.1-1.9,2.9c-0.8,0.8-1.8,1.4-2.9,1.9
				c-1.1,0.5-2.3,0.7-3.5,0.7c-1.2,0-2.4-0.2-3.6-0.7c-1.1-0.5-2.1-1.1-2.9-1.9c-0.8-0.8-1.4-1.8-1.9-2.9s-0.7-2.3-0.7-3.5v-8
				c0-1.2,0.2-2.4,0.7-3.5s1.1-2.1,1.9-2.9c0.8-0.8,1.8-1.4,2.9-1.9c1.1-0.5,2.3-0.7,3.6-0.7c1.3,0,2.4,0.2,3.5,0.7
				c1.1,0.5,2.1,1.1,2.9,1.9c0.8,0.8,1.4,1.8,1.9,2.9c0.5,1.1,0.7,2.3,0.7,3.5V211z M376.2,202.9c0-1-0.2-1.9-0.5-2.8
				c-0.4-0.9-0.9-1.6-1.6-2.3c-0.7-0.7-1.4-1.2-2.3-1.6c-0.9-0.4-1.9-0.5-2.8-0.5c-1,0-2,0.2-2.9,0.5c-0.9,0.4-1.6,0.9-2.3,1.6
				c-0.6,0.7-1.2,1.4-1.6,2.3s-0.5,1.9-0.5,2.8v8c0,1,0.2,1.9,0.5,2.8c0.4,0.9,0.9,1.6,1.6,2.3c0.6,0.7,1.4,1.2,2.3,1.6
				c0.9,0.4,1.9,0.5,2.9,0.5c1,0,1.9-0.2,2.8-0.5c0.9-0.4,1.6-0.9,2.3-1.6c0.7-0.7,1.2-1.4,1.6-2.3c0.4-0.9,0.5-1.9,0.5-2.8V202.9z"
				/>
			<path class="st11" d="M408.2,194.2h1.8v25.4h-1.8V194.2z"/>
			<path class="st11" d="M430.6,219.6l-6.2-10.8l-6.2,10.8h-2.1l7.3-12.6l-1.4-2.4l-4.9-8.4l-1.1-1.9h2.1l6,10.4l0.3,0.5l0.3-0.5
				l4.8-8.3l1.2-2.1h2.1l-6,10.4l-1.4,2.4l7.3,12.6L430.6,219.6L430.6,219.6z"/>
		</g>
	</g>
</g>
<g>
	<path class="st4" d="M398,221.1v-18.4c0-2-0.5-3.4-1.5-4.4c-1-0.9-2.2-1.4-3.7-1.4c-1.4,0-2.7,0.5-3.8,1.4c-1,1-1.6,2.4-1.6,4.3
		v18.4h-5.1v-28.4h5.1v2.6c0.9-1,1.9-1.7,3.1-2.2c1.2-0.5,2.5-0.7,3.7-0.7c1.3,0,2.5,0.2,3.6,0.6c1.1,0.4,2,1,2.7,1.7
		c1,1,1.6,2.1,2.1,3.3c0.3,1.2,0.5,2.5,0.5,4v19.2L398,221.1L398,221.1z"/>
</g>
<g>
	<g>
		<g>
			<path class="st12" d="M337,82.8h-22v-14h22V82.8z M317,80.8h18v-10h-18V80.8z"/>
		</g>
		<g>
			<rect x="312" y="80.8" class="st12" width="28" height="2"/>
		</g>
		<g>
			<rect x="288" y="60.8" class="st12" width="76" height="2"/>
		</g>
		<g>
			<polygon class="st12" points="365,70.8 287,70.8 287,21.8 306,21.8 306,23.8 289,23.8 289,68.8 363,68.8 363,23.8 345,23.8 
				345,21.8 365,21.8 			"/>
		</g>
		<g>
			<rect x="314" y="21.8" class="st12" width="24" height="2"/>
		</g>
	</g>
	<g>
		<path class="st12" d="M325.8,47.3c-11.5,0-20.9-9.3-20.9-20.8c0-11.5,9.4-20.8,20.9-20.8c11.5,0,20.9,9.3,20.9,20.8
			C346.8,38,337.4,47.3,325.8,47.3z M325.8,7.6c-10.4,0-18.9,8.5-18.9,18.8c0,10.4,8.5,18.8,18.9,18.8c10.4,0,18.9-8.5,18.9-18.8
			C344.8,16.1,336.3,7.6,325.8,7.6z M325.8,40.1c-7.5,0-13.7-6.1-13.7-13.6s6.1-13.6,13.7-13.6c7.5,0,13.7,6.1,13.7,13.6
			S333.4,40.1,325.8,40.1z M325.8,14.8c-6.4,0-11.7,5.2-11.7,11.6c0,6.4,5.2,11.6,11.7,11.6c6.4,0,11.7-5.2,11.7-11.6
			C337.5,20.1,332.3,14.8,325.8,14.8z"/>
	</g>
	<g>
		<rect x="325" y="6.8" class="st12" width="2" height="7"/>
	</g>
	<g>
		
			<rect x="313.2" y="11.5" transform="matrix(0.7055 -0.7087 0.7087 0.7055 81.8566 227.137)" class="st12" width="2" height="7.2"/>
	</g>
	<g>
		<path class="st12" d="M345,58.8h-38v-10h38V58.8z M309,56.8h34v-6h-34V56.8z"/>
	</g>
	<g>
		<rect x="312" y="52.8" class="st12" width="24" height="2"/>
	</g>
	<g>
		<rect x="295" y="14.8" class="st12" width="2" height="16"/>
	</g>
	<g>
		<rect x="301" y="34.8" class="st12" width="2" height="15"/>
	</g>
	<g>
		<rect x="355" y="10.8" class="st12" width="2" height="16"/>
	</g>
</g>
</svg>
