<svg xmlns="http://www.w3.org/2000/svg" xmlns:xlink="http://www.w3.org/1999/xlink" viewBox="0 0 184.342 40" overflow="visible"><g><g><g><defs><linearGradient id="idsggFtylJBQsRBNh71GD_3g-1839121459" x1="0" x2="1" y1="0.4975124378109453" y2="0.5024875621890547"><stop offset="0" stop-color="rgb(69,94,169)" stop-opacity="1"></stop><stop offset="1" stop-color="rgb(141,204,181)" stop-opacity="1"></stop></linearGradient></defs><path d="M 29.006 32.315 C 31.293 28.689 32.001 24.287 30.966 20.127 C 29.249 27.102 23.002 32.01 15.819 32.03 C 12.871 32.035 9.982 31.195 7.496 29.611 C 3.947 27.343 1.454 23.749 0.574 19.631 C -1.506 27.138 2.217 35.036 9.331 38.21 C 16.444 41.383 24.809 38.877 29.006 32.315 Z" fill="url(#idsggFtylJBQsRBNh71GD_3g-1839121459)"></path></g><g><defs><linearGradient id="idsggFtylJBQsRBNh71GD_4g-1839121459" x1="0" x2="1" y1="0.4975124378109453" y2="0.5024875621890547"><stop offset="0" stop-color="rgb(69,94,169)" stop-opacity="1"></stop><stop offset="1" stop-color="rgb(141,204,181)" stop-opacity="1"></stop></linearGradient></defs><path d="M 8.11 15.866 C 8.11 13.021 8.896 10.23 10.38 7.803 C 12.627 4.12 16.29 1.523 20.509 0.62 C 19.109 0.217 17.661 0.009 16.204 0 C 9.275 0.02 3.174 4.569 1.176 11.204 C -0.821 17.839 1.754 24.999 7.52 28.842 C 11.194 31.285 15.724 32.073 20.006 31.013 C 13.033 29.295 8.126 23.048 8.11 15.866 Z" fill="url(#idsggFtylJBQsRBNh71GD_4g-1839121459)"></path></g><g><defs><linearGradient id="idsggFtylJBQsRBNh71GD_5g-1839121459" x1="0" x2="1" y1="0.4975124378109453" y2="0.5024875621890547"><stop offset="0" stop-color="rgb(69,94,169)" stop-opacity="1"></stop><stop offset="1" stop-color="rgb(141,204,181)" stop-opacity="1"></stop></linearGradient></defs><path d="M 39.786 24.289 C 39.789 15.601 32.751 8.554 24.063 8.547 C 22.606 8.556 21.158 8.765 19.758 9.167 C 26.207 10.54 31.11 15.799 32.027 22.329 C 32.209 23.694 32.209 25.077 32.027 26.441 C 31.753 28.508 31.063 30.498 29.998 32.29 C 27.853 35.912 24.346 38.521 20.26 39.535 C 24.954 40.702 29.924 39.645 33.737 36.668 C 37.549 33.691 39.78 29.126 39.786 24.289 Z" fill="url(#idsggFtylJBQsRBNh71GD_5g-1839121459)"></path></g><g><defs><linearGradient id="idsggFtylJBQsRBNh71GD_6g-1839121459" x1="0" x2="1" y1="0.4975124378109453" y2="0.5024875621890547"><stop offset="0" stop-color="rgb(69,94,169)" stop-opacity="1"></stop><stop offset="1" stop-color="rgb(141,204,181)" stop-opacity="1"></stop></linearGradient></defs><path d="M 40.09 15.972 C 39.979 9.839 36.316 4.33 30.705 1.854 C 25.093 -0.622 18.555 0.387 13.951 4.439 C 9.346 8.491 7.515 14.848 9.257 20.729 C 10.662 13.596 16.809 8.379 24.076 8.152 C 31.342 7.926 37.802 12.748 39.65 19.78 C 39.951 18.533 40.099 17.254 40.09 15.972 Z" fill="url(#idsggFtylJBQsRBNh71GD_6g-1839121459)"></path></g><path d="M 64.844 7.406 L 68.504 7.406 L 68.504 31.999 L 64.844 31.999 Z M 60.261 15.246 L 59.057 15.246 C 59.014 14.743 58.952 14.235 58.884 13.726 C 58.765 12.876 58.509 12.051 58.127 11.282 C 57.732 10.503 57.15 9.834 56.434 9.335 C 55.567 8.776 54.549 8.499 53.518 8.541 C 52.374 8.486 51.247 8.837 50.337 9.533 C 49.59 10.151 49.017 10.953 48.674 11.859 C 48.334 12.753 48.125 13.691 48.054 14.644 C 47.973 15.568 47.936 16.449 47.936 17.262 C 47.936 18.074 47.973 18.955 48.054 19.879 C 48.124 20.833 48.333 21.771 48.674 22.664 C 49.018 23.572 49.591 24.375 50.337 24.996 C 51.248 25.69 52.375 26.039 53.518 25.982 C 54.6 26.03 55.667 25.723 56.558 25.108 C 57.299 24.558 57.885 23.825 58.257 22.98 C 58.626 22.145 58.864 21.258 58.964 20.351 C 59.026 19.798 59.076 19.259 59.107 18.738 L 60.267 18.738 L 60.267 31.484 L 63.926 31.484 L 63.926 7.406 L 60.267 7.406 Z M 54.492 22.155 C 53.922 22.607 53.115 22.607 52.545 22.155 C 52.244 21.796 52.031 21.371 51.924 20.915 C 51.764 20.339 51.672 19.745 51.651 19.147 C 51.651 18.453 51.614 17.82 51.614 17.255 C 51.614 16.691 51.614 16.015 51.651 15.326 C 51.672 14.724 51.764 14.127 51.924 13.546 C 52.035 13.091 52.247 12.667 52.545 12.306 C 52.802 12.052 53.16 11.929 53.518 11.971 C 53.877 11.938 54.233 12.062 54.492 12.312 C 54.79 12.661 55.003 13.076 55.113 13.522 C 55.278 14.106 55.373 14.707 55.398 15.314 C 55.398 16.015 55.447 16.641 55.447 17.175 C 55.447 17.708 55.447 18.415 55.398 19.091 C 55.393 19.717 55.312 20.34 55.156 20.946 C 55.034 21.396 54.806 21.81 54.492 22.155 Z M 85.952 23.024 L 89.611 23.024 L 89.611 8.913 L 73.181 8.913 L 73.181 12.399 L 85.952 12.399 L 85.952 14.731 L 73.106 14.731 L 73.106 18.217 L 85.952 18.217 Z" fill="rgb(20,112,184)"></path><path d="M 81.895 24.792 L 81.895 18.998 L 78.236 18.998 L 78.236 24.792 L 70.222 24.792 L 70.222 28.284 L 92.545 28.284 L 92.545 24.792 Z M 98.741 22.329 L 112.74 22.329 L 112.74 18.85 L 99.845 18.85 L 99.845 16.989 L 111.928 16.989 L 111.928 13.522 L 99.845 13.522 L 99.845 11.977 L 112.294 11.977 L 112.294 8.491 L 96.167 8.491 L 96.167 19.73 C 96.084 20.499 96.363 21.263 96.924 21.796 C 97.449 22.179 98.092 22.368 98.741 22.329 Z M 93.202 24.767 L 115.531 24.767 L 115.531 28.253 L 93.202 28.253 Z M 129.406 24.767 L 129.406 22.36 L 135.919 22.36 L 135.919 18.874 L 122.95 18.874 L 122.95 17.014 L 135.299 17.014 L 135.299 8.466 L 119.284 8.466 L 119.284 11.952 L 131.639 11.952 L 131.639 13.546 L 119.284 13.546 L 119.284 19.705 C 119.237 20.414 119.479 21.112 119.954 21.641 C 120.487 22.116 121.181 22.373 121.895 22.36 L 125.747 22.36 L 125.747 24.767 L 116.307 24.767 L 116.307 28.253 L 138.357 28.253 L 138.357 24.767 Z M 143.226 26.162 L 155.705 26.162 L 155.705 32.619 L 159.365 32.619 L 159.365 22.67 L 143.226 22.67 Z M 144.528 21.089 C 145.117 21.089 145.843 21.033 146.674 20.977 C 147.505 20.921 148.392 20.853 149.323 20.778 C 150.253 20.704 151.184 20.623 152.151 20.53 C 153.119 20.437 154.012 20.344 154.824 20.245 L 155.817 20.127 L 155.141 16.623 L 154.272 16.734 C 153.51 16.834 152.697 16.927 151.841 17.014 C 150.985 17.1 150.142 17.187 149.317 17.262 C 148.492 17.336 147.71 17.392 146.96 17.442 C 146.209 17.491 145.719 17.516 145.186 17.535 L 145.186 8.392 L 141.526 8.392 L 141.526 18.223 C 141.441 19.054 141.735 19.879 142.326 20.468 C 142.914 20.919 143.647 21.139 144.386 21.089 Z M 155.978 7.406 L 159.638 7.406 L 159.638 22.267 L 155.978 22.267 Z M 166.262 21.889 L 166.405 21.827 C 167.118 21.436 167.825 21.002 168.513 20.537 C 169.202 20.071 169.841 19.594 170.455 19.116 C 171.069 18.639 171.633 18.149 172.161 17.671 C 172.688 17.193 173.091 16.815 173.513 16.393 C 174.269 16.896 175.132 17.504 176.081 18.223 C 177.49 19.316 178.844 20.48 180.137 21.709 L 180.801 22.329 L 183.282 19.848 L 182.599 19.197 C 181.868 18.496 181.111 17.82 180.36 17.193 C 179.61 16.567 178.903 15.996 178.22 15.457 C 177.538 14.917 176.874 14.415 176.267 13.993 L 175.181 13.242 C 175.206 13.02 175.219 12.796 175.218 12.573 L 175.218 8.466 L 171.497 8.466 L 171.497 12.455 C 171.505 12.696 171.463 12.937 171.373 13.162 C 171.255 13.409 171.109 13.642 170.939 13.856 C 170.622 14.173 170.219 14.557 169.698 15.01 C 169.177 15.463 168.662 15.978 168.042 16.474 C 167.422 16.97 166.758 17.479 166.088 17.963 C 165.476 18.401 164.836 18.799 164.172 19.153 L 163.161 19.681 L 164.544 21.368 C 164.941 21.899 165.637 22.11 166.262 21.889 Z M 162.236 24.748 L 184.342 24.748 L 184.342 28.234 L 162.236 28.234 Z" fill="rgb(20,112,184)"></path></g></g></svg>