<?xml version="1.0" encoding="utf-8"?>
<!-- Generator: Adobe Illustrator 21.0.0, SVG Export Plug-In . SVG Version: 6.00 Build 0)  -->
<svg version="1.1" id="레이어_1" xmlns="http://www.w3.org/2000/svg" xmlns:xlink="http://www.w3.org/1999/xlink" x="0px"
	 y="0px" viewBox="0 0 905 442" style="enable-background:new 0 0 905 442;" xml:space="preserve">
<style type="text/css">
	.st0{fill:url(#SVGID_1_);}
	.st1{fill:#1BB5C1;}
	.st2{fill:#FFFFFF;}
	.st3{fill:#FFFFFF;stroke:#FFFFFF;stroke-width:2.9574;stroke-miterlimit:10;}
</style>
<linearGradient id="SVGID_1_" gradientUnits="userSpaceOnUse" x1="327.5183" y1="1.1952" x2="582.4817" y2="442.8048" gradientTransform="matrix(1 0 0 -1 0 444)">
	<stop  offset="0" style="stop-color:#455EA9"/>
	<stop  offset="0.5161" style="stop-color:#55AFD5"/>
	<stop  offset="1" style="stop-color:#8DCCB5"/>
</linearGradient>
<polygon class="st0" points="314,9 596,9 596,435 314,435 "/>
<polygon class="st1" points="792,9 894,9 894,435 792,435 "/>
<g>
	<g>
		<g>
			<path class="st2" d="M372.4,62.1c1-1.6,1.6-3.5,1.6-5.5c0-0.9-0.1-1.7-0.3-2.5c-1.1,4.5-5.1,7.8-9.9,7.8c-2,0-3.9-0.6-5.4-1.6
				c-2.3-1.5-4-3.8-4.6-6.6c-0.2,0.9-0.4,1.8-0.4,2.8c0,5.7,4.6,10.4,10.4,10.4C367.4,66.9,370.6,65,372.4,62.1z"/>
			<path class="st2" d="M358.7,51.3c0-2,0.5-3.8,1.5-5.3c1.4-2.4,3.8-4.1,6.6-4.7c-0.9-0.2-1.8-0.4-2.8-0.4
				c-5.7,0-10.4,4.6-10.4,10.4c0,3.6,1.8,6.7,4.6,8.6c1.7,1.1,3.6,1.7,5.7,1.7c0.9,0,1.7-0.1,2.5-0.3
				C362,60.1,358.7,56.1,358.7,51.3z"/>
			<path class="st2" d="M379.5,56.8c0-3.8-2.1-7.1-5.1-8.9c-1.5-0.9-3.3-1.4-5.2-1.4c-1,0-2,0.1-2.8,0.4c4.2,0.9,7.5,4.3,8,8.6
				c0.1,0.4,0.1,0.9,0.1,1.4s-0.1,0.9-0.1,1.4c-0.2,1.4-0.7,2.7-1.3,3.8c-1.4,2.4-3.7,4.1-6.4,4.8c0.8,0.2,1.7,0.3,2.5,0.3
				C374.9,67.2,379.5,62.5,379.5,56.8z"/>
			<path class="st2" d="M379.7,51.3c-0.1-5.7-4.8-10.2-10.5-10.2c-3.6,0.1-6.7,2-8.6,4.8c-1.1,1.7-1.7,3.6-1.6,5.7
				c0,1,0.2,2,0.4,2.8c0.9-4.7,5-8.2,9.9-8.3c1.8,0,3.5,0.4,5,1.2c2.4,1.4,4.3,3.7,5,6.4C379.7,53,379.7,52.2,379.7,51.3z"/>
		</g>
		<g>
			<g>
				<path class="st3" d="M392,43.8V43h13.2v1.6h-11.7v8.6h10.1v1.6h-10.1v8.6h11.7v1.5H392V43.8z"/>
				<path class="st3" d="M417.5,42.8c1.5,0,2.8,0.4,4,1.1c1.2,0.7,2.1,1.7,2.8,2.8l-1.4,0.8c-0.5-0.9-1.3-1.7-2.2-2.3
					c-0.9-0.6-2-0.8-3.2-0.8c-0.9,0-1.7,0.2-2.4,0.5c-0.8,0.4-1.4,0.8-2,1.4c-0.6,0.6-1,1.2-1.4,2s-0.5,1.6-0.5,2.4v6.9
					c0,0.9,0.2,1.7,0.5,2.5c0.4,0.8,0.8,1.4,1.4,2c0.6,0.5,1.2,1,2,1.4s1.6,0.5,2.4,0.5c1.2,0,2.2-0.3,3.2-0.8
					c0.9-0.6,1.7-1.3,2.2-2.2l1.4,0.8c-0.7,1.2-1.7,2.1-2.8,2.8c-1.2,0.7-2.5,1.1-4,1.1c-1.1,0-2.1-0.2-3-0.6s-1.8-0.9-2.5-1.7
					c-0.7-0.7-1.2-1.5-1.7-2.5c-0.4-0.9-0.6-2-0.6-3v-7c0-1.1,0.2-2.1,0.6-3s0.9-1.8,1.7-2.5c0.7-0.7,1.5-1.2,2.5-1.7
					C415.4,42.9,416.4,42.8,417.5,42.8z"/>
				<path class="st3" d="M445.3,57.5c0,1.1-0.2,2.1-0.6,3s-0.9,1.8-1.7,2.5c-0.7,0.7-1.5,1.2-2.5,1.7c-0.9,0.4-2,0.6-3,0.6
					c-1.1,0-2.1-0.2-3.1-0.6c-0.9-0.4-1.8-0.9-2.5-1.7s-1.2-1.5-1.7-2.5s-0.6-2-0.6-3v-6.9c0-1.1,0.2-2.1,0.6-3s0.9-1.8,1.7-2.5
					c0.7-0.7,1.5-1.2,2.5-1.7c0.9-0.4,2-0.6,3.1-0.6s2.1,0.2,3,0.6c0.9,0.4,1.8,0.9,2.5,1.7c0.7,0.7,1.2,1.5,1.7,2.5
					c0.4,0.9,0.6,2,0.6,3V57.5z M443.7,50.6c0-0.9-0.2-1.7-0.5-2.4c-0.4-0.8-0.8-1.4-1.4-2s-1.2-1-2-1.4s-1.6-0.5-2.4-0.5
					c-0.9,0-1.7,0.2-2.5,0.5c-0.8,0.4-1.4,0.8-2,1.4c-0.5,0.6-1,1.2-1.4,2s-0.5,1.6-0.5,2.4v6.9c0,0.9,0.2,1.7,0.5,2.4
					c0.4,0.8,0.8,1.4,1.4,2c0.5,0.6,1.2,1,2,1.4s1.6,0.5,2.5,0.5s1.7-0.2,2.4-0.5c0.8-0.4,1.4-0.8,2-1.4s1-1.2,1.4-2
					s0.5-1.6,0.5-2.4V50.6z"/>
				<path class="st3" d="M456.5,44.7V65h-1.6V44.7h-6.5v-1.5H463v1.5H456.5z"/>
				<path class="st3" d="M467.5,43h7.3c0.8,0,1.6,0.2,2.3,0.5c0.7,0.3,1.3,0.7,1.8,1.2s0.9,1.2,1.2,1.9c0.3,0.7,0.5,1.5,0.5,2.3
					c0,0.7-0.1,1.4-0.4,2.1c-0.2,0.7-0.6,1.2-1,1.7s-0.9,0.9-1.5,1.3c-0.6,0.4-1.2,0.6-1.9,0.7h0.1l4.4,10.3h-1.8l-4.4-10.2H469V65
					h-1.5V43z M469,53.2h5.7c0.6,0,1.2-0.1,1.7-0.4c0.5-0.2,0.9-0.5,1.4-0.9c0.4-0.4,0.7-0.8,0.9-1.4c0.2-0.5,0.4-1.1,0.4-1.7
					s-0.1-1.2-0.4-1.7c-0.2-0.5-0.5-0.9-0.9-1.4c-0.4-0.4-0.8-0.7-1.4-0.9c-0.5-0.2-1.1-0.4-1.7-0.4H469V53.2z"/>
				<path class="st3" d="M501.6,57.5c0,1.1-0.2,2.1-0.6,3s-0.9,1.8-1.7,2.5s-1.5,1.2-2.5,1.7c-0.9,0.4-2,0.6-3,0.6
					c-1.1,0-2.1-0.2-3.1-0.6c-0.9-0.4-1.8-0.9-2.5-1.7c-0.7-0.7-1.2-1.5-1.7-2.5s-0.6-2-0.6-3v-6.9c0-1.1,0.2-2.1,0.6-3
					s0.9-1.8,1.7-2.5c0.7-0.7,1.5-1.2,2.5-1.7c0.9-0.4,2-0.6,3.1-0.6s2.1,0.2,3,0.6c0.9,0.4,1.8,0.9,2.5,1.7
					c0.7,0.7,1.2,1.5,1.7,2.5c0.4,0.9,0.6,2,0.6,3V57.5z M500,50.6c0-0.9-0.2-1.7-0.5-2.4c-0.4-0.8-0.8-1.4-1.4-2s-1.2-1-2-1.4
					s-1.6-0.5-2.4-0.5c-0.9,0-1.7,0.2-2.5,0.5c-0.8,0.4-1.4,0.8-2,1.4c-0.5,0.6-1,1.2-1.4,2s-0.5,1.6-0.5,2.4v6.9
					c0,0.9,0.2,1.7,0.5,2.4c0.4,0.8,0.8,1.4,1.4,2c0.5,0.6,1.2,1,2,1.4s1.6,0.5,2.5,0.5s1.7-0.2,2.4-0.5c0.8-0.4,1.4-0.8,2-1.4
					c0.6-0.6,1-1.2,1.4-2s0.5-1.6,0.5-2.4V50.6z"/>
				<path class="st3" d="M527.6,43h1.5v21.9h-1.5V43z"/>
				<path class="st3" d="M547,64.9l-5.4-9.3l-5.4,9.3h-1.8l6.3-10.9l-1.2-2.1l-4.2-7.3l-0.9-1.7h1.8l5.2,9l0.3,0.5L542,52l4.1-7.2
					l1.1-1.8h1.8l-5.2,9l-1.2,2.1l6.3,10.9L547,64.9L547,64.9z"/>
			</g>
		</g>
	</g>
	<g>
		<path class="st2" d="M518.8,66.2V50.4c0-1.7-0.4-3-1.3-3.8c-0.9-0.8-1.9-1.2-3.2-1.2c-1.2,0-2.3,0.4-3.3,1.2
			c-0.9,0.8-1.4,2.1-1.4,3.7v15.9h-4.4V41.7h4.4v2.2c0.8-0.8,1.7-1.5,2.7-1.9c1-0.4,2.1-0.6,3.2-0.6c1.1,0,2.2,0.2,3.1,0.5
			c0.9,0.4,1.7,0.8,2.4,1.5c0.8,0.8,1.4,1.8,1.8,2.8c0.3,1.1,0.5,2.2,0.5,3.4v16.6L518.8,66.2L518.8,66.2z"/>
	</g>
</g>
<path class="st2" d="M551.8,183H358.2c-6.6,0-12-5.4-12-12v-37c0-6.6,5.4-12,12-12h193.6c6.6,0,12,5.4,12,12v37
	C563.8,177.6,558.4,183,551.8,183z"/>
<g>
	<path class="st2" d="M377.7,102.9c-1.8-0.6-3-1.7-3.8-3.1c-0.8,1.6-2.1,2.8-4,3.4l-1.3-1.9c2.8-0.8,4-2.9,4-5.1V95h2.5v1.2
		c0,2,1.2,4,3.8,4.8L377.7,102.9z M383.5,109.4v1.9h-11.6v-4.6h8.8v-0.9h-8.8v-1.9H383v4.6h-8.8v1L383.5,109.4L383.5,109.4z
		 M380.6,98.9h-3.1V97h3.1v-2.5h2.4v8.6h-2.4V98.9z"/>
	<path class="st2" d="M394.6,94.8h2.3v15.9h-2.3v-5.6h-2.4v-2h2.4v-2.3h-2c-0.8,2.8-2.5,5.2-5.6,7l-1.4-1.7c3.4-2,4.8-4.5,5.1-7.8
		h-4.2v-1.9h6.6c0,0.9-0.1,1.7-0.1,2.5h1.6V94.8z M400.4,94.4v17H398v-17H400.4z"/>
	<path class="st2" d="M415.2,96.6c0,4.8-1.4,8.6-6.1,11.4l-1.4-1.7c3.4-2,4.8-4.4,5.2-7.8h-4.3v-1.9H415.2z M422.4,94.5v17h-2.3
		v-8.6h-1.5v7.9h-2.3V94.9h2.3v6h1.5v-6.4H422.4z"/>
	<path class="st2" d="M433.5,102.7h-8.1v-7.4h2.4v2h3.3v-2h2.4L433.5,102.7L433.5,102.7z M429.4,109.4h9.3v1.9H427v-4.7h8.8v-1H427
		v-1.8h11.2v4.6h-8.8L429.4,109.4L429.4,109.4z M431.1,99.1h-3.3v1.7h3.3V99.1z M440.4,97.7v2h-2.2v3.4h-2.4v-8.6h2.4v3.3h2.2V97.7z
		"/>
</g>
<g>
	<path class="st2" d="M842.2,238.4v2h-15.4v-2h5.4v-5.8h2.4v5.8H842.2z M837.6,236.4c0.6-3.2,0.7-5.6,0.7-7.5h-9.9V227h12.3v1.6
		c0,2.1,0,4.5-0.7,8.1L837.6,236.4z"/>
	<path class="st2" d="M851.1,226.6c0,4.3-2,7.2-6.4,8.9l-1.1-1.8c3.2-1.2,4.7-2.9,5-5.2h-4.2v-1.9H851.1z M846.5,236.1h11.8v6.4
		h-2.4V238h-9.3L846.5,236.1L846.5,236.1z M858.2,225.5v9.9h-2.3v-4h-1.5v4h-2.3v-9.6h2.3v3.6h1.5v-3.9H858.2z"/>
</g>
<circle class="st2" cx="359" cy="103" r="3"/>
<g>
	<path d="M370.7,144.2c2.2,0,3.6-0.1,5.2-0.4l0.1,1.1c-1.7,0.3-3.2,0.4-5.7,0.4h-1v-7.8h5.6v1.1h-4.3L370.7,144.2L370.7,144.2z
		 M378.3,136.4v11.8H377v-11.8H378.3z"/>
	<path d="M384.7,139.8c0,1.8,1.2,3.9,2.9,4.7l-0.7,1.1c-1.3-0.6-2.3-1.9-2.8-3.4c-0.5,1.6-1.6,3-2.9,3.7l-0.8-1.1c1.8-0.9,3-3.1,3-5
		v-1.1h-2.6v-1.1h6.4v1.1h-2.5V139.8z M391.5,142.1h-1.8v6h-1.3v-11.7h1.3v4.6h1.8V142.1z"/>
	<path d="M395.9,143c-1.8,0-3.1-1.2-3.1-2.9s1.4-2.9,3.1-2.9c1.8,0,3.1,1.2,3.1,2.9S397.7,143,395.9,143z M395.9,141.9
		c1,0,1.8-0.7,1.8-1.8s-0.8-1.8-1.8-1.8s-1.8,0.7-1.8,1.8S394.9,141.9,395.9,141.9z M402.6,146.8v1.1h-8v-3.8h1.4v2.8h6.6V146.8z
		 M402.3,144.9H401v-8.5h1.3V144.9z"/>
	<path d="M410.2,144.3c1.9,0,3.5-0.1,5.3-0.4l0.1,1.1c-2,0.4-3.8,0.4-5.8,0.4h-1v-4.7h4.1v-2.2h-4.1v-1.1h5.5v4.4h-4.1V144.3z
		 M417.9,136.4v11.8h-1.4v-11.8H417.9z"/>
	<path d="M430.8,144.2h-2.6v3.9h-1.3v-3.9H424v3.9h-1.4v-3.9h-2.5v-1.1h10.6L430.8,144.2L430.8,144.2z M429.5,141.9h-8v-5.1h1.3v1.4
		h5.4v-1.4h1.3L429.5,141.9L429.5,141.9z M428.1,139.4h-5.4v1.5h5.4V139.4z"/>
	<path d="M442.7,145.6v1.1h-10.6v-1.1h4.6v-2h-3.3v-3.8h6.8v-1.6h-6.8v-1.1h8.1v3.7h-6.8v1.6h7v1.1H438v2h4.7V145.6z"/>
	<path d="M376,163.8c-2.5,0.5-5.3,0.5-7.3,0.5l-0.2-1.1c0.9,0,1.9,0,3,0v-0.8c-1.3-0.2-2.1-0.8-2.1-1.8c0-1.1,1.1-1.8,2.8-1.8
		c1.7,0,2.8,0.7,2.8,1.8c0,0.9-0.8,1.6-2.1,1.8v0.7c1-0.1,2-0.1,3-0.3L376,163.8z M375.6,158.4h-6.7v-1h2.7v-1.1h1.4v1.1h2.7v1
		H375.6z M371.6,166.8h6.7v1.1h-8V165h1.3V166.8z M372.2,161.5c0.9,0,1.5-0.3,1.5-0.9c0-0.6-0.6-0.9-1.5-0.9s-1.5,0.3-1.5,0.9
		S371.3,161.5,372.2,161.5z M379.5,160.4v1.1h-1.6v4.1h-1.3v-9.2h1.3v4L379.5,160.4L379.5,160.4z"/>
	<path d="M386.3,159.5c-0.7,1.9-2.5,3.2-5,3.9l-0.5-1.1c2.8-0.8,4.3-2.2,4.5-4h-3.9v-1.1h5.3c0,0.4,0,0.8-0.1,1.2h2.4v-2h1.3v6.9
		H389v-1.4h-2.8v-1.1h2.8v-1.4h-2.7V159.5z M390.4,165.7c0,1.4-1.5,2.3-3.9,2.3s-3.9-0.9-3.9-2.3c0-1.4,1.5-2.3,3.9-2.3
		S390.4,164.3,390.4,165.7z M389.1,165.7c0-0.8-1-1.3-2.6-1.3s-2.6,0.5-2.6,1.3s1,1.3,2.6,1.3S389.1,166.6,389.1,165.7z"/>
	<path d="M406.9,164.3h-4.7v3.8h-1.3v-3.8h-4.6v-1.1h10.6V164.3z M405.5,162h-8v-5.1h1.3v1.5h5.4v-1.5h1.3L405.5,162L405.5,162z
		 M404.2,159.4h-5.4v1.5h5.4V159.4z"/>
	<path d="M412.3,158.2h2.7v1.1h-6.9v-1.1h2.8v-1.6h1.3v1.6H412.3z M414.5,162.9c0,1.6-1.2,2.7-2.9,2.7c-1.7,0-2.9-1.1-2.9-2.7
		c0-1.6,1.2-2.7,2.9-2.7C413.3,160.1,414.5,161.3,414.5,162.9z M413.2,162.9c0-1-0.7-1.6-1.6-1.6s-1.6,0.7-1.6,1.6s0.7,1.6,1.6,1.6
		C412.6,164.5,413.2,163.8,413.2,162.9z M419.1,162.2h-1.8v5.9h-1.4v-11.8h1.4v4.7h1.8V162.2z"/>
	<path d="M429.8,162.3v1h3.3v2.8h-6.7v1h7v1h-8.3v-2.9h6.7v-0.8H425v-1h3.4v-1h-4.6v-1.1h10.6v1.1h-4.6V162.3z M433,160.4h-7.9v-3.6
		h7.9V160.4z M431.7,157.8h-5.3v1.5h5.3V157.8z"/>
	<path d="M442.4,162.3c-1.4-0.4-2.4-1.3-2.9-2.3c-0.5,1.2-1.5,2.1-3,2.6l-0.6-1.1c1.8-0.5,2.9-1.9,2.9-3.4h-2.5V157h6.4v1.1h-2.5
		c0,1.4,1.1,2.7,2.9,3.2L442.4,162.3z M445.8,167v1h-8v-3h6.3v-1h-6.4v-1h7.7v3H439v1H445.8z M445.4,162.4H444v-6.1h1.4V162.4z"/>
	<path d="M458.7,163.6c-2.5,0.4-5.2,0.5-7.3,0.5l-0.2-1.1c0.9,0,1.9,0,3,0v-0.8c-1.3-0.1-2.1-0.8-2.1-1.7c0-1.1,1.1-1.8,2.8-1.8
		c1.7,0,2.8,0.7,2.8,1.8c0,0.9-0.8,1.5-2.1,1.7v0.7c1-0.1,2-0.1,3-0.3L458.7,163.6z M458.2,158.4h-6.7v-1h2.7v-1.1h1.4v1.1h2.7v1
		H458.2z M452.7,164.9h7.8v3.3h-1.3V166h-6.5V164.9z M454.9,161.3c0.9,0,1.5-0.3,1.5-0.8s-0.6-0.9-1.5-0.9s-1.5,0.3-1.5,0.9
		C453.4,161,454,161.3,454.9,161.3z M462.1,161h-1.6v3.4h-1.3v-7.9h1.3v3.5h1.6V161z"/>
	<path d="M466.6,163c-1.8,0-3.1-1.2-3.1-2.9s1.4-2.9,3.1-2.9c1.8,0,3.1,1.2,3.1,2.9C469.8,161.8,468.4,163,466.6,163z M466.6,161.9
		c1,0,1.8-0.7,1.8-1.8s-0.8-1.8-1.8-1.8s-1.8,0.7-1.8,1.8C464.8,161.2,465.6,161.9,466.6,161.9z M473.3,166.8v1.1h-8v-3.8h1.4v2.8
		h6.6V166.8z M473,164.9h-1.3v-8.5h1.3V164.9z"/>
</g>
<g>
	<path d="M677.3,145.6v1.1h-10.6v-1.1h2.5v-3.1c-0.9-0.5-1.5-1.4-1.5-2.4c0-1.9,1.8-3.1,4.3-3.1s4.3,1.2,4.3,3.1
		c0,1-0.6,1.9-1.5,2.4v3.1H677.3z M669,140.1c0,1.2,1.2,2,3,2s3-0.8,3-2s-1.2-2-3-2S669,138.9,669,140.1z M670.5,145.6h3V143
		c-0.5,0.1-1,0.2-1.5,0.2s-1-0.1-1.5-0.2V145.6z"/>
	<path d="M689.2,143.2h-4.7v4.9h-1.4v-4.9h-4.6v-1.1h7.6c0.3-1.6,0.3-2.9,0.3-3.9h-6.7v-1.1h8v1c0,1.1,0,2.3-0.3,4h1.6v1.1H689.2z"
		/>
	<path d="M700.5,137.6c0,3.5-1.4,6.5-5.4,8.4l-0.7-1.1c3.1-1.5,4.5-3.5,4.8-6.3H695v-1.1h5.5V137.6z M703.9,136.4v11.7h-1.3v-11.7
		H703.9z"/>
	<path d="M716.8,142.3v1.1h-4.6v2.2h-1.3v-2.2h-4.8v-1.1H716.8z M706.7,140.6c2.2-0.3,3.7-1.4,3.8-2.5h-3.4V137h8.7v1.1h-3.4
		c0.1,1.2,1.7,2.3,3.8,2.5l-0.5,1.1c-2-0.3-3.6-1.2-4.3-2.5c-0.6,1.3-2.2,2.2-4.2,2.5L706.7,140.6z M708.8,146.8h6.8v1.1h-8.2v-3.4
		h1.3v2.3H708.8z"/>
</g>
<g>
	<path d="M635.6,292.6h-6.9v-1.1h2.8v-1.2h1.3v1.2h2.8L635.6,292.6L635.6,292.6z M632.1,297.3c-1.7,0-2.8-0.8-2.8-2.1
		c0-1.3,1.2-2.1,2.8-2.1c1.7,0,2.8,0.8,2.8,2.1C635,296.5,633.8,297.3,632.1,297.3z M630.3,298.1h7.5v3.9h-7.5V298.1z M632.1,296.3
		c0.9,0,1.6-0.4,1.6-1.1s-0.6-1.1-1.6-1.1s-1.6,0.4-1.6,1.1C630.6,295.9,631.2,296.3,632.1,296.3z M631.7,300.9h4.9v-1.8h-4.9V300.9
		z M639.5,294.5h-1.7v3h-1.3v-7.1h1.3v3h1.7V294.5z"/>
	<path d="M651.3,298.1h-2.7v4h-1.4v-4h-2.7v4h-1.4v-4h-2.6V297h10.6L651.3,298.1z M641.7,293.4c0-1.6,1.7-2.6,4.2-2.6s4.2,1,4.2,2.6
		s-1.7,2.6-4.2,2.6S641.7,295,641.7,293.4z M643.1,293.4c0,0.9,1.1,1.5,2.8,1.5s2.8-0.6,2.8-1.5s-1.1-1.5-2.8-1.5
		C644.2,291.9,643.1,292.5,643.1,293.4z"/>
	<path d="M660.5,298.8c1-0.1,2-0.1,2.9-0.3l0.1,1c-2.5,0.4-5.2,0.5-7.2,0.5l-0.2-1.1c0.9,0,2,0,3,0v-1.1c-1.3-0.2-2.1-1-2.1-2.1
		c0-1.3,1.1-2.2,2.8-2.2s2.8,0.9,2.8,2.2c0,1.1-0.8,1.9-2.1,2.1V298.8z M663.3,292.8h-7v-1.1h2.8v-1.3h1.3v1.3h2.8v1.1H663.3z
		 M659.8,296.8c0.9,0,1.5-0.4,1.5-1.2c0-0.7-0.6-1.2-1.5-1.2s-1.6,0.4-1.6,1.2C658.2,296.3,658.9,296.8,659.8,296.8z M667.1,296.4
		h-1.7v5.7h-1.3v-11.8h1.3v4.9h1.7V296.4z"/>
	<path d="M675.1,292.6h-6.9v-1.1h2.8v-1.2h1.3v1.2h2.8L675.1,292.6L675.1,292.6z M671.7,297.4c-1.7,0-2.8-0.9-2.8-2.1
		c0-1.3,1.2-2.1,2.8-2.1s2.8,0.9,2.8,2.1S673.3,297.4,671.7,297.4z M669.6,298.3h7.7v3.8H676v-2.7h-6.4V298.3z M671.7,296.4
		c0.9,0,1.6-0.4,1.6-1.1s-0.6-1.1-1.6-1.1s-1.6,0.4-1.6,1.1C670.1,295.9,670.7,296.4,671.7,296.4z M679,294.6h-1.7v3.1H676v-7.3h1.3
		v3.1h1.7V294.6z"/>
	<path d="M689.8,296.3v1h3.3v2.8h-6.7v1h7v1h-8.3v-2.9h6.7v-0.8H685v-1h3.4v-1h-4.6v-1.1h10.6v1.1h-4.6V296.3z M693,294.4h-7.9v-3.6
		h7.9V294.4z M691.7,291.8h-5.3v1.5h5.3V291.8z"/>
	<path d="M702.4,296.3c-1.4-0.4-2.4-1.3-2.9-2.3c-0.5,1.2-1.5,2.1-3,2.6l-0.6-1.1c1.8-0.5,2.9-1.9,2.9-3.4h-2.5V291h6.4v1.1h-2.5
		c0,1.4,1.1,2.7,2.9,3.2L702.4,296.3z M705.8,301v1h-8v-3h6.3v-1h-6.4v-1h7.7v3H699v1H705.8z M705.4,296.4H704v-6.1h1.4V296.4z"/>
	<path d="M717.7,297c-1.3-0.5-2.2-1.4-2.7-2.5c-0.5,1.3-1.5,2.3-2.9,2.8l-0.7-1.1c1.8-0.7,2.9-2.2,2.9-3.8v-0.2h-2.5v-1.1h6.3v1.1
		h-2.4v0.2c0,1.5,1,2.9,2.8,3.5L717.7,297z M721.1,299.9c0,1.4-1.5,2.2-4,2.2s-4-0.8-4-2.2c0-1.4,1.5-2.2,4-2.2
		C719.6,297.7,721.1,298.5,721.1,299.9z M719.8,299.9c0-0.8-1-1.2-2.6-1.2c-1.7,0-2.6,0.4-2.6,1.2s0.9,1.2,2.6,1.2
		C718.8,301.1,719.8,300.7,719.8,299.9z M719.7,293.3v-3h1.3v7h-1.3v-3h-2.1v-1.1h2.1V293.3z"/>
	<path d="M733.9,299.6v1.1h-10.6v-1.1h4.6v-2.4h-3.4v-6.1h1.3v2h5.6v-2h1.3v6.1h-3.4v2.4H733.9z M725.8,296.1h5.6v-1.9h-5.6V296.1z"
		/>
	<path d="M745.2,297.3c-1.3-0.4-2.2-1.4-2.7-2.5c-0.5,1.3-1.5,2.3-2.9,2.8l-0.7-1.1c1.8-0.6,2.9-2.2,2.9-3.8v-0.4h-2.5v-1.1h6.3v1.1
		h-2.4v0.4c0,1.4,1,2.9,2.8,3.5L745.2,297.3z M748.9,300.8v1.1H741v-3.7h1.3v2.6H748.9z M747.3,293.5v-3.1h1.3v8.6h-1.3v-4.3h-2.1
		v-1.1h2.1V293.5z"/>
	<path d="M757.7,295.5c-1.6,0.3-3,0.4-5.5,0.4h-0.9V291h5.2v1.1h-3.9v2.7c2.2,0,3.5-0.1,4.9-0.4L757.7,295.5z M753.8,300.9h6.6v1.1
		h-7.9v-3.1h6.2v-1h-6.3v-1.1h7.6v3.1h-6.2L753.8,300.9L753.8,300.9z M761.7,292.7v1.1H760v2.4h-1.3v-5.9h1.3v2.4H761.7z"/>
</g>
<g>
	<path d="M622.3,397.5v1.1h-10.6v-1.1h4v-4.1h1.4v4.1H622.3z M619.8,390.6h-7v-1.1h8.4v1.2c0,1.5,0,3.1-0.5,5.5l-1.4-0.1
		C619.8,393.7,619.8,392,619.8,390.6L619.8,390.6z"/>
	<path d="M628.7,389.2c0,2.9-1.5,4.9-4.5,6.1l-0.6-1c2.3-0.9,3.5-2.3,3.7-4.1h-3.2v-1.1h4.6V389.2z M625.6,395.8h8v4.3h-1.3v-3.3
		h-6.6v-1H625.6z M633.6,388.4v6.9h-1.3v-3H631v2.9h-1.3v-6.6h1.3v2.6h1.3v-2.8H633.6z"/>
	<path d="M649.9,397.6v1.1h-10.7v-1.1h4.6v-2.4h-3.7v-1.1h1.7v-3.6h-1.7v-1.1h8.8v1.1h-1.7v3.6h1.7v1.1h-3.7v2.4H649.9z
		 M643.2,394.1h2.7v-3.6h-2.7V394.1z"/>
	<path d="M656.2,394.6h-4.6v-5.2h4.6V394.6z M657.8,396c0,1.4,1.6,2.7,3.9,3l-0.5,1c-1.8-0.3-3.3-1.1-4-2.3
		c-0.7,1.2-2.2,2.1-4.1,2.3l-0.5-1c2.3-0.3,3.9-1.6,3.9-3v-0.3h1.3L657.8,396L657.8,396z M655,390.4h-2.1v3.1h2.1V390.4z
		 M658.6,395.1h-1.3v-6.5h1.3v2.7h1.2v-2.9h1.3v7.9h-1.3v-3.9h-1.2V395.1z"/>
	<path d="M669.2,388.8h1l-3.6,12.7h-1L669.2,388.8z"/>
	<path d="M674,395.6c0-2.4,1.7-3.8,3.5-3.8c0.9,0,1.6,0.4,2.1,0.8l-0.7,1c-0.4-0.4-0.8-0.6-1.3-0.6c-1.2,0-2.1,1-2.1,2.5
		s0.8,2.5,2,2.5c0.6,0,1.1-0.3,1.6-0.6l0.6,1c-0.7,0.6-1.5,0.9-2.3,0.9C675.5,399.3,674,397.9,674,395.6z"/>
	<path d="M160.2,415.6c0-2.4,1.7-3.8,3.5-3.8c0.9,0,1.6,0.4,2.1,0.8l-0.7,1c-0.4-0.4-0.8-0.6-1.3-0.6c-1.2,0-2.1,1-2.1,2.5
		s0.8,2.5,2,2.5c0.6,0,1.1-0.3,1.6-0.6l0.6,1c-0.7,0.6-1.5,0.9-2.3,0.9C161.7,419.3,160.2,417.9,160.2,415.6z"/>
	<path d="M681.3,388.8h1.5v2.7l-0.1,1.4c0.6-0.6,1.3-1.1,2.3-1.1c1.5,0,2.2,1,2.2,2.8v4.5h-1.5v-4.3c0-1.2-0.4-1.7-1.2-1.7
		c-0.7,0-1.1,0.3-1.8,1v5.1h-1.5L681.3,388.8L681.3,388.8z"/>
	<path d="M688.8,395.6c0-2.3,1.6-3.8,3.3-3.8c1.9,0,2.9,1.4,2.9,3.4c0,0.3,0,0.6-0.1,0.8h-4.6c0.1,1.4,1,2.2,2.2,2.2
		c0.6,0,1.2-0.2,1.7-0.5l0.5,0.9c-0.7,0.4-1.5,0.8-2.4,0.8C690.4,399.3,688.8,397.9,688.8,395.6z M693.7,394.9c0-1.2-0.6-2-1.6-2
		c-0.9,0-1.7,0.7-1.8,2H693.7z"/>
	<path d="M696.7,392h1.2l0.1,1l0,0c0.6-0.7,1.3-1.2,2.2-1.2c1.1,0,1.7,0.5,2,1.3c0.7-0.8,1.4-1.3,2.3-1.3c1.5,0,2.2,1,2.2,2.8v4.5
		h-1.5v-4.3c0-1.2-0.4-1.7-1.2-1.7c-0.5,0-1,0.3-1.6,1v5.1H701v-4.3c0-1.2-0.4-1.7-1.2-1.7c-0.5,0-1,0.3-1.6,1v5.1h-1.5V392z"/>
	<path d="M708.4,397.9l0.9-1c0.7,0.7,1.6,1.1,2.5,1.1c1.2,0,1.8-0.5,1.8-1.4s-0.7-1.1-1.5-1.5l-1.3-0.6c-0.9-0.4-2-1.1-2-2.5
		c0-1.5,1.3-2.6,3.1-2.6c1.1,0,2.2,0.5,2.9,1.2l-0.8,1c-0.6-0.5-1.3-0.9-2.1-0.9c-1,0-1.6,0.5-1.6,1.2c0,0.8,0.8,1.1,1.5,1.4
		l1.3,0.6c1.1,0.5,1.9,1.2,1.9,2.6c0,1.5-1.3,2.8-3.4,2.8C710.5,399.3,709.2,398.8,708.4,397.9z"/>
	<path d="M716.9,389.6h1.5v3.9h4.1v-3.9h1.5v9.6h-1.5v-4.4h-4.1v4.4h-1.5V389.6z"/>
	<path d="M726.6,389.6h5.7v1.3h-4.1v2.7h3.5v1.3h-3.5v3.1h4.3v1.3h-5.8v-9.7H726.6z"/>
	<path d="M739.6,399.1l-2.2-3.9h-1.5v3.9h-1.5v-9.6h3.1c2,0,3.5,0.7,3.5,2.8c0,1.5-0.8,2.4-2,2.7l2.3,4.1H739.6z M735.9,394.1h1.4
		c1.4,0,2.1-0.6,2.1-1.7c0-1.2-0.8-1.6-2.1-1.6h-1.4V394.1z"/>
	<path d="M742.9,389.6h2.9c2.1,0,3.7,0.7,3.7,2.9c0,2.1-1.5,3.1-3.6,3.1h-1.4v3.6H743v-9.6H742.9z M745.7,394.3
		c1.5,0,2.3-0.6,2.3-1.8c0-1.3-0.8-1.7-2.3-1.7h-1.2v3.5H745.7z"/>
	<path d="M755,396.4h-3.3l-0.8,2.7h-1.5l3.2-9.6h1.7l3.2,9.6h-1.6L755,396.4z M754.6,395.2l-0.4-1.3c-0.3-1-0.6-2.1-0.9-3.2h-0.1
		c-0.3,1.1-0.6,2.1-0.9,3.2l-0.4,1.3H754.6z"/>
	<path d="M771.6,393.9v1.1H761v-1.1H771.6z M770.3,398c0,1.4-1.5,2.1-4,2.1s-4-0.8-4-2.1c0-1.4,1.5-2.1,4-2.1
		C768.8,395.8,770.3,396.6,770.3,398z M770.4,392.9h-8.1v-4.1h8v1.1h-6.7v2h6.7L770.4,392.9L770.4,392.9z M768.9,398
		c0-0.7-1-1.1-2.7-1.1s-2.7,0.4-2.7,1.1s1,1.1,2.7,1.1C768,399.1,768.9,398.7,768.9,398z"/>
</g>
<path class="st2" d="M551.8,402H358.2c-6.6,0-12-5.4-12-12V253c0-6.6,5.4-12,12-12h193.6c6.6,0,12,5.4,12,12v137
	C563.8,396.6,558.4,402,551.8,402z"/>
<g>
	<path class="st2" d="M374.2,218c0,2.8,0.8,5.7,3.3,7.1l-1.4,1.8c-1.5-0.9-2.5-2.4-3-4.1c-0.6,1.9-1.6,3.6-3.1,4.6l-1.4-1.8
		c2.5-1.6,3.4-4.6,3.4-7.5v-0.8h-2.7v-2h7.6v2h-2.5v0.7H374.2z M377.6,213.7h2.3v15.9h-2.3v-8.4h-2.2v-2h2.2V213.7z M383.4,213.4v17
		h-2.3v-17H383.4z"/>
	<path class="st2" d="M401.1,226.5v2h-15.4v-2h6.5v-3.7h2.4v3.7H401.1z M386.4,221.6c3.6-0.6,5.5-2.7,5.8-4.9H387v-1.9h12.8v1.9
		h-5.1c0.2,2.2,2.2,4.3,5.8,4.8l-0.9,1.9c-3-0.5-5.1-2-6.2-3.9c-1.1,2-3.2,3.5-6.1,4L386.4,221.6z"/>
</g>
<circle class="st2" cx="359" cy="222" r="3"/>
<g>
	<path d="M379.3,275.6v1.1h-10.6v-1.1h4.6v-2.7h1.4v2.7H379.3z M369.1,272.2c2.3-0.4,4.1-2,4.1-3.8l0,0h-3.7v-1.1h8.9v1.1h-3.7l0,0
		c0,1.8,1.9,3.4,4.2,3.7l-0.5,1.1c-1.9-0.4-3.6-1.5-4.4-3c-0.8,1.5-2.4,2.6-4.3,3L369.1,272.2z"/>
	<path d="M387.5,271.5c-1.6,0.3-3,0.4-5.5,0.4h-0.9V267h5.2v1.1h-3.9v2.7c2.2,0,3.5-0.1,4.9-0.4L387.5,271.5z M383.5,276.9h6.6v1.1
		h-7.9v-3.1h6.2v-1h-6.3v-1.1h7.6v3.1h-6.2L383.5,276.9L383.5,276.9z M391.5,268.7v1.1h-1.7v2.4h-1.3v-5.9h1.3v2.4H391.5z"/>
	<path d="M399.8,269.4c0,2.1,0.7,4,2.4,4.9l-0.8,1c-1.1-0.6-1.8-1.7-2.3-3c-0.4,1.5-1.2,2.7-2.3,3.4l-0.8-1c1.7-1,2.4-3,2.4-5.4
		v-0.6h-2.1v-1.1h5.4v1.1h-2L399.8,269.4L399.8,269.4z M406.3,266.4v11.8H405v-6h-1.3v5.5h-1.3v-11h1.3v4.4h1.3v-4.6L406.3,266.4
		L406.3,266.4z"/>
	<path d="M418.8,275.6v1.1h-10.6v-1.1h2.8v-2h-1.6v-3.8h6.8v-1.6h-6.8v-1.1h8.1v3.7h-6.8v1.6h7v1.1H416v2L418.8,275.6L418.8,275.6z
		 M412.4,275.6h2.4v-2h-2.4V275.6z"/>
	<path d="M420.2,274.6c2.1,0,5,0,7.6-0.4l0.1,1c-2.6,0.5-5.4,0.5-7.5,0.5L420.2,274.6z M427.1,270c0,1.7-1.4,2.8-3.2,2.8
		s-3.2-1.2-3.2-2.8s1.4-2.8,3.2-2.8S427.1,268.4,427.1,270z M422.1,270c0,1,0.8,1.7,1.9,1.7s1.9-0.7,1.9-1.7s-0.8-1.7-1.9-1.7
		C422.8,268.4,422.1,269,422.1,270z M429.8,266.4v11.8h-1.4v-11.8H429.8z"/>
	<path d="M441.8,267.1c0,3-2,5.1-5.4,6.1l-0.5-1.1c2.7-0.7,4.3-2.1,4.5-4h-3.9V267h5.3V267.1z M437.8,273.5h7.6v4.5h-7.6V273.5z
		 M439.1,276.9h5v-2.3h-5V276.9z M445.5,266.4v6.7h-1.3v-2.6h-2.3v-1.1h2.3v-2.9h1.3V266.4z"/>
	<path d="M458.3,271.9v1.1h-10.6v-1.1H458.3z M448.2,270.3c2.2-0.2,3.7-1.2,3.9-2.2h-3.4V267h8.7v1.1H454c0.2,1.1,1.7,2,3.9,2.2
		l-0.5,1c-2.1-0.2-3.7-1.1-4.3-2.3c-0.6,1.2-2.2,2.1-4.3,2.3L448.2,270.3z M457,276c0,1.4-1.5,2.1-4,2.1s-4-0.8-4-2.1s1.5-2.2,4-2.2
		S457,274.6,457,276z M455.7,276c0-0.7-1-1.1-2.7-1.1s-2.7,0.4-2.7,1.1s1,1.1,2.7,1.1S455.7,276.7,455.7,276z"/>
	<path d="M463.1,273.1c0-2.6,0.7-4.7,1.9-6.6l0.9,0.4c-1.1,1.9-1.6,4.1-1.6,6.2c0,2.2,0.5,4.4,1.6,6.2l-0.9,0.4
		C463.8,277.7,463.1,275.6,463.1,273.1z"/>
	<path d="M477.8,274h-4.7v4.1h-1.3V274h-4.6v-1.1h10.6V274z M476.8,271.8c-2-0.3-3.5-1.3-4.3-2.7c-0.8,1.4-2.4,2.3-4.3,2.7l-0.5-1.1
		c2.4-0.3,4.1-1.8,4.1-3.3v-0.6h1.4v0.6c0,1.5,1.8,3,4.1,3.3L476.8,271.8z"/>
	<path d="M485.6,269.7c0,1.6-1.3,2.7-3.1,2.7c-1.8,0-3.1-1.1-3.1-2.7s1.3-2.7,3.1-2.7C484.3,266.9,485.6,268,485.6,269.7z
		 M480.7,269.7c0,1,0.7,1.6,1.8,1.6c1.1,0,1.8-0.6,1.8-1.6s-0.8-1.6-1.8-1.6C481.4,268,480.7,268.7,480.7,269.7z M482.5,273.2v1.3h5
		v-1.3h1.3v4.7h-7.7v-4.7H482.5z M482.5,276.9h5v-1.3h-5V276.9z M488.8,266.4v6.3h-1.3v-6.3H488.8z"/>
	<path d="M497.2,267.1c0,3-2,5.1-5.4,6.1l-0.5-1.1c2.7-0.7,4.3-2.1,4.5-4h-3.9V267h5.3V267.1z M493.2,273.5h7.6v4.5h-7.6V273.5z
		 M494.5,276.9h5v-2.3h-5V276.9z M500.8,266.4v6.7h-1.3v-2.6h-2.3v-1.1h2.3v-2.9h1.3V266.4z"/>
	<path d="M507.2,269.3c0,2.1,1.1,4.2,2.9,5.1l-0.8,1.1c-1.3-0.6-2.2-1.9-2.7-3.5c-0.5,1.6-1.5,3-2.8,3.7l-0.8-1.1
		c1.8-0.9,3-3.1,3-5.3v-1.9h1.3v1.9H507.2z M514,272.1h-1.8v6h-1.3v-11.7h1.3v4.7h1.8V272.1z"/>
	<path d="M515,279.3c1.1-1.9,1.6-4.1,1.6-6.2c0-2.2-0.5-4.4-1.6-6.2l0.9-0.4c1.2,2,1.9,4.1,1.9,6.6c0,2.6-0.7,4.7-1.9,6.7L515,279.3
		z"/>
	<path d="M375.1,292.8c-1.4-0.5-2.3-1.4-2.8-2.6c-0.5,1.3-1.5,2.3-2.9,2.8l-0.7-1.1c1.8-0.6,2.9-2.2,2.9-3.9v-1.1h1.4v1.1
		c0,1.6,1,3.1,2.8,3.7L375.1,292.8z M370.4,294h7.9v4.1H377V295h-6.6V294z M378.3,286.4v7H377v-7H378.3z"/>
	<path d="M386.6,292.1h-5.4v-5.2h1.3v1.5h2.8v-1.5h1.3v1.1h2.4v-1.6h1.4v6.1H389v-1.3h-2.4V292.1z M385.3,289.5h-2.8v1.5h2.8V289.5z
		 M390.7,296.9v1.1h-8v-3h6.3v-1h-6.3v-1h7.6v2.9H384v1H390.7z M386.6,289v1.1h2.4V289H386.6z"/>
	<path d="M403.5,293c-2.4,0.4-5.2,0.5-7.3,0.5l-0.1-1.1c0.7,0,1.5,0,2.3,0V290h1.3v2.4c1.2-0.1,2.5-0.1,3.6-0.3L403.5,293z
		 M401.1,291.3c0.2-1.3,0.3-2.2,0.3-2.9h-4.6v-1.1h5.9v0.7c0,0.8,0,1.9-0.3,3.5L401.1,291.3z M399.2,296.8h6.6v1.1h-8v-3.5h1.4
		V296.8z M407,290.1v1.1h-1.6v4H404v-8.8h1.4v3.7L407,290.1L407,290.1z"/>
	<path d="M410.2,294.3c1.9,0,3.5-0.1,5.3-0.4l0.1,1.1c-2,0.4-3.8,0.4-5.8,0.4h-1v-4.7h4.1v-2.2h-4.1v-1.1h5.5v4.4h-4.1V294.3z
		 M417.9,286.4v11.8h-1.4v-11.8H417.9z"/>
	<path d="M374.6,313.2h-5.4v-6h1.3v1.9h2.8v-1.9h1.3v1.3h2.4v-2.1h1.3v8.7H377v-3h-2.4V313.2z M373.3,310.2h-2.8v1.9h2.8V310.2z
		 M378.7,316.8v1.1h-7.9v-3.7h1.4v2.6H378.7z M374.6,309.5v1.4h2.4v-1.4H374.6z"/>
	<path d="M386.3,309.5c-0.7,1.9-2.5,3.2-5,3.9l-0.5-1.1c2.8-0.8,4.3-2.2,4.5-4h-3.9v-1.1h5.3c0,0.4,0,0.8-0.1,1.2h2.4v-2h1.3v6.9
		H389v-1.4h-2.8v-1.1h2.8v-1.4h-2.7V309.5z M390.4,315.7c0,1.4-1.5,2.3-3.9,2.3s-3.9-0.9-3.9-2.3s1.5-2.3,3.9-2.3
		C388.9,313.4,390.4,314.3,390.4,315.7z M389.1,315.7c0-0.8-1-1.3-2.6-1.3s-2.6,0.5-2.6,1.3s1,1.3,2.6,1.3S389.1,316.6,389.1,315.7z
		"/>
	<path d="M403.5,313c-2.4,0.4-5.2,0.5-7.3,0.5l-0.1-1.1c0.7,0,1.5,0,2.3,0V310h1.3v2.4c1.2-0.1,2.5-0.1,3.6-0.3L403.5,313z
		 M401.1,311.3c0.2-1.3,0.3-2.2,0.3-2.9h-4.6v-1.1h5.9v0.7c0,0.8,0,1.9-0.3,3.5L401.1,311.3z M399.2,316.8h6.6v1.1h-8v-3.5h1.4
		V316.8z M407,310.1v1.1h-1.6v4H404v-8.8h1.4v3.7L407,310.1L407,310.1z"/>
	<path d="M410.2,314.3c1.9,0,3.5-0.1,5.3-0.4l0.1,1.1c-2,0.4-3.8,0.4-5.8,0.4h-1v-4.7h4.1v-2.2h-4.1v-1.1h5.5v4.4h-4.1V314.3z
		 M417.9,306.4v11.8h-1.4v-11.8H417.9z"/>
	<path d="M375.1,331.4c0,2.5-1.3,4.1-3,4.1s-3-1.6-3-4.1s1.3-4.1,3-4.1C373.8,327.2,375.1,328.9,375.1,331.4z M370.3,331.4
		c0,1.8,0.7,3,1.7,3s1.7-1.1,1.7-3c0-1.8-0.7-2.9-1.7-2.9C371.1,328.5,370.3,329.6,370.3,331.4z M378.3,326.4v11.8H377v-11.8H378.3z
		"/>
	<path d="M386.7,332.8c-1.3-0.5-2.2-1.4-2.7-2.5c-0.5,1.3-1.5,2.3-2.8,2.8l-0.7-1.1c1.8-0.6,2.8-2.2,2.8-3.9V327h1.4v1.3
		c0,1.5,1,2.9,2.7,3.5L386.7,332.8z M389.9,335.9c0,1.4-1.5,2.2-3.9,2.2s-3.9-0.8-3.9-2.2c0-1.4,1.5-2.2,3.9-2.2
		C388.4,333.7,389.9,334.5,389.9,335.9z M388.6,335.9c0-0.7-0.9-1.1-2.6-1.1c-1.6,0-2.6,0.4-2.6,1.1c0,0.8,0.9,1.2,2.6,1.2
		C387.6,337.1,388.6,336.7,388.6,335.9z M391.5,329.3v1.1h-1.7v3h-1.3v-7.1h1.3v2.9h1.7V329.3z"/>
	<path d="M398.6,333.1v1.2h3.4v3.7h-8.1v-3.7h3.4v-1.2h-4.6V332h10.6v1.1H398.6z M395.2,327.8h-1.7v-1.1h8.7v1.1h-1.7v2.2h1.6v1.1
		h-8.6V330h1.6v-2.2H395.2z M400.6,335.3h-5.4v1.6h5.4V335.3z M399.2,327.8h-2.7v2.2h2.7V327.8z"/>
	<path d="M409.9,334.2c1.4,0,2.4-0.1,3.6-0.3l0.1,1.1c-1.4,0.3-2.6,0.3-4.3,0.3h-0.8v-7.6h4.3v1.1h-3L409.9,334.2L409.9,334.2z
		 M418.2,326.4v11.7h-1.3v-6h-1.4v5.4h-1.3v-10.9h1.3v4.4h1.4v-4.6H418.2z"/>
	<path d="M430.8,332v1.1h-10.6V332H430.8z M429.6,328.9c0,1.4-1.6,2.3-4.2,2.3s-4.2-0.9-4.2-2.3s1.6-2.3,4.2-2.3
		C428,326.7,429.6,327.5,429.6,328.9z M429.5,336c0,1.4-1.5,2.1-4,2.1s-4-0.8-4-2.1s1.5-2.1,4-2.1S429.5,334.7,429.5,336z
		 M422.6,328.9c0,0.8,1.1,1.2,2.8,1.2s2.8-0.4,2.8-1.2c0-0.8-1.1-1.2-2.8-1.2S422.6,328.2,422.6,328.9z M422.7,336
		c0,0.7,1,1.1,2.7,1.1s2.7-0.4,2.7-1.1s-1-1.1-2.7-1.1S422.7,335.3,422.7,336z"/>
	<path d="M372.2,349.6c0,2,0.8,4,2.4,5l-0.8,1c-1.1-0.6-1.8-1.8-2.2-3.2c-0.4,1.5-1.2,2.7-2.3,3.5l-0.8-1c1.7-1,2.4-3.2,2.4-5.3
		v-0.8h-2.1v-1.1h5.3v1.1h-1.9V349.6z M375,346.6h1.3v10.9H375v-6h-1.7v-1.1h1.7V346.6z M378.7,346.4v11.7h-1.3v-11.7H378.7z"/>
	<path d="M391.3,355.6v1.1h-10.6v-1.1h4.6v-2.7h1.4v2.7H391.3z M381.1,352.2c2.3-0.4,4.1-2,4.1-3.8l0,0h-3.7v-1.1h8.9v1.1h-3.7l0,0
		c0,1.8,1.9,3.4,4.2,3.7l-0.5,1.1c-1.9-0.4-3.6-1.5-4.4-3c-0.8,1.5-2.4,2.6-4.3,3L381.1,352.2z"/>
	<path d="M400.6,349.3c0,2.2,1.2,4.3,3,5.1l-0.8,1.1c-1.4-0.6-2.4-1.9-2.9-3.5c-0.5,1.7-1.6,3.1-3,3.8l-0.8-1.1
		c1.9-0.8,3.1-3.1,3.1-5.4v-1.9h1.3L400.6,349.3L400.6,349.3z M405.9,346.4v11.8h-1.4v-11.8H405.9z"/>
	<path d="M415.9,349.3c0,2.1,1.1,4.2,2.9,5.1l-0.8,1.1c-1.3-0.6-2.2-1.9-2.7-3.5c-0.5,1.6-1.5,3-2.8,3.7l-0.8-1.1
		c1.8-0.9,3-3.1,3-5.3v-1.9h1.3v1.9H415.9z M422.7,352.1h-1.8v6h-1.3v-11.7h1.3v4.7h1.8V352.1z"/>
	<path d="M434.4,352.1v1.1h-10.6v-1.1h2.5v-1.6c-0.9-0.4-1.4-1-1.4-1.7c0-1.4,1.6-2.2,4.2-2.2s4.2,0.8,4.2,2.2
		c0,0.8-0.5,1.4-1.4,1.8v1.5L434.4,352.1L434.4,352.1z M433.1,356c0,1.4-1.5,2.1-4,2.1s-4-0.8-4-2.1c0-1.3,1.5-2.1,4-2.1
		S433.1,354.7,433.1,356z M426.3,348.8c0,0.8,1.1,1.2,2.8,1.2c1.7,0,2.8-0.4,2.8-1.2c0-0.8-1.1-1.2-2.8-1.2
		C427.3,347.6,426.3,348,426.3,348.8z M431.8,356c0-0.7-1-1.1-2.7-1.1s-2.7,0.4-2.7,1.1s1,1.1,2.7,1.1S431.8,356.7,431.8,356z
		 M427.6,352.1h2.9v-1.2c-0.4,0.1-0.9,0.1-1.4,0.1s-1,0-1.5-0.1V352.1z"/>
	<path d="M443,349.4c0,2.1,0.7,4,2.4,4.9l-0.8,1c-1.1-0.6-1.8-1.7-2.3-3c-0.4,1.5-1.2,2.7-2.3,3.4l-0.8-1c1.7-1,2.4-3,2.4-5.4v-0.6
		h-2.1v-1.1h5.4v1.1h-2L443,349.4L443,349.4z M449.5,346.4v11.8h-1.3v-6h-1.3v5.5h-1.3v-11h1.3v4.4h1.3v-4.6L449.5,346.4
		L449.5,346.4z"/>
	<path d="M462,355.6v1.1h-10.6v-1.1h2.8v-2h-1.6v-3.8h6.8v-1.6h-6.8v-1.1h8.1v3.7h-6.8v1.6h7v1.1h-1.7v2L462,355.6L462,355.6z
		 M455.5,355.6h2.4v-2h-2.4V355.6z"/>
	<path d="M463.4,354.6c2.1,0,5,0,7.6-0.4l0.1,1c-2.6,0.5-5.4,0.5-7.5,0.5L463.4,354.6z M470.3,350c0,1.7-1.4,2.8-3.2,2.8
		s-3.2-1.2-3.2-2.8s1.4-2.8,3.2-2.8S470.3,348.4,470.3,350z M465.2,350c0,1,0.8,1.7,1.9,1.7s1.9-0.7,1.9-1.7s-0.8-1.7-1.9-1.7
		C466,348.4,465.2,349,465.2,350z M473,346.4v11.8h-1.4v-11.8H473z"/>
	<path d="M484.9,347.1c0,3-2,5.1-5.4,6.1l-0.5-1.1c2.7-0.7,4.3-2.1,4.5-4h-3.9V347h5.3V347.1z M481,353.5h7.6v4.5H481V353.5z
		 M482.3,356.9h5v-2.3h-5V356.9z M488.6,346.4v6.7h-1.3v-2.6H485v-1.1h2.3v-2.9h1.3V346.4z"/>
	<path d="M501.5,351.9v1.1h-10.6v-1.1H501.5z M491.4,350.3c2.2-0.2,3.7-1.2,3.9-2.2h-3.4V347h8.7v1.1h-3.4c0.2,1.1,1.7,2,3.9,2.2
		l-0.5,1c-2.1-0.2-3.7-1.1-4.3-2.3c-0.6,1.2-2.2,2.1-4.3,2.3L491.4,350.3z M500.2,356c0,1.4-1.5,2.1-4,2.1s-4-0.8-4-2.1
		s1.5-2.2,4-2.2S500.2,354.6,500.2,356z M498.8,356c0-0.7-1-1.1-2.7-1.1s-2.7,0.4-2.7,1.1s1,1.1,2.7,1.1
		C497.9,357.1,498.8,356.7,498.8,356z"/>
	<path d="M369.2,373.1c0-2.6,0.7-4.7,1.9-6.6l0.9,0.4c-1.1,1.9-1.6,4.1-1.6,6.2c0,2.2,0.5,4.4,1.6,6.2l-0.9,0.4
		C369.9,377.7,369.2,375.6,369.2,373.1z"/>
	<path d="M379.2,372.5v0.9h3.3v2.7h-6.7v0.9h7v1h-8.3v-2.8h6.7v-0.8h-6.7v-1h3.4v-0.9h-4.6v-1h10.6v1L379.2,372.5L379.2,372.5z
		 M373.8,370.1c2.3-0.1,3.8-0.8,4-1.7h-3.5v-1h3.6v-1h1.3v1h3.6v1h-3.5c0.3,0.9,1.7,1.6,4,1.7l-0.4,1c-2.1-0.1-3.7-0.7-4.4-1.7
		c-0.7,1-2.3,1.6-4.4,1.7L373.8,370.1z"/>
	<path d="M389.3,368.2h2.7v1.1h-6.9v-1.1h2.8v-1.6h1.3v1.6H389.3z M391.6,372.9c0,1.6-1.2,2.7-2.9,2.7c-1.7,0-2.9-1.1-2.9-2.7
		s1.2-2.7,2.9-2.7C390.3,370.1,391.6,371.3,391.6,372.9z M390.3,372.9c0-1-0.7-1.6-1.6-1.6s-1.6,0.7-1.6,1.6c0,1,0.7,1.6,1.6,1.6
		C389.6,374.5,390.3,373.8,390.3,372.9z M396.2,372.2h-1.8v5.9H393v-11.8h1.4v4.7h1.8L396.2,372.2L396.2,372.2z"/>
	<path d="M403.2,367.1c0,3-2,5.1-5.4,6.1l-0.5-1.1c2.7-0.7,4.3-2.1,4.5-4h-3.9V367h5.3V367.1z M399.3,373.5h7.6v4.5h-7.6V373.5z
		 M400.6,376.9h5v-2.3h-5V376.9z M406.9,366.4v6.7h-1.3v-2.6h-2.3v-1.1h2.3v-2.9h1.3V366.4z"/>
	<path d="M413.3,369.3c0,2.1,1.1,4.2,2.9,5.1l-0.8,1.1c-1.3-0.6-2.2-1.9-2.7-3.5c-0.5,1.6-1.5,3-2.8,3.7l-0.8-1.1
		c1.8-0.9,3-3.1,3-5.3v-1.9h1.3v1.9H413.3z M420.1,372.1h-1.8v6H417v-11.7h1.3v4.7h1.8V372.1z"/>
	<path d="M421.1,379.3c1.1-1.9,1.6-4.1,1.6-6.2c0-2.2-0.5-4.4-1.6-6.2l0.9-0.4c1.2,2,1.9,4.1,1.9,6.6c0,2.6-0.7,4.7-1.9,6.7
		L421.1,379.3z"/>
</g>
<g>
	<g>
		<polygon class="st1" points="643.6,321.2 635.6,329.1 654.1,347.6 635.6,366.1 643.6,374 669.9,347.6 		"/>
		<polygon class="st1" points="669.3,321.2 661.4,329.1 679.9,347.6 661.4,366.1 669.3,374 695.7,347.6 		"/>
	</g>
	<g>
		<polygon class="st1" points="695.6,321.2 687.6,329.1 706.1,347.6 687.6,366.1 695.6,374 721.9,347.6 		"/>
		<polygon class="st1" points="721.3,321.2 713.4,329.1 731.9,347.6 713.4,366.1 721.3,374 747.7,347.6 		"/>
	</g>
</g>
<g>
	<g>
		<polygon class="st1" points="739.8,69.2 747.7,77.1 729.2,95.6 747.7,114.1 739.8,122 713.4,95.6 		"/>
		<polygon class="st1" points="714,69.2 721.9,77.1 703.5,95.6 721.9,114.1 714,122 687.6,95.6 		"/>
	</g>
	<g>
		<polygon class="st1" points="687.8,69.2 695.7,77.1 677.2,95.6 695.7,114.1 687.8,122 661.4,95.6 		"/>
		<polygon class="st1" points="662,69.2 669.9,77.1 651.5,95.6 669.9,114.1 662,122 635.6,95.6 		"/>
	</g>
</g>
<g>
	<path d="M191.5,145.4v1.1h-10.6v-1.1H191.5z M188.8,138.6H182v-1.1h8.1v1.3c0,1.6,0,3.2-0.4,5.7l-1.4-0.1c0.5-2.3,0.5-4,0.5-5.6
		L188.8,138.6L188.8,138.6z"/>
	<path d="M200.2,143.1c-1.8,0.3-3.3,0.4-5.7,0.4h-1v-3.7h4v-1.5h-4.1v-1.1h5.4v3.6h-4v1.6c2.1,0,3.5-0.1,5.2-0.4L200.2,143.1z
		 M202.9,146.8v1.1h-8v-3.5h1.3v2.5h6.7V146.8z M202.6,145h-1.4v-8.6h1.4V145z"/>
	<path d="M219.1,145.6v1.1h-10.6v-1.1h4.6v-2.7h1.4v2.7H219.1z M208.9,142.2c2.3-0.4,4.1-2,4.1-3.8l0,0h-3.7v-1.1h8.9v1.1h-3.7l0,0
		c0,1.8,1.9,3.4,4.2,3.7l-0.5,1.1c-1.9-0.4-3.6-1.5-4.4-3c-0.8,1.5-2.4,2.6-4.3,3L208.9,142.2z"/>
	<path d="M227.3,141.5c-1.6,0.3-3,0.4-5.5,0.4h-0.9V137h5.2v1.1h-3.9v2.7c2.2,0,3.5-0.1,4.9-0.4L227.3,141.5z M223.4,146.9h6.6v1.1
		h-7.9v-3.1h6.2v-1H222v-1.1h7.6v3.1h-6.2L223.4,146.9L223.4,146.9z M231.3,138.7v1.1h-1.7v2.4h-1.3v-5.9h1.3v2.4H231.3z"/>
	<path d="M174.4,163c-2.4,0.4-5.2,0.5-7.3,0.5l-0.1-1.1c0.7,0,1.5,0,2.3,0V160h1.3v2.4c1.2-0.1,2.5-0.1,3.6-0.3L174.4,163z
		 M172,161.3c0.2-1.3,0.3-2.2,0.3-2.9h-4.6v-1.1h5.9v0.7c0,0.8,0,1.9-0.3,3.5L172,161.3z M170.1,166.8h6.6v1.1h-8v-3.5h1.4V166.8z
		 M177.9,160.1v1.1h-1.6v4H175v-8.8h1.4v3.7H177.9z"/>
	<path d="M181.1,164.3c1.9,0,3.5-0.1,5.3-0.4l0.1,1.1c-2,0.4-3.8,0.4-5.8,0.4h-1v-4.7h4.1v-2.2h-4.1v-1.1h5.5v4.4h-4.1V164.3z
		 M188.8,156.4v11.8h-1.4v-11.8H188.8z"/>
	<path d="M198.2,160c0,1.8,0.8,3.7,2.4,4.6l-0.7,1c-1.1-0.6-1.9-1.7-2.3-3c-0.4,1.4-1.2,2.6-2.3,3.2l-0.8-1c1.6-0.9,2.4-3,2.4-4.8
		v-0.4h-2v-1.1h2v-1.7h1.3v1.7h2v1.1h-2L198.2,160L198.2,160z M201.1,156.6h1.3v10.9h-1.3V162h-1.6v-1.1h1.6V156.6z M204.7,156.4
		v11.7h-1.3v-11.7H204.7z"/>
	<path d="M210.2,159.6c0,2,0.8,4,2.4,5l-0.8,1c-1.1-0.6-1.8-1.8-2.2-3.2c-0.4,1.5-1.2,2.7-2.3,3.5l-0.8-1c1.7-1,2.4-3.2,2.4-5.3
		v-0.8h-2.1v-1.1h5.3v1.1h-1.9L210.2,159.6L210.2,159.6z M213,156.6h1.3v10.9H213v-6h-1.7v-1.1h1.7V156.6z M216.7,156.4v11.7h-1.3
		v-11.7H216.7z"/>
	<path d="M232.9,165.6v1.1h-10.6v-1.1h4.6v-2.7h1.4v2.7H232.9z M222.7,162.2c2.3-0.4,4.1-2,4.1-3.8l0,0h-3.7v-1.1h8.9v1.1h-3.7l0,0
		c0,1.8,1.9,3.4,4.2,3.7l-0.5,1.1c-1.9-0.4-3.6-1.5-4.4-3c-0.8,1.5-2.4,2.6-4.3,3L222.7,162.2z"/>
	<path d="M238.3,159.3c0,2.1,1.1,4.2,2.9,5.1l-0.8,1.1c-1.3-0.6-2.2-1.9-2.7-3.5c-0.5,1.6-1.5,3-2.8,3.7l-0.8-1.1
		c1.8-0.9,3-3.1,3-5.3v-1.9h1.3L238.3,159.3L238.3,159.3z M245.1,162.1h-1.8v6H242v-11.7h1.3v4.7h1.8V162.1z"/>
</g>
<g>
	<path d="M153.6,292.6h-6.9v-1.1h2.8v-1.2h1.3v1.2h2.8L153.6,292.6L153.6,292.6z M150.1,297.3c-1.7,0-2.8-0.8-2.8-2.1
		c0-1.3,1.2-2.1,2.8-2.1c1.7,0,2.8,0.8,2.8,2.1C153,296.5,151.8,297.3,150.1,297.3z M148.3,298.1h7.5v3.9h-7.5V298.1z M150.1,296.3
		c0.9,0,1.6-0.4,1.6-1.1s-0.6-1.1-1.6-1.1s-1.6,0.4-1.6,1.1C148.6,295.9,149.2,296.3,150.1,296.3z M149.7,300.9h4.9v-1.8h-4.9V300.9
		z M157.5,294.5h-1.7v3h-1.3v-7.1h1.3v3h1.7V294.5z"/>
	<path d="M169.3,298.1h-2.7v4h-1.4v-4h-2.7v4h-1.4v-4h-2.6V297h10.6L169.3,298.1z M159.7,293.4c0-1.6,1.7-2.6,4.2-2.6s4.2,1,4.2,2.6
		s-1.7,2.6-4.2,2.6S159.7,295,159.7,293.4z M161.1,293.4c0,0.9,1.1,1.5,2.8,1.5s2.8-0.6,2.8-1.5s-1.1-1.5-2.8-1.5
		C162.2,291.9,161.1,292.5,161.1,293.4z"/>
	<path d="M178.5,298.8c1-0.1,2-0.1,2.9-0.3l0.1,1c-2.5,0.4-5.2,0.5-7.2,0.5l-0.2-1.1c0.9,0,2,0,3,0v-1.1c-1.3-0.2-2.1-1-2.1-2.1
		c0-1.3,1.1-2.2,2.8-2.2s2.8,0.9,2.8,2.2c0,1.1-0.8,1.9-2.1,2.1V298.8z M181.3,292.8h-7v-1.1h2.8v-1.3h1.3v1.3h2.8L181.3,292.8
		L181.3,292.8z M177.8,296.8c0.9,0,1.5-0.4,1.5-1.2c0-0.7-0.6-1.2-1.5-1.2s-1.6,0.4-1.6,1.2C176.2,296.3,176.9,296.8,177.8,296.8z
		 M185.1,296.4h-1.7v5.7h-1.3v-11.8h1.3v4.9h1.7V296.4z"/>
	<path d="M193.1,292.6h-6.9v-1.1h2.8v-1.2h1.3v1.2h2.8L193.1,292.6L193.1,292.6z M189.7,297.4c-1.7,0-2.8-0.9-2.8-2.1
		c0-1.3,1.2-2.1,2.8-2.1s2.8,0.9,2.8,2.1S191.3,297.4,189.7,297.4z M187.6,298.3h7.7v3.8H194v-2.7h-6.4V298.3z M189.7,296.4
		c0.9,0,1.6-0.4,1.6-1.1s-0.6-1.1-1.6-1.1s-1.6,0.4-1.6,1.1C188.1,295.9,188.7,296.4,189.7,296.4z M197,294.6h-1.7v3.1H194v-7.3h1.3
		v3.1h1.7V294.6z"/>
	<path d="M207.8,296.3v1h3.3v2.8h-6.7v1h7v1h-8.3v-2.9h6.7v-0.8H203v-1h3.4v-1h-4.6v-1.1h10.6v1.1h-4.6V296.3z M211,294.4h-7.9v-3.6
		h7.9V294.4z M209.7,291.8h-5.3v1.5h5.3V291.8z"/>
	<path d="M220.4,296.3c-1.4-0.4-2.4-1.3-2.9-2.3c-0.5,1.2-1.5,2.1-3,2.6l-0.6-1.1c1.8-0.5,2.9-1.9,2.9-3.4h-2.5V291h6.4v1.1h-2.5
		c0,1.4,1.1,2.7,2.9,3.2L220.4,296.3z M223.8,301v1h-8v-3h6.3v-1h-6.4v-1h7.7v3H217v1H223.8z M223.4,296.4H222v-6.1h1.4V296.4z"/>
	<path d="M235.7,297c-1.3-0.5-2.2-1.4-2.7-2.5c-0.5,1.3-1.5,2.3-2.9,2.8l-0.7-1.1c1.8-0.7,2.9-2.2,2.9-3.8v-0.2h-2.5v-1.1h6.3v1.1
		h-2.4v0.2c0,1.5,1,2.9,2.8,3.5L235.7,297z M239.1,299.9c0,1.4-1.5,2.2-4,2.2s-4-0.8-4-2.2c0-1.4,1.5-2.2,4-2.2
		C237.6,297.7,239.1,298.5,239.1,299.9z M237.8,299.9c0-0.8-1-1.2-2.6-1.2c-1.7,0-2.6,0.4-2.6,1.2s0.9,1.2,2.6,1.2
		C236.8,301.1,237.8,300.7,237.8,299.9z M237.7,293.3v-3h1.3v7h-1.3v-3h-2.1v-1.1h2.1V293.3z"/>
	<path d="M251.9,299.6v1.1h-10.6v-1.1h4.6v-2.4h-3.4v-6.1h1.3v2h5.6v-2h1.3v6.1h-3.4v2.4H251.9z M243.8,296.1h5.6v-1.9h-5.6V296.1z"
		/>
	<path d="M263.4,293.7c0,1.6-1.3,2.7-3.1,2.7c-1.8,0-3.1-1.1-3.1-2.7s1.3-2.7,3.1-2.7C262,290.9,263.4,292,263.4,293.7z
		 M258.4,293.7c0,1,0.7,1.6,1.8,1.6c1.1,0,1.8-0.6,1.8-1.6s-0.8-1.6-1.8-1.6C259.2,292,258.4,292.7,258.4,293.7z M260.2,297.2v1.3h5
		v-1.3h1.3v4.7h-7.7v-4.7H260.2z M260.2,300.9h5v-1.3h-5V300.9z M266.6,290.4v6.3h-1.3v-6.3H266.6z"/>
	<path d="M279.5,298h-4.7v4.1h-1.3V298h-4.6v-1.1h10.6V298z M278.5,295.8c-2-0.3-3.5-1.3-4.3-2.7c-0.8,1.4-2.4,2.3-4.3,2.7l-0.5-1.1
		c2.4-0.3,4.1-1.8,4.1-3.3v-0.6h1.4v0.6c0,1.5,1.8,3,4.1,3.3L278.5,295.8z"/>
</g>
<g>
	<path d="M158,393.2v1.1h-10.6v-1.1h7.7c0.3-1.3,0.3-2.3,0.3-3.2h-6.7v-1h8v0.9c0,0.9,0,2-0.3,3.4L158,393.2L158,393.2z
		 M148.7,395.7h8v4.2h-8V395.7z M150,398.9h5.4v-2.1H150V398.9z"/>
	<path d="M163.7,391.8c0,1.9,1.2,4,3,4.8l-0.7,1.1c-1.4-0.6-2.4-1.9-3-3.4c-0.5,1.6-1.6,3-3,3.7l-0.8-1.1c1.8-0.8,3-3,3-5v-1.1h-2.6
		v-1.1h6.6v1.1h-2.6v1H163.7z M169,388.4v11.7h-1.4v-11.7H169z"/>
	<path d="M180.9,394.3v1h3.3v2.8h-6.7v1h7v1h-8.3v-2.9h6.7v-0.8h-6.7v-1h3.4v-1H175v-1.1h10.6v1.1h-4.7V394.3z M184.2,392.4h-7.9
		v-3.6h7.9V392.4z M182.9,389.8h-5.3v1.5h5.3V389.8z"/>
	<path d="M193.6,394.3c-1.4-0.4-2.4-1.3-2.9-2.3c-0.5,1.2-1.5,2.1-3,2.6l-0.6-1.1c1.8-0.5,2.9-1.9,2.9-3.4h-2.5V389h6.4v1.1h-2.5
		c0,1.4,1.1,2.7,2.9,3.2L193.6,394.3z M196.9,399v1h-8v-3h6.3v-1h-6.4v-1h7.7v3h-6.4v1H196.9z M196.6,394.4h-1.4v-6.1h1.4V394.4z"/>
	<path d="M204.5,389.3v3h3v-3h1.3v8h-5.6v-8H204.5z M204.5,396.3h3v-2.9h-3V396.3z M212.2,388.4v11.8h-1.4v-11.8H212.2z"/>
	<path d="M218.6,391.3c0,2.1,1.1,4.2,2.9,5.1l-0.8,1.1c-1.3-0.6-2.2-1.9-2.7-3.5c-0.5,1.6-1.5,3-2.8,3.7l-0.8-1.1
		c1.8-0.9,3-3.1,3-5.3v-1.9h1.3L218.6,391.3L218.6,391.3z M225.4,394.1h-1.8v6h-1.3v-11.7h1.3v4.7h1.8V394.1z"/>
	<path d="M237.1,394.1v1.1h-10.6v-1.1h2.5v-1.6c-0.9-0.4-1.4-1-1.4-1.7c0-1.4,1.6-2.2,4.2-2.2c2.6,0,4.2,0.8,4.2,2.2
		c0,0.8-0.5,1.4-1.4,1.8v1.5L237.1,394.1L237.1,394.1z M235.8,398c0,1.4-1.5,2.1-4,2.1s-4-0.8-4-2.1c0-1.3,1.5-2.1,4-2.1
		S235.8,396.7,235.8,398z M228.9,390.8c0,0.8,1.1,1.2,2.8,1.2s2.8-0.4,2.8-1.2s-1.1-1.2-2.8-1.2C230,389.6,228.9,390,228.9,390.8z
		 M234.4,398c0-0.7-1-1.1-2.7-1.1s-2.7,0.4-2.7,1.1s1,1.1,2.7,1.1S234.4,398.7,234.4,398z M230.3,394.1h2.9v-1.2
		c-0.4,0.1-0.9,0.1-1.4,0.1s-1,0-1.5-0.1V394.1z"/>
	<path d="M252.7,393.9v1.1H242v-1.1H252.7z M242.6,392.3c2.2-0.2,3.7-1.2,3.9-2.2H243V389h8.7v1.1h-3.4c0.2,1.1,1.7,2,3.9,2.2
		l-0.5,1c-2.1-0.2-3.7-1.1-4.3-2.3c-0.6,1.2-2.2,2.1-4.3,2.3L242.6,392.3z M251.4,398c0,1.4-1.5,2.1-4,2.1s-4-0.8-4-2.1
		s1.5-2.2,4-2.2C249.8,395.8,251.4,396.6,251.4,398z M250,398c0-0.7-1-1.1-2.7-1.1s-2.7,0.4-2.7,1.1s1,1.1,2.7,1.1
		S250,398.7,250,398z"/>
	<path d="M259.9,394.5h-5.4v-5.3h5.4v0.9h2.4v-1.8h1.3v6.9h-1.3v-1.7h-2.4V394.5z M258.6,390.3h-2.8v3.2h2.8V390.3z M263.8,397.9
		c0,1.4-1.5,2.2-4,2.2c-2.4,0-4-0.8-4-2.2s1.5-2.2,4-2.2C262.3,395.6,263.8,396.5,263.8,397.9z M262.4,397.9c0-0.8-1-1.2-2.6-1.2
		s-2.6,0.4-2.6,1.2c0,0.8,0.9,1.2,2.6,1.2S262.4,398.7,262.4,397.9z M259.9,391.3v1.2h2.4v-1.2H259.9z"/>
	<path d="M270.2,391.3c0,2.2,1.1,4.3,2.9,5.1l-0.8,1.1c-1.3-0.7-2.3-2-2.8-3.5c-0.5,1.7-1.5,3-2.8,3.7l-0.8-1.1c1.8-0.9,3-3.2,3-5.4
		v-1.9h1.4v2H270.2z M275.7,388.4v11.8h-1.4v-6.8h-2.5v-1.1h2.5v-3.9H275.7z"/>
	<path d="M167.1,408.8h1.5v2.7l-0.1,1.4c0.6-0.6,1.3-1.1,2.3-1.1c1.5,0,2.2,1,2.2,2.8v4.5h-1.5v-4.3c0-1.2-0.4-1.7-1.2-1.7
		c-0.7,0-1.1,0.3-1.8,1v5.1H167v-10.4H167.1z"/>
	<path d="M174.6,415.6c0-2.3,1.6-3.8,3.3-3.8c1.9,0,2.9,1.4,2.9,3.4c0,0.3,0,0.6-0.1,0.8h-4.6c0.1,1.4,1,2.2,2.2,2.2
		c0.6,0,1.2-0.2,1.7-0.5l0.5,0.9c-0.7,0.4-1.5,0.8-2.4,0.8C176.2,419.3,174.6,417.9,174.6,415.6z M179.5,414.9c0-1.2-0.6-2-1.6-2
		c-0.9,0-1.7,0.7-1.8,2H179.5z"/>
	<path d="M182.5,412h1.2l0.1,1l0,0c0.6-0.7,1.3-1.2,2.2-1.2c1.1,0,1.7,0.5,2,1.3c0.7-0.8,1.4-1.3,2.3-1.3c1.5,0,2.2,1,2.2,2.8v4.5
		H191v-4.3c0-1.2-0.4-1.7-1.2-1.7c-0.5,0-1,0.3-1.6,1v5.1h-1.5v-4.3c0-1.2-0.4-1.7-1.2-1.7c-0.5,0-1,0.3-1.6,1v5.1h-1.5V412H182.5z"
		/>
	<path d="M194.2,417.9l0.9-1c0.7,0.7,1.6,1.1,2.5,1.1c1.2,0,1.8-0.5,1.8-1.4s-0.6-1.1-1.5-1.5l-1.3-0.6c-0.9-0.4-2-1.1-2-2.5
		c0-1.5,1.3-2.6,3.1-2.6c1.1,0,2.2,0.5,2.9,1.2l-0.8,1c-0.6-0.5-1.3-0.9-2.1-0.9c-1,0-1.6,0.5-1.6,1.2c0,0.8,0.8,1.1,1.5,1.4
		l1.3,0.6c1.1,0.5,2,1.2,2,2.6c0,1.5-1.3,2.8-3.4,2.8C196.3,419.3,195,418.8,194.2,417.9z"/>
	<path d="M202.8,409.6h1.5v3.9h4.1v-3.9h1.5v9.6h-1.5v-4.4h-4.1v4.4h-1.5V409.6z"/>
	<path d="M212.4,409.6h5.7v1.3H214v2.7h3.5v1.3H214v3.1h4.3v1.3h-5.8L212.4,409.6L212.4,409.6z"/>
	<path d="M225.4,419.1l-2.2-3.9h-1.5v3.9h-1.5v-9.6h3.1c2,0,3.5,0.7,3.5,2.8c0,1.5-0.8,2.4-2,2.7l2.3,4.1H225.4z M221.7,414.1h1.4
		c1.4,0,2.1-0.6,2.1-1.7c0-1.2-0.8-1.6-2.1-1.6h-1.4V414.1z"/>
	<path d="M228.7,409.6h2.9c2.1,0,3.7,0.7,3.7,2.9c0,2.1-1.5,3.1-3.6,3.1h-1.4v3.6h-1.5L228.7,409.6L228.7,409.6z M231.5,414.3
		c1.5,0,2.3-0.6,2.3-1.8c0-1.3-0.8-1.7-2.3-1.7h-1.2v3.5H231.5z"/>
	<path d="M240.8,416.4h-3.3l-0.8,2.7h-1.5l3.2-9.6h1.7l3.2,9.6h-1.6L240.8,416.4z M240.4,415.2l-0.4-1.3c-0.3-1-0.6-2.1-0.9-3.2H239
		c-0.3,1.1-0.6,2.1-0.9,3.2l-0.4,1.3H240.4z"/>
	<path d="M257.4,413.9v1.1h-10.6v-1.1H257.4z M256.1,418c0,1.4-1.5,2.1-4,2.1s-4-0.8-4-2.1c0-1.4,1.5-2.1,4-2.1
		C254.6,415.8,256.1,416.6,256.1,418z M256.2,412.9h-8.1v-4.1h8v1.1h-6.7v2h6.7v1H256.2z M254.8,418c0-0.7-1-1.1-2.7-1.1
		s-2.7,0.4-2.7,1.1s1,1.1,2.7,1.1S254.8,418.7,254.8,418z"/>
</g>
<g>
	<g>
		<polygon class="st1" points="161.6,321.2 153.6,329.1 172.1,347.6 153.6,366.1 161.6,374 187.9,347.6 		"/>
		<polygon class="st1" points="187.3,321.2 179.4,329.1 197.9,347.6 179.4,366.1 187.3,374 213.7,347.6 		"/>
	</g>
	<g>
		<polygon class="st1" points="213.6,321.2 205.6,329.1 224.1,347.6 205.6,366.1 213.6,374 239.9,347.6 		"/>
		<polygon class="st1" points="239.3,321.2 231.4,329.1 249.9,347.6 231.4,366.1 239.3,374 265.7,347.6 		"/>
	</g>
</g>
<g>
	<g>
		<polygon class="st1" points="257.8,69.2 265.7,77.1 247.2,95.6 265.7,114.1 257.8,122 231.4,95.6 		"/>
		<polygon class="st1" points="232,69.2 239.9,77.1 221.5,95.6 239.9,114.1 232,122 205.6,95.6 		"/>
	</g>
	<g>
		<polygon class="st1" points="205.8,69.2 213.7,77.1 195.2,95.6 213.7,114.1 205.8,122 179.4,95.6 		"/>
		<polygon class="st1" points="180,69.2 187.9,77.1 169.5,95.6 187.9,114.1 180,122 153.6,95.6 		"/>
	</g>
</g>
<g>
	<g>
		<path class="st2" d="M843.4,191.7c0,0,0.1,0,0.2,0c0,0,0,0,0.1,0h0.1c2.9,0,5.3-1.1,7-3c3.8-4.3,3.2-11.7,3.1-12.4
			c-0.2-5.3-2.8-7.9-4.8-9c-1.5-0.9-3.3-1.4-5.4-1.4h-0.1l0,0h-0.1c-1.1,0-3.3,0.2-5.4,1.4c-2.1,1.2-4.6,3.7-4.9,9.1
			c-0.1,0.7-0.7,8.1,3.1,12.4C838.1,190.6,840.4,191.7,843.4,191.7z M835.9,176.5C835.9,176.4,835.9,176.4,835.9,176.5
			c0.3-7.2,5.4-8,7.6-8l0,0c0,0,0,0,0.1,0c2.7,0.1,7.3,1.2,7.6,7.9v0.1c0,0.1,0.7,6.8-2.5,10.4c-1.3,1.4-2.9,2.1-5.1,2.1l0,0l0,0
			l0,0c-2.2,0-3.9-0.7-5.1-2.1C835.2,183.3,835.9,176.5,835.9,176.5z"/>
		<path class="st2" d="M864,204L864,204c0-0.1,0-0.2,0-0.3c-0.1-2-0.2-6.6-4.5-8.1h-0.1c-4.5-1.1-8.2-3.7-8.3-3.8
			c-0.6-0.4-1.4-0.3-1.9,0.3c-0.4,0.6-0.3,1.4,0.3,1.9c0.2,0.1,4.1,2.9,9.1,4.2c2.3,0.8,2.6,3.3,2.7,5.6c0,0.1,0,0.2,0,0.2
			c0,0.9,0,2.3-0.2,3.1c-1.6,0.9-7.9,4.1-17.6,4.1c-9.6,0-16-3.2-17.6-4.1c-0.2-0.8-0.2-2.2-0.2-3.1c0-0.1,0-0.2,0-0.2
			c0.1-2.3,0.3-4.8,2.7-5.6c5-1.3,8.9-4,9.1-4.2c0.6-0.4,0.8-1.3,0.3-1.9c-0.4-0.6-1.3-0.8-1.9-0.3c0,0-3.8,2.6-8.3,3.8h-0.1
			c-4.3,1.5-4.5,6.1-4.5,8.1c0,0.1,0,0.2,0,0.2l0,0c0,0.5,0,3.2,0.5,4.5c0.1,0.3,0.3,0.5,0.5,0.6c0.3,0.2,7.5,4.8,19.4,4.8
			s19.2-4.6,19.4-4.8c0.2-0.1,0.4-0.4,0.5-0.6C864,207.2,864,204.5,864,204z"/>
	</g>
</g>
<polygon class="st1" points="8,9 110,9 110,435 8,435 "/>
<g>
	<path class="st2" d="M44.2,228.8h-9.3v-1.9h3.6v-1.6h2.4v1.6h3.3V228.8z M39.6,235.5c-2.3,0-4-1.3-4-3.1s1.6-3.1,4-3.1
		c2.3,0,4,1.3,4,3.1S41.9,235.5,39.6,235.5z M46.6,236.2H49v6H37.6v-6H40v1.2h6.6V236.2z M39.6,233.7c1,0,1.7-0.4,1.7-1.3
		c0-0.8-0.7-1.3-1.7-1.3s-1.7,0.4-1.7,1.3C37.9,233.3,38.6,233.7,39.6,233.7z M46.6,239.2H40v1.1h6.6V239.2z M49,225.5v10.1h-2.4
		v-1.2h-2.2v-1.9h2.2V231h-2.2v-1.9h2.2v-3.6H49z"/>
	<path class="st2" d="M60.7,235.1c-2,0.4-3.7,0.4-6.9,0.4h-1.3V230h5v-1.6h-5v-2h7.4v5.4h-5v1.8c2.4,0,3.9-0.1,5.6-0.4L60.7,235.1z
		 M54.3,236.7h11.6v5.8h-2.4v-3.8h-9.2V236.7z M65.9,225.5V236h-2.4v-2.6h-2.7v-1.9h2.7v-1.7h-2.7v-2h2.7v-2.3H65.9z"/>
	<path class="st2" d="M75,229.2c0,3.1,1.2,6.1,3.9,7.5l-1.5,1.9c-1.8-0.9-3-2.5-3.7-4.6c-0.7,2.2-2,3.9-3.9,4.9l-1.5-2
		c2.9-1.3,4.1-4.6,4.1-7.7v-2.5H75V229.2z M84.5,234H82v8.4h-2.4v-17H82v6.5h2.5V234z"/>
</g>
<path class="st2" d="M83,186.1h-1.7l-2.6,1.4c-0.3-0.2-0.6-0.3-0.9-0.4l-3.3-0.8v-0.4c1.4-1,2.3-2.7,2.3-4.4v-1.4
	c0-3-2.4-5.5-5.3-5.6c-0.1,0-0.3,0-0.4,0l0.8-2l-4.1-4.1l-2.4,1.6c-0.9-0.5-1.9-0.9-2.9-1.2L62,166h-5.9l-0.6,2.8
	c-1,0.3-2,0.7-2.9,1.2l-2.4-1.6l-4.1,4.1l0.8,2h-0.1c-1.5,0-2.9,0.5-3.9,1.5c-1.1,1-1.6,2.4-1.6,3.9v1.5c0,1.8,0.9,3.4,2.3,4.4v0.4
	l-2.1,0.5l-3.9-2.2H35v16l7.6,2.5h1.5l0.2-0.6l2.3,1.4c0,1.3,1.1,2.3,2.3,2.3c0,1.3,1.1,2.3,2.3,2.3c0,1.3,1.1,2.3,2.3,2.3
	c0,1.3,1.1,2.3,2.4,2.3c0.5,0,1-0.2,1.4-0.4l0.7,0.6c0.4,0.4,1,0.6,1.6,0.6h0.1c1.3,0,2.3-1,2.4-2.3c1.3,0,2.3-1,2.3-2.3
	c1.3,0,2.3-1,2.3-2.3c1.3,0,2.3-1.1,2.3-2.4c0-0.1,0-0.2,0-0.2l13.9-7L83,186.1L83,186.1z M75.3,180.1v1.4c0,1.4-0.7,2.7-1.9,3.4
	l-0.4,0.2v2.4l3.9,1l-8.5,4.5v-2.1c0-1-0.4-2-1.1-2.7l2.7-0.7V185l-0.4-0.2c-1.2-0.7-1.9-2-1.9-3.3V180c0-1.1,0.4-2,1.2-2.8
	c0.8-0.7,1.8-1.1,2.8-1.1C73.6,176.1,75.3,178,75.3,180.1z M60.2,192.3l-3.5-1.1c-1.6-0.5-3.3-0.6-5-0.2l-0.4,0.1v-0.2
	c0-1.1,0.7-2,1.8-2.3l4.4-1.1V185l-0.4-0.2c-1.2-0.7-1.9-2-1.9-3.3V180c0-1.1,0.4-2,1.2-2.8c0.8-0.7,1.8-1.1,2.8-1.1
	c2.1,0.1,3.8,1.9,3.8,4.1v1.4c0,1.4-0.7,2.7-1.9,3.4l-0.4,0.2v2.4l4.4,1.1c1,0.3,1.8,1.2,1.8,2.3v2.9l-0.2,0.1h-0.5l-4.8-1.4
	C60.9,192.4,60.6,192.4,60.2,192.3z M51.4,177.6c1.5-2.8,4.4-4.6,7.6-4.6c3.2,0,6.1,1.8,7.5,4.6c-0.4,0.7-0.6,1.6-0.6,2.4v1.5
	c0,1.8,0.9,3.4,2.3,4.4v0.4l-3.1,0.8l-3.1-0.8v-0.4c1.4-1,2.3-2.7,2.3-4.4v-1.4c0-3-2.4-5.5-5.3-5.6c-1.5,0-2.9,0.5-3.9,1.5
	c-1.1,1-1.6,2.4-1.6,3.9v1.5c0,1.8,0.9,3.4,2.3,4.4v0.4l-3.1,0.8l-3.1-0.8v-0.4c1.4-1,2.3-2.7,2.3-4.4V180
	C52,179.2,51.8,178.4,51.4,177.6z M47.9,172.9l2.5-2.5l2.2,1.4l0.4-0.3c1-0.6,2.2-1.1,3.4-1.4l0.5-0.1l0.5-2.5h3.4l0.5,2.5l0.5,0.1
	c1.2,0.3,2.3,0.8,3.4,1.4l0.4,0.3l2.2-1.4l2.5,2.5l-0.9,2.1c-0.6,0.3-1.2,0.6-1.6,1.1l-0.1,0.1c-1.8-2.9-5-4.7-8.5-4.7
	s-6.7,1.8-8.6,4.8c-0.5-0.5-1.1-0.9-1.7-1.2L47.9,172.9z M45.1,187.5V185l-0.4-0.2c-1.2-0.7-1.9-2-1.9-3.3V180c0-1.1,0.4-2,1.2-2.8
	c0.8-0.7,1.8-1.1,2.8-1.1c2.1,0.1,3.8,1.9,3.8,4.1v1.4c0,1.4-0.7,2.7-1.9,3.4l-0.4,0.2v2.4l2.7,0.7c-0.7,0.7-1.1,1.7-1.1,2.7v0.6
	l-2.4,0.5l0.1-0.2v-1.4l-4.1-2.4L45.1,187.5z M36.5,186.1h0.6l5.6,3.2l-2.8,11.2l-3.3-1.1L36.5,186.1L36.5,186.1z M42.9,201.6
	l-1.5-0.5l2.7-10.9l1.8,1v0.2L42.9,201.6L42.9,201.6z M48.2,203.8c0-0.2,0.1-0.5,0.3-0.6l1.4-1.4c0.2-0.2,0.4-0.3,0.6-0.3
	c0.5,0,0.9,0.4,0.9,0.9c0,0.2-0.1,0.5-0.3,0.6l-1.4,1.4c-0.2,0.2-0.4,0.3-0.6,0.3C48.6,204.7,48.2,204.3,48.2,203.8z M50.5,206.2
	c0-0.2,0.1-0.5,0.3-0.6l1.4-1.4c0.2-0.2,0.4-0.3,0.6-0.3c0.5,0,0.9,0.4,0.9,0.9c0,0.2-0.1,0.5-0.3,0.6l-1.4,1.4
	c-0.2,0.2-0.4,0.3-0.6,0.3C50.9,207,50.5,206.6,50.5,206.2z M52.8,208.5c0-0.2,0.1-0.5,0.3-0.6l1.4-1.4c0.2-0.2,0.4-0.3,0.6-0.3
	c0.5,0,0.9,0.4,0.9,0.9c0,0.2-0.1,0.5-0.3,0.6l-1.4,1.4c-0.2,0.2-0.4,0.3-0.6,0.3C53.2,209.4,52.8,209,52.8,208.5z M56,211.7
	c-0.5,0-0.9-0.4-0.9-0.9c0-0.2,0.1-0.5,0.3-0.6l1.4-1.4c0.2-0.2,0.4-0.3,0.6-0.3c0.5,0,0.9,0.4,0.9,0.9c0,0.2-0.1,0.5-0.3,0.6
	l-1.4,1.4C56.4,211.6,56.2,211.7,56,211.7z M59.7,212.5L59.7,212.5c-0.3,0-0.5-0.1-0.6-0.2l-0.6-0.5l0.6-0.6
	c0.2-0.2,0.4-0.5,0.5-0.7l0.7,0.6c0.2,0.2,0.3,0.4,0.3,0.6C60.5,212.1,60.2,212.5,59.7,212.5z M66.7,205.5L66.7,205.5
	c-0.3,0-0.5-0.1-0.6-0.2l-4.2-3.5l-1,1.2l4.1,3.4c0.2,0.2,0.3,0.4,0.3,0.6c0,0.4-0.4,0.8-0.8,0.8h-0.2c-0.2,0-0.4-0.1-0.5-0.2
	l-4.2-3.5l-1,1.2l4.1,3.4c0.2,0.2,0.3,0.4,0.3,0.6c0,0.4-0.4,0.8-0.8,0.8c-0.3,0-0.6-0.1-0.8-0.3l-1.7-1.4c-0.4-0.8-1.2-1.3-2.1-1.4
	c0-1.3-1.1-2.3-2.3-2.3c0-1.3-1.1-2.3-2.3-2.3c0-1.3-1.1-2.3-2.4-2.3c-0.6,0-1.3,0.3-1.7,0.7l-1.4,1.4c-0.1,0.1-0.1,0.2-0.2,0.3
	l-2.4-1.4l2.1-7.3l5.2-1.2c1.4-0.3,2.8-0.2,4.2,0.2l1.1,0.4l-3.9,1.9c-0.9,0.4-1.4,1.3-1.4,2.3v0.2c0,1.4,1.2,2.6,2.6,2.6
	c0.5,0,0.9-0.1,1.3-0.4l2.9-1.7c0.6-0.3,1.4-0.3,1.9,0.2l6.5,5.9c0.2,0.2,0.3,0.4,0.3,0.6C67.5,205.1,67.1,205.5,66.7,205.5z
	 M81.5,196.5l-13,6.5l-0.1-0.1l-6.5-5.9c-0.6-0.5-1.3-0.8-2.1-0.8c-0.6,0-1.1,0.2-1.6,0.4l-2.9,1.7c-0.2,0.1-0.3,0.1-0.5,0.1
	c-0.6,0-1-0.5-1-1v-0.2c0-0.4,0.2-0.8,0.6-0.9l4.3-2.2c0.7-0.4,1.6-0.5,2.4-0.2l4.9,1.4h1.2l14.5-7.6v8.8H81.5z"/>
</svg>
